<?xml version="1.0" encoding="utf-8"?>
<!-- Generator: Adobe Illustrator 21.1.0, SVG Export Plug-In . SVG Version: 6.00 Build 0)  -->
<svg version="1.1" id="Layer_1" xmlns="http://www.w3.org/2000/svg" xmlns:xlink="http://www.w3.org/1999/xlink" x="0px" y="0px"
	 viewBox="0 0 1440 1679" style="enable-background:new 0 0 1440 1679;" xml:space="preserve">
<style type="text/css">
	.st0{opacity:0.15;fill:url(#SVGID_1_);enable-background:new    ;}
	.st1{opacity:0.25;fill:url(#SVGID_2_);enable-background:new    ;}
	.st2{opacity:0.2;fill:url(#SVGID_3_);enable-background:new    ;}
	.st3{opacity:0.15;fill:url(#SVGID_4_);enable-background:new    ;}
	.st4{opacity:0.25;fill:url(#SVGID_5_);enable-background:new    ;}
	.st5{opacity:0.2;fill:url(#SVGID_6_);enable-background:new    ;}
</style>
<title>1440 - Spoedgevallen</title>
<desc>Created with Sketch.</desc>
<g>
	
		<linearGradient id="SVGID_1_" gradientUnits="userSpaceOnUse" x1="-238.3989" y1="1380.5291" x2="-238.3989" y2="1379.4247" gradientTransform="matrix(1404 0 0 -1404 335963 1937956)">
		<stop  offset="0" style="stop-color:#E80066"/>
		<stop  offset="1" style="stop-color:#FFFFFF;stop-opacity:0.7971"/>
	</linearGradient>
	<path class="st0" d="M1440,187.2V142c-30.1-3.9-60.8-6-92-6c-101.9,0-198.6,21.7-286,60.7c65.1-20,134.3-30.7,206-30.7
		C1327.3,166,1385,173.4,1440,187.2z"/>
	
		<linearGradient id="SVGID_2_" gradientUnits="userSpaceOnUse" x1="-238.3989" y1="1380.2842" x2="-238.3989" y2="1379.7885" gradientTransform="matrix(1404 0 0 -1404 335963 1937956)">
		<stop  offset="0" style="stop-color:#FF7400"/>
		<stop  offset="1" style="stop-color:#FFFFFF;stop-opacity:0"/>
	</linearGradient>
	<path class="st1" d="M1440,187.2V142c-30.1-3.9-60.8-6-92-6c-101.9,0-198.6,21.7-286,60.7c65.1-20,134.3-30.7,206-30.7
		C1327.3,166,1385,173.4,1440,187.2z"/>
	
		<linearGradient id="SVGID_3_" gradientUnits="userSpaceOnUse" x1="-238.5185" y1="1380.2716" x2="-238.5185" y2="1379.7885" gradientTransform="matrix(1404 0 0 -1404 335883 1937986)">
		<stop  offset="0" style="stop-color:#FF7400"/>
		<stop  offset="1" style="stop-color:#FFFFFF;stop-opacity:0"/>
	</linearGradient>
	<path class="st2" d="M1348,1540c-387.7,0-702-314.3-702-702c0-285.8,170.9-531.8,416-641.3C774.8,284.7,566,552,566,868
		c0,387.7,314.3,702,702,702c59.3,0,117-7.4,172-21.2V1534C1409.9,1538,1379.2,1540,1348,1540z"/>
	
		<linearGradient id="SVGID_4_" gradientUnits="userSpaceOnUse" x1="-238.547" y1="1380.5291" x2="-238.547" y2="1379.4247" gradientTransform="matrix(1404 0 0 -1404 335963 1937956)">
		<stop  offset="0" style="stop-color:#E80066"/>
		<stop  offset="1" style="stop-color:#FFFFFF;stop-opacity:0.7971"/>
	</linearGradient>
	<path class="st3" d="M646,838c0,387.7,314.3,702,702,702c31.2,0,61.9-2,92-6V187.2c-55-13.9-112.7-21.2-172-21.2
		c-71.7,0-140.9,10.8-206,30.7C816.9,306.2,646,552.2,646,838z"/>
	
		<linearGradient id="SVGID_5_" gradientUnits="userSpaceOnUse" x1="-238.547" y1="1380.2842" x2="-238.547" y2="1379.7885" gradientTransform="matrix(1404 0 0 -1404 335963 1937956)">
		<stop  offset="0" style="stop-color:#FF7400"/>
		<stop  offset="1" style="stop-color:#FFFFFF;stop-opacity:0"/>
	</linearGradient>
	<path class="st4" d="M646,838c0,387.7,314.3,702,702,702c31.2,0,61.9-2,92-6V187.2c-55-13.9-112.7-21.2-172-21.2
		c-71.7,0-140.9,10.8-206,30.7C816.9,306.2,646,552.2,646,838z"/>
	
		<linearGradient id="SVGID_6_" gradientUnits="userSpaceOnUse" x1="-238.49" y1="1380.2716" x2="-238.49" y2="1379.7885" gradientTransform="matrix(1404 0 0 -1404 335883 1937986)">
		<stop  offset="0" style="stop-color:#FF7400"/>
		<stop  offset="1" style="stop-color:#FFFFFF;stop-opacity:0"/>
	</linearGradient>
	<path class="st5" d="M646,838c0,387.7,314.3,702,702,702c31.2,0,61.9-2,92-6V187.2c-55-13.9-112.7-21.2-172-21.2
		c-71.7,0-140.9,10.8-206,30.7C816.9,306.2,646,552.2,646,838z"/>
</g>
</svg>
