<svg id="essent_logo_p_RGB.svg" data-name="essent_logo" xmlns="http://www.w3.org/2000/svg" viewBox="0 0 286.29921 65.19685">
  <defs>
    <style>
      .essent_colour {
        fill: #e60167;
      }
    </style>
  </defs>
  <title>essent_logo_p_RGB.svg</title>
  <path class="essent_colour" shape-rendering="geometricPrecision" color-rendering="optimizeQuality" d="M113.28009,26.72649c-0.27807,2.14938.632,3.64131,4.9294,5.86655l6.294,3.10754c6.20245,3.07875,8.669,7.12092,7.97224,13.03539-1.04127,9.69838-5.751,15.043-22.04021,15.043a64.95778,64.95778,0,0,1-16.14483-2.20445L95.60147,54.114c5.28919,1.23511,8.80133,1.94073,12.96211,1.94073,6.03787,0,8.29651-1.75219,8.76387-5.804,0.15783-1.36831-.45917-3.37163-3.37219-4.97433l-6.54781-3.3564c-7.24205-3.55374-8.78134-8.72255-7.96061-14.14813,1.40817-9.309,8.61573-13.69039,21.66283-13.69039,3.88622,0,7.0622.41884,13.06754,1.831l-1.30751,7.31222a44.9,44.9,0,0,0-10.6405-1.5289C116.293,21.69583,113.70065,23.47568,113.28009,26.72649ZM78.58523,21.69583a44.9,44.9,0,0,1,10.6405,1.5289l1.30751-7.31222c-6.00533-1.41212-9.18132-1.831-13.06754-1.831-13.0471,0-20.25466,4.3814-21.66283,13.69039-0.82072,5.42558.71856,10.59439,7.96061,14.14813l6.54781,3.3564c2.913,1.6027,3.53,3.606,3.37219,4.97433-0.46737,4.05176-2.726,5.804-8.76387,5.804-4.16079,0-7.67292-.70562-12.96211-1.94073l-1.31074,7.46046a64.95778,64.95778,0,0,0,16.14483,2.20445c16.28924,0,20.99894-5.34457,22.04021-15.043,0.69678-5.91446-1.76979-9.95663-7.97224-13.03539l-6.294-3.10754c-4.29743-2.22524-5.20747-3.71717-4.9294-5.86655C70.05668,23.47568,72.649,21.69583,78.58523,21.69583Zm191.89794,0.89293,13.107-.00025,1.29168-7.64611H271.8135l2.40794-13.52508a47.63107,47.63107,0,0,0-14.086,2.763l-1.842,10.77039h-6.04269l-1.26249,7.63777h5.99917l-4.55857,26.65672c-1.87305,10.61321,1.32222,14.53429,11.99537,14.53429,2.865,0,5.74538-.55912,13.223-2.42511l1.30654-7.448a38.51608,38.51608,0,0,1-6.49352.55107c-5.65916,0-7.28193-1.77171-6.30594-7.275ZM223.6548,14.08215a60.93622,60.93622,0,0,0-23.647,5.13277l-7.75559,43.48022H205.645l7.1711-40.12391a30.21183,30.21183,0,0,1,7.40506-.90258c6.743,0,8.2457,3.66045,6.89089,11.31712l-5.22485,29.70936h13.385l5.44277-30.90889C243.1363,18.06242,238.62829,14.08215,223.6548,14.08215ZM185.73065,27.08274c0.46247,3.162-.16511,7.93246-1.7101,14.30381H154.74737c-1.73326,9.85473,1.765,13.56587,12.85606,13.56587a48.44047,48.44047,0,0,0,13.405-1.8829l-1.22366,6.96711c-6.68283,2.31477-11.40507,3.7429-19.09958,3.7429-15.06014,0-21.79765-8.45832-19.06025-23.97014,2.816-15.975,13.22453-25.72765,27.35891-25.72765C178.87489,14.08173,184.64786,18.53847,185.73065,27.08274Zm-18.13531-5.7591c-6,0-9.5611,3.89954-11.52224,12.54627h16.54237C174.71775,24.58,173.42353,21.32363,167.59534,21.32363ZM46.11972,27.08274c0.46247,3.162-.16511,7.93246-1.7101,14.30381H15.13643c-1.73326,9.85473,1.765,13.56587,12.85606,13.56587a48.44047,48.44047,0,0,0,13.405-1.8829l-1.22366,6.96711c-6.68283,2.31477-11.40507,3.7429-19.09958,3.7429C6.0141,63.77953-.72341,55.32121,2.014,39.80939c2.816-15.975,13.22453-25.72765,27.35892-25.72765C39.264,14.08173,45.03693,18.53847,46.11972,27.08274Zm-18.13531-5.7591c-6,0-9.5611,3.89954-11.52224,12.54627H33.00455C35.10682,24.58,33.81259,21.32363,27.98441,21.32363Z"/>
</svg>
