<svg id="Layer_1" data-name="Layer 1" xmlns="http://www.w3.org/2000/svg" viewBox="0 0 80 80"><title>ZoOpgelost iconen</title><path d="M29.23,21.85a15.85,15.85,0,0,1,1.83-1.56A14.16,14.16,0,0,1,33.3,19,13.23,13.23,0,0,1,36,18a13.4,13.4,0,0,1,3.12-.34,12.27,12.27,0,0,1,4,.63,10,10,0,0,1,3.25,1.8,8.51,8.51,0,0,1,3,6.66,10,10,0,0,1-.71,3.93,10.93,10.93,0,0,1-1.79,2.9,15,15,0,0,1-2.34,2.19l-2.36,1.77a13.52,13.52,0,0,0-1.86,1.67,3,3,0,0,0-.82,1.86L39.1,46H37.15L37,40.87v-.15a3.43,3.43,0,0,1,.72-2.16,11.19,11.19,0,0,1,1.79-1.8q1.06-.87,2.31-1.77a16.44,16.44,0,0,0,2.31-2,10.41,10.41,0,0,0,1.79-2.6,7.84,7.84,0,0,0,.72-3.48,6.33,6.33,0,0,0-2.34-5.06,7.71,7.71,0,0,0-2.49-1.35A9.33,9.33,0,0,0,38.86,20a10.13,10.13,0,0,0-3.44.52A11.85,11.85,0,0,0,33,21.72a12,12,0,0,0-1.56,1.17q-.57.52-.78.52a.71.71,0,0,1-.66-.36ZM35.06,58a2.81,2.81,0,0,1,.21-1.08,2.69,2.69,0,0,1,.59-.89,3,3,0,0,1,.87-.6,2.61,2.61,0,0,1,1.1-.22,2.64,2.64,0,0,1,1.08.22,2.83,2.83,0,0,1,1.48,1.49A2.65,2.65,0,0,1,40.61,58a2.62,2.62,0,0,1-.23,1.09,2.94,2.94,0,0,1-.6.87,2.69,2.69,0,0,1-.88.58,2.82,2.82,0,0,1-1.08.21A2.72,2.72,0,0,1,35.06,58Z"/></svg>
