<svg xmlns="http://www.w3.org/2000/svg" width="319.08" height="305.11" viewBox="0 0 319.08 305.11">
  <title>section__header-image--emergencies</title>
  <line x1="204.58" y1="263" x2="204.58" y2="233.5" fill="none" stroke="#e60167" stroke-miterlimit="10"/>
  <line x1="215.08" y1="233.5" x2="215.08" y2="263" fill="none" stroke="#e60167" stroke-miterlimit="10"/>
  <line x1="204.58" y1="286.5" x2="204.58" y2="270" fill="none" stroke="#e60167" stroke-miterlimit="10"/>
  <line x1="215.08" y1="270" x2="215.08" y2="287" fill="none" stroke="#e60167" stroke-miterlimit="10"/>
  <rect x="202.08" y="263" width="15.5" height="7" rx="0.68" ry="0.68" fill="none" stroke="#e60167" stroke-miterlimit="10" stroke-width="0.99"/>
  <line x1="297.58" y1="106.5" x2="297.58" y2="254" fill="none" stroke="#e60167" stroke-miterlimit="10"/>
  <line x1="287.08" y1="254" x2="287.08" y2="106.5" fill="none" stroke="#e60167" stroke-miterlimit="10"/>
  <line x1="297.58" y1="12.5" x2="297.58" y2="99.5" fill="none" stroke="#e60167" stroke-miterlimit="10"/>
  <line x1="120.08" y1="71.5" x2="120.08" y2="128" fill="none" stroke="#e60167" stroke-miterlimit="10"/>
  <line x1="125.58" y1="71.5" x2="125.58" y2="128" fill="none" stroke="#e60167" stroke-miterlimit="10"/>
  <rect x="284.58" y="254" width="15.5" height="7" rx="0.68" ry="0.68" fill="none" stroke="#e60167" stroke-miterlimit="10" stroke-width="0.99"/>
  <rect x="284.58" y="99.5" width="15.5" height="7" rx="0.68" ry="0.68" fill="none" stroke="#e60167" stroke-miterlimit="10" stroke-width="0.99"/>
  <rect x="248.08" y="259" width="7" height="15.5" rx="0.68" ry="0.68" fill="none" stroke="#e60167" stroke-miterlimit="10" stroke-width="0.99"/>
  <rect x="198.08" y="230" width="23.5" height="3.5" rx="0.67" ry="0.67" fill="none" stroke="#e60167" stroke-miterlimit="10" stroke-width="0.98"/>
  <path d="M242.33,230h-65a12.23,12.23,0,0,1-12.23-12.23V199.88a1.38,1.38,0,0,1,1.38-1.38h86.74a1.38,1.38,0,0,1,1.38,1.38h0v17.87A12.25,12.25,0,0,1,242.35,230Z" fill="none" stroke="#e60167" stroke-miterlimit="10"/>
  <rect x="157.08" y="191.5" width="106" height="7" rx="1.38" ry="1.38" fill="none" stroke="#e60167" stroke-miterlimit="10"/>
  <rect x="238.58" y="171.5" width="8" height="20.5" rx="1.38" ry="1.38" fill="none" stroke="#e60167" stroke-miterlimit="10"/>
  <rect x="217.58" y="175.5" width="21" height="5.5" rx="1.38" ry="1.38" fill="none" stroke="#e60167" stroke-miterlimit="10"/>
  <path d="M228.08,181v2.62A1.38,1.38,0,0,1,226.7,185H223a1.38,1.38,0,0,1-1.38-1.38h0V181" fill="none" stroke="#e60167" stroke-miterlimit="10"/>
  <rect x="235.58" y="166.5" width="14.5" height="5" rx="1.38" ry="1.38" fill="none" stroke="#e60167" stroke-miterlimit="10"/>
  <path d="M237.46,286.33a16.54,16.54,0,0,1-33.07,0" fill="none" stroke="#e60167" stroke-miterlimit="10"/>
  <path d="M226.82,287.26a5.89,5.89,0,1,1-11.79,0h0" fill="none" stroke="#e60167" stroke-miterlimit="10"/>
  <line x1="226.58" y1="278.5" x2="226.58" y2="287.5" fill="none" stroke="#e60167" stroke-miterlimit="10"/>
  <line x1="237.58" y1="286.5" x2="237.58" y2="277.5" fill="none" stroke="#e60167" stroke-miterlimit="10"/>
  <path d="M226.82,278.54A16.54,16.54,0,0,1,243.36,262h4.72" fill="none" stroke="#e60167" stroke-miterlimit="10"/>
  <path d="M237.46,277.58a6.08,6.08,0,0,1,6.08-6.08h4.54" fill="none" stroke="#e60167" stroke-miterlimit="10"/>
  <line x1="308.58" y1="272" x2="255.08" y2="272" fill="none" stroke="#e60167" stroke-miterlimit="10"/>
  <line x1="255.08" y1="261.5" x2="319.08" y2="261.5" fill="none" stroke="#e60167" stroke-miterlimit="10"/>
  <circle cx="267.33" cy="102.75" r="11.75" fill="none" stroke="#e60167" stroke-miterlimit="10"/>
  <rect x="279.08" y="101" width="5.5" height="3.5" fill="none" stroke="#e60167" stroke-miterlimit="10" stroke-width="0.96"/>
  <line x1="260.65" y1="96.35" x2="261.95" y2="97.65" fill="none" stroke="#e60167" stroke-linecap="round" stroke-linejoin="round"/>
  <line x1="267.08" y1="93.5" x2="267.08" y2="95.5" fill="none" stroke="#e60167" stroke-linecap="round" stroke-linejoin="round"/>
  <line x1="273.72" y1="96.25" x2="272.42" y2="97.55" fill="none" stroke="#e60167" stroke-linecap="round" stroke-linejoin="round"/>
  <line x1="258.08" y1="103" x2="259.58" y2="103" fill="none" stroke="#e60167" stroke-linecap="round" stroke-linejoin="round"/>
  <line x1="267.08" y1="112" x2="267.08" y2="110.5" fill="none" stroke="#e60167" stroke-linecap="round" stroke-linejoin="round"/>
  <line x1="273.9" y1="109.53" x2="272.6" y2="108.23" fill="none" stroke="#e60167" stroke-linecap="round" stroke-linejoin="round"/>
  <line x1="276.58" y1="103" x2="274.58" y2="103" fill="none" stroke="#e60167" stroke-linecap="round" stroke-linejoin="round"/>
  <line x1="260.75" y1="109.42" x2="262.04" y2="108.12" fill="none" stroke="#e60167" stroke-linecap="round" stroke-linejoin="round"/>
  <path d="M71.08,133.5V68.09a1.59,1.59,0,0,1,1.59-1.59H173.49a1.59,1.59,0,0,1,1.59,1.59h0V133.5" fill="none" stroke="#e60167" stroke-miterlimit="10"/>
  <polygon points="169.58 128 76.08 128 76.08 71.5 122.83 71.5 169.58 71.5 169.58 128" fill="none" stroke="#e60167" stroke-miterlimit="10"/>
  <rect x="66.58" y="133.5" width="112.5" height="6.5" rx="1.58" ry="1.58" fill="none" stroke="#e60167" stroke-miterlimit="10"/>
  <polyline points="132.11 71.74 138.44 86.84 133.62 100.79 141.09 99.34 153.72 106.66 162.02 87.5 169.62 93.52" fill="none" stroke="#e60167" stroke-miterlimit="10"/>
  <polyline points="153.72 106.66 150.27 113.94 156.04 119.65 153.16 128.07" fill="none" stroke="#e60167" stroke-miterlimit="10"/>
  <rect x="15.58" y="140.5" width="15" height="20.5" rx="1.53" ry="1.53" fill="none" stroke="#e60167" stroke-miterlimit="10"/>
  <circle cx="23.08" cy="151" r="4.5" fill="none" stroke="#e60167" stroke-miterlimit="10" stroke-width="0.99"/>
  <circle cx="21.32" cy="150.75" r="0.75" transform="translate(-100.35 59.23) rotate(-45)" fill="#e60167"/>
  <circle cx="24.32" cy="150.74" r="0.75" transform="translate(-99.47 61.35) rotate(-45)" fill="#e60167"/>
  <polygon points="34.43 127.94 30.52 133.5 33.13 133.5 31.83 138.37 35.69 132 33.36 132 34.43 127.94" fill="#e60167"/>
  <polygon points="30.81 175.13 29.89 168.68 28.04 170.52 25.27 165.91 27.16 173.25 28.8 171.61 30.81 175.13" fill="#e60167"/>
  <polygon points="0 141.57 5.08 145.48 5.08 142.88 10.43 144.18 3.58 140.32 3.58 142.64 0 141.57" fill="#e60167"/>
  <circle cx="267.08" cy="103" r="1.5" fill="#e60167"/>
  <polygon points="267.42 104.17 268.48 103.12 271.17 106.87 271.17 106.87 267.42 104.17" fill="#e60167"/>
  <circle cx="71.33" cy="118.25" r="0.75" fill="#e31368"/>
  <circle cx="74.33" cy="118.25" r="0.75" fill="#e31368"/>
  <circle cx="77.33" cy="118.25" r="0.75" fill="#e31368"/>
  <circle cx="80.33" cy="118.25" r="0.75" fill="#e31368"/>
  <circle cx="83.33" cy="118.25" r="0.75" fill="#e31368"/>
  <circle cx="86.33" cy="118.25" r="0.75" fill="#e31368"/>
  <circle cx="89.33" cy="118.25" r="0.75" fill="#e31368"/>
  <circle cx="92.33" cy="118.25" r="0.75" fill="#e31368"/>
  <circle cx="95.33" cy="118.25" r="0.75" fill="#e31368"/>
  <circle cx="98.33" cy="118.25" r="0.75" fill="#e31368"/>
  <circle cx="101.33" cy="118.25" r="0.75" fill="#e31368"/>
  <circle cx="104.33" cy="118.25" r="0.75" fill="#e31368"/>
  <circle cx="107.33" cy="118.25" r="0.75" fill="#e31368"/>
  <circle cx="110.33" cy="118.25" r="0.75" fill="#e31368"/>
  <circle cx="113.33" cy="118.25" r="0.75" fill="#e31368"/>
  <circle cx="116.33" cy="118.25" r="0.75" fill="#e31368"/>
  <circle cx="119.33" cy="118.25" r="0.75" fill="#e31368"/>
  <circle cx="122.33" cy="118.25" r="0.75" transform="translate(-47.78 121.13) rotate(-45)" fill="#e31368"/>
  <circle cx="125.33" cy="118.25" r="0.75" fill="#e31368"/>
  <circle cx="128.33" cy="118.25" r="0.75" fill="#e31368"/>
  <circle cx="131.33" cy="118.25" r="0.75" fill="#e31368"/>
  <circle cx="134.33" cy="118.25" r="0.75" fill="#e31368"/>
  <circle cx="72.83" cy="121.25" r="0.75" fill="#e31368"/>
  <circle cx="75.83" cy="121.25" r="0.75" fill="#e31368"/>
  <circle cx="78.83" cy="121.25" r="0.75" fill="#e31368"/>
  <circle cx="81.83" cy="121.25" r="0.75" fill="#e31368"/>
  <circle cx="84.83" cy="121.25" r="0.75" fill="#e31368"/>
  <circle cx="87.83" cy="121.25" r="0.75" fill="#e31368"/>
  <circle cx="90.83" cy="121.25" r="0.75" fill="#e31368"/>
  <circle cx="93.83" cy="121.25" r="0.75" fill="#e31368"/>
  <circle cx="96.83" cy="121.25" r="0.75" fill="#e31368"/>
  <circle cx="99.83" cy="121.25" r="0.75" fill="#e31368"/>
  <circle cx="102.83" cy="121.25" r="0.75" fill="#e31368"/>
  <circle cx="105.83" cy="121.25" r="0.75" fill="#e31368"/>
  <circle cx="108.83" cy="121.25" r="0.75" fill="#e31368"/>
  <circle cx="111.83" cy="121.25" r="0.75" fill="#e31368"/>
  <circle cx="114.83" cy="121.25" r="0.75" fill="#e31368"/>
  <circle cx="117.83" cy="121.25" r="0.75" fill="#e31368"/>
  <circle cx="120.83" cy="121.25" r="0.75" fill="#e31368"/>
  <circle cx="123.83" cy="121.25" r="0.75" fill="#e31368"/>
  <circle cx="126.83" cy="121.25" r="0.75" fill="#e31368"/>
  <circle cx="129.83" cy="121.25" r="0.75" fill="#e31368"/>
  <circle cx="132.83" cy="121.25" r="0.75" fill="#e31368"/>
  <circle cx="135.83" cy="121.25" r="0.75" fill="#e31368"/>
  <circle cx="71.33" cy="124.25" r="0.75" fill="#e31368"/>
  <circle cx="74.33" cy="124.25" r="0.75" fill="#e31368"/>
  <circle cx="77.33" cy="124.25" r="0.75" fill="#e31368"/>
  <circle cx="80.33" cy="124.25" r="0.75" fill="#e31368"/>
  <circle cx="83.33" cy="124.25" r="0.75" fill="#e31368"/>
  <circle cx="86.33" cy="124.25" r="0.75" fill="#e31368"/>
  <circle cx="89.33" cy="124.25" r="0.75" fill="#e31368"/>
  <circle cx="92.33" cy="124.25" r="0.75" fill="#e31368"/>
  <circle cx="95.33" cy="124.25" r="0.75" fill="#e31368"/>
  <circle cx="98.33" cy="124.25" r="0.75" fill="#e31368"/>
  <circle cx="101.33" cy="124.25" r="0.75" fill="#e31368"/>
  <circle cx="104.33" cy="124.25" r="0.75" fill="#e31368"/>
  <circle cx="107.33" cy="124.25" r="0.75" fill="#e31368"/>
  <circle cx="110.33" cy="124.25" r="0.75" fill="#e31368"/>
  <circle cx="113.33" cy="124.25" r="0.75" fill="#e31368"/>
  <circle cx="116.33" cy="124.25" r="0.75" fill="#e31368"/>
  <circle cx="119.33" cy="124.25" r="0.75" fill="#e31368"/>
  <circle cx="122.33" cy="124.25" r="0.75" fill="#e31368"/>
  <circle cx="125.33" cy="124.25" r="0.75" fill="#e31368"/>
  <circle cx="128.33" cy="124.25" r="0.75" fill="#e31368"/>
  <circle cx="131.33" cy="124.25" r="0.75" fill="#e31368"/>
  <circle cx="134.33" cy="124.25" r="0.75" fill="#e31368"/>
  <circle cx="72.83" cy="127.25" r="0.75" fill="#e31368"/>
  <circle cx="75.83" cy="127.25" r="0.75" fill="#e31368"/>
  <circle cx="78.83" cy="127.25" r="0.75" fill="#e31368"/>
  <circle cx="81.83" cy="127.25" r="0.75" fill="#e31368"/>
  <circle cx="84.83" cy="127.25" r="0.75" fill="#e31368"/>
  <circle cx="87.83" cy="127.25" r="0.75" fill="#e31368"/>
  <circle cx="90.83" cy="127.25" r="0.75" fill="#e31368"/>
  <circle cx="93.83" cy="127.25" r="0.75" fill="#e31368"/>
  <circle cx="96.83" cy="127.25" r="0.75" fill="#e31368"/>
  <circle cx="99.83" cy="127.25" r="0.75" fill="#e31368"/>
  <circle cx="102.83" cy="127.25" r="0.75" fill="#e31368"/>
  <circle cx="105.83" cy="127.25" r="0.75" fill="#e31368"/>
  <circle cx="108.83" cy="127.25" r="0.75" fill="#e31368"/>
  <circle cx="111.83" cy="127.25" r="0.75" fill="#e31368"/>
  <circle cx="114.83" cy="127.25" r="0.75" fill="#e31368"/>
  <circle cx="117.83" cy="127.25" r="0.75" fill="#e31368"/>
  <circle cx="120.83" cy="127.25" r="0.75" fill="#e31368"/>
  <circle cx="123.83" cy="127.25" r="0.75" fill="#e31368"/>
  <circle cx="126.83" cy="127.25" r="0.75" fill="#e31368"/>
  <circle cx="129.83" cy="127.25" r="0.75" fill="#e31368"/>
  <circle cx="132.83" cy="127.25" r="0.75" fill="#e31368"/>
  <circle cx="135.83" cy="127.25" r="0.75" fill="#e31368"/>
  <circle cx="71.33" cy="130.25" r="0.75" fill="#e31368"/>
  <circle cx="74.33" cy="130.25" r="0.75" fill="#e31368"/>
  <circle cx="77.33" cy="130.25" r="0.75" fill="#e31368"/>
  <circle cx="80.33" cy="130.25" r="0.75" fill="#e31368"/>
  <circle cx="83.33" cy="130.25" r="0.75" fill="#e31368"/>
  <circle cx="86.33" cy="130.25" r="0.75" fill="#e31368"/>
  <circle cx="89.33" cy="130.25" r="0.75" fill="#e31368"/>
  <circle cx="92.33" cy="130.25" r="0.75" fill="#e31368"/>
  <circle cx="95.33" cy="130.25" r="0.75" fill="#e31368"/>
  <circle cx="98.33" cy="130.25" r="0.75" fill="#e31368"/>
  <circle cx="101.33" cy="130.25" r="0.75" fill="#e31368"/>
  <circle cx="104.33" cy="130.25" r="0.75" fill="#e31368"/>
  <circle cx="107.33" cy="130.25" r="0.75" fill="#e31368"/>
  <circle cx="110.33" cy="130.25" r="0.75" fill="#e31368"/>
  <circle cx="113.33" cy="130.25" r="0.75" fill="#e31368"/>
  <circle cx="116.33" cy="130.25" r="0.75" fill="#e31368"/>
  <circle cx="119.33" cy="130.25" r="0.75" fill="#e31368"/>
  <circle cx="122.33" cy="130.25" r="0.75" fill="#e31368"/>
  <circle cx="125.33" cy="130.25" r="0.75" fill="#e31368"/>
  <circle cx="128.33" cy="130.25" r="0.75" fill="#e31368"/>
  <circle cx="131.33" cy="130.25" r="0.75" fill="#e31368"/>
  <circle cx="134.33" cy="130.25" r="0.75" fill="#e31368"/>
  <circle cx="72.83" cy="133.25" r="0.75" fill="#e31368"/>
  <circle cx="75.83" cy="133.25" r="0.75" fill="#e31368"/>
  <circle cx="78.83" cy="133.25" r="0.75" fill="#e31368"/>
  <circle cx="81.83" cy="133.25" r="0.75" fill="#e31368"/>
  <circle cx="84.83" cy="133.25" r="0.75" fill="#e31368"/>
  <circle cx="87.83" cy="133.25" r="0.75" fill="#e31368"/>
  <circle cx="90.83" cy="133.25" r="0.75" fill="#e31368"/>
  <circle cx="93.83" cy="133.25" r="0.75" fill="#e31368"/>
  <circle cx="96.83" cy="133.25" r="0.75" fill="#e31368"/>
  <circle cx="99.83" cy="133.25" r="0.75" fill="#e31368"/>
  <circle cx="102.83" cy="133.25" r="0.75" fill="#e31368"/>
  <circle cx="105.83" cy="133.25" r="0.75" fill="#e31368"/>
  <circle cx="108.83" cy="133.25" r="0.75" fill="#e31368"/>
  <circle cx="111.83" cy="133.25" r="0.75" fill="#e31368"/>
  <circle cx="114.83" cy="133.25" r="0.75" fill="#e31368"/>
  <circle cx="117.83" cy="133.25" r="0.75" fill="#e31368"/>
  <circle cx="120.83" cy="133.25" r="0.75" fill="#e31368"/>
  <circle cx="123.83" cy="133.25" r="0.75" fill="#e31368"/>
  <circle cx="126.83" cy="133.25" r="0.75" fill="#e31368"/>
  <circle cx="129.83" cy="133.25" r="0.75" fill="#e31368"/>
  <circle cx="132.83" cy="133.25" r="0.75" fill="#e31368"/>
  <circle cx="135.83" cy="133.25" r="0.75" fill="#e31368"/>
  <circle cx="137.33" cy="118.25" r="0.75" fill="#e31368"/>
  <circle cx="140.33" cy="118.25" r="0.75" fill="#e31368"/>
  <circle cx="143.33" cy="118.25" r="0.75" fill="#e31368"/>
  <circle cx="146.33" cy="118.25" r="0.75" fill="#e31368"/>
  <circle cx="149.33" cy="118.25" r="0.75" fill="#e31368"/>
  <circle cx="152.33" cy="118.25" r="0.75" fill="#e31368"/>
  <circle cx="155.33" cy="118.25" r="0.75" fill="#e31368"/>
  <circle cx="158.33" cy="118.25" r="0.75" fill="#e31368"/>
  <circle cx="161.33" cy="118.25" r="0.75" fill="#e31368"/>
  <circle cx="164.33" cy="118.25" r="0.75" fill="#e31368"/>
  <circle cx="167.33" cy="118.25" r="0.75" fill="#e31368"/>
  <circle cx="170.33" cy="118.25" r="0.75" fill="#e31368"/>
  <circle cx="173.33" cy="118.25" r="0.75" fill="#e31368"/>
  <circle cx="139.33" cy="121.25" r="0.75" fill="#e31368"/>
  <circle cx="142.33" cy="121.25" r="0.75" fill="#e31368"/>
  <circle cx="145.33" cy="121.25" r="0.75" fill="#e31368"/>
  <circle cx="148.33" cy="121.25" r="0.75" fill="#e31368"/>
  <circle cx="151.33" cy="121.25" r="0.75" fill="#e31368"/>
  <circle cx="154.33" cy="121.25" r="0.75" fill="#e31368"/>
  <circle cx="157.33" cy="121.25" r="0.75" fill="#e31368"/>
  <circle cx="160.33" cy="121.25" r="0.75" fill="#e31368"/>
  <circle cx="163.33" cy="121.25" r="0.75" fill="#e31368"/>
  <circle cx="166.33" cy="121.25" r="0.75" fill="#e31368"/>
  <circle cx="169.33" cy="121.25" r="0.75" fill="#e31368"/>
  <circle cx="172.33" cy="121.25" r="0.75" fill="#e31368"/>
  <circle cx="137.33" cy="124.25" r="0.75" fill="#e31368"/>
  <circle cx="140.33" cy="124.25" r="0.75" fill="#e31368"/>
  <circle cx="143.33" cy="124.25" r="0.75" fill="#e31368"/>
  <circle cx="146.33" cy="124.25" r="0.75" fill="#e31368"/>
  <circle cx="149.33" cy="124.25" r="0.75" fill="#e31368"/>
  <circle cx="152.33" cy="124.25" r="0.75" fill="#e31368"/>
  <circle cx="155.33" cy="124.25" r="0.75" fill="#e31368"/>
  <circle cx="158.33" cy="124.25" r="0.75" fill="#e31368"/>
  <circle cx="161.33" cy="124.25" r="0.75" fill="#e31368"/>
  <circle cx="164.33" cy="124.25" r="0.75" fill="#e31368"/>
  <circle cx="167.33" cy="124.25" r="0.75" fill="#e31368"/>
  <circle cx="170.33" cy="124.25" r="0.75" fill="#e31368"/>
  <circle cx="173.33" cy="124.25" r="0.75" fill="#e31368"/>
  <circle cx="139.33" cy="127.25" r="0.75" fill="#e31368"/>
  <circle cx="142.33" cy="127.25" r="0.75" fill="#e31368"/>
  <circle cx="145.33" cy="127.25" r="0.75" fill="#e31368"/>
  <circle cx="148.33" cy="127.25" r="0.75" fill="#e31368"/>
  <circle cx="151.33" cy="127.25" r="0.75" fill="#e31368"/>
  <circle cx="154.33" cy="127.25" r="0.75" fill="#e31368"/>
  <circle cx="157.33" cy="127.25" r="0.75" fill="#e31368"/>
  <circle cx="160.33" cy="127.25" r="0.75" fill="#e31368"/>
  <circle cx="163.33" cy="127.25" r="0.75" fill="#e31368"/>
  <circle cx="166.33" cy="127.25" r="0.75" fill="#e31368"/>
  <circle cx="169.33" cy="127.25" r="0.75" fill="#e31368"/>
  <circle cx="172.33" cy="127.25" r="0.75" fill="#e31368"/>
  <circle cx="137.33" cy="130.25" r="0.75" fill="#e31368"/>
  <circle cx="140.33" cy="130.25" r="0.75" fill="#e31368"/>
  <circle cx="143.33" cy="130.25" r="0.75" fill="#e31368"/>
  <circle cx="146.33" cy="130.25" r="0.75" fill="#e31368"/>
  <circle cx="149.33" cy="130.25" r="0.75" fill="#e31368"/>
  <circle cx="152.33" cy="130.25" r="0.75" fill="#e31368"/>
  <circle cx="155.33" cy="130.25" r="0.75" fill="#e31368"/>
  <circle cx="158.33" cy="130.25" r="0.75" fill="#e31368"/>
  <circle cx="161.33" cy="130.25" r="0.75" fill="#e31368"/>
  <circle cx="164.33" cy="130.25" r="0.75" fill="#e31368"/>
  <circle cx="167.33" cy="130.25" r="0.75" fill="#e31368"/>
  <circle cx="170.33" cy="130.25" r="0.75" fill="#e31368"/>
  <circle cx="173.33" cy="130.25" r="0.75" fill="#e31368"/>
  <circle cx="139.33" cy="133.25" r="0.75" fill="#e31368"/>
  <circle cx="142.33" cy="133.25" r="0.75" fill="#e31368"/>
  <circle cx="145.33" cy="133.25" r="0.75" fill="#e31368"/>
  <circle cx="148.33" cy="133.25" r="0.75" fill="#e31368"/>
  <circle cx="151.33" cy="133.25" r="0.75" fill="#e31368"/>
  <circle cx="154.33" cy="133.25" r="0.75" fill="#e31368"/>
  <circle cx="157.33" cy="133.25" r="0.75" fill="#e31368"/>
  <circle cx="160.33" cy="133.25" r="0.75" fill="#e31368"/>
  <circle cx="163.33" cy="133.25" r="0.75" fill="#e31368"/>
  <circle cx="166.33" cy="133.25" r="0.75" fill="#e31368"/>
  <circle cx="169.33" cy="133.25" r="0.75" fill="#e31368"/>
  <circle cx="172.33" cy="133.25" r="0.75" fill="#e31368"/>
  <circle cx="174.83" cy="133.25" r="0.75" fill="#e31368"/>
  <circle cx="296.33" cy="60.25" r="0.75" fill="#e31368"/>
  <circle cx="296.33" cy="63.25" r="0.75" fill="#e31368"/>
  <circle cx="296.33" cy="66.25" r="0.75" fill="#e31368"/>
  <circle cx="296.33" cy="69.25" r="0.75" fill="#e31368"/>
  <circle cx="296.33" cy="72.25" r="0.75" fill="#e31368"/>
  <circle cx="296.33" cy="75.25" r="0.75" fill="#e31368"/>
  <circle cx="296.33" cy="78.25" r="0.75" fill="#e31368"/>
  <circle cx="296.33" cy="81.25" r="0.75" fill="#e31368"/>
  <circle cx="296.33" cy="84.25" r="0.75" fill="#e31368"/>
  <circle cx="296.33" cy="87.25" r="0.75" fill="#e31368"/>
  <circle cx="296.33" cy="90.25" r="0.75" fill="#e31368"/>
  <circle cx="296.33" cy="93.25" r="0.75" fill="#e31368"/>
  <circle cx="296.33" cy="96.25" r="0.75" fill="#e31368"/>
  <circle cx="296.33" cy="99.25" r="0.75" fill="#e31368"/>
  <circle cx="293.33" cy="58.75" r="0.75" fill="#e31368"/>
  <circle cx="293.33" cy="61.75" r="0.75" fill="#e31368"/>
  <circle cx="293.33" cy="64.75" r="0.75" fill="#e31368"/>
  <circle cx="293.33" cy="67.75" r="0.75" fill="#e31368"/>
  <circle cx="293.33" cy="70.75" r="0.75" fill="#e31368"/>
  <circle cx="293.33" cy="73.75" r="0.75" fill="#e31368"/>
  <circle cx="293.33" cy="76.75" r="0.75" fill="#e31368"/>
  <circle cx="293.33" cy="79.75" r="0.75" fill="#e31368"/>
  <circle cx="293.33" cy="82.75" r="0.75" fill="#e31368"/>
  <circle cx="293.33" cy="85.75" r="0.75" fill="#e31368"/>
  <circle cx="293.33" cy="88.75" r="0.75" fill="#e31368"/>
  <circle cx="293.33" cy="91.75" r="0.75" fill="#e31368"/>
  <circle cx="293.33" cy="94.75" r="0.75" fill="#e31368"/>
  <circle cx="293.33" cy="97.75" r="0.75" fill="#e31368"/>
  <circle cx="299.33" cy="100.75" r="0.75" fill="#e31368"/>
  <circle cx="299.33" cy="103.75" r="0.75" fill="#e31368"/>
  <circle cx="296.33" cy="102.75" r="0.75" fill="#e31368"/>
  <circle cx="296.33" cy="105.75" r="0.75" fill="#e31368"/>
  <circle cx="296.33" cy="108.75" r="0.75" fill="#e31368"/>
  <circle cx="296.33" cy="111.75" r="0.75" fill="#e31368"/>
  <circle cx="296.33" cy="114.75" r="0.75" fill="#e31368"/>
  <circle cx="296.33" cy="117.75" r="0.75" fill="#e31368"/>
  <circle cx="296.33" cy="120.75" r="0.75" fill="#e31368"/>
  <circle cx="296.33" cy="123.75" r="0.75" fill="#e31368"/>
  <circle cx="296.33" cy="126.75" r="0.75" fill="#e31368"/>
  <circle cx="296.33" cy="129.75" r="0.75" fill="#e31368"/>
  <circle cx="296.33" cy="132.75" r="0.75" fill="#e31368"/>
  <circle cx="296.33" cy="135.75" r="0.75" fill="#e31368"/>
  <circle cx="296.33" cy="138.25" r="0.75" fill="#e31368"/>
  <circle cx="296.33" cy="141.25" r="0.75" fill="#e31368"/>
  <circle cx="296.33" cy="144.25" r="0.75" fill="#e31368"/>
  <circle cx="296.33" cy="147.25" r="0.75" fill="#e31368"/>
  <circle cx="296.33" cy="150.25" r="0.75" fill="#e31368"/>
  <circle cx="296.33" cy="153.25" r="0.75" fill="#e31368"/>
  <circle cx="296.33" cy="156.25" r="0.75" fill="#e31368"/>
  <circle cx="296.33" cy="159.25" r="0.75" fill="#e31368"/>
  <circle cx="296.33" cy="162.25" r="0.75" fill="#e31368"/>
  <circle cx="296.33" cy="165.25" r="0.75" fill="#e31368"/>
  <circle cx="296.33" cy="168.25" r="0.75" fill="#e31368"/>
  <circle cx="296.33" cy="171.25" r="0.75" fill="#e31368"/>
  <circle cx="296.33" cy="174.25" r="0.75" fill="#e31368"/>
  <circle cx="296.33" cy="177.25" r="0.75" fill="#e31368"/>
  <circle cx="296.33" cy="180.25" r="0.75" fill="#e31368"/>
  <circle cx="296.33" cy="183.25" r="0.75" fill="#e31368"/>
  <circle cx="296.33" cy="186.25" r="0.75" fill="#e31368"/>
  <circle cx="296.33" cy="189.25" r="0.75" fill="#e31368"/>
  <circle cx="296.33" cy="192.25" r="0.75" fill="#e31368"/>
  <circle cx="296.33" cy="195.25" r="0.75" fill="#e31368"/>
  <circle cx="296.33" cy="198.25" r="0.75" fill="#e31368"/>
  <circle cx="296.33" cy="201.25" r="0.75" fill="#e31368"/>
  <circle cx="296.33" cy="204.25" r="0.75" fill="#e31368"/>
  <circle cx="296.33" cy="207.25" r="0.75" fill="#e31368"/>
  <circle cx="296.33" cy="210.25" r="0.75" fill="#e31368"/>
  <circle cx="296.33" cy="213.25" r="0.75" fill="#e31368"/>
  <circle cx="296.33" cy="216.25" r="0.75" fill="#e31368"/>
  <circle cx="296.33" cy="219.25" r="0.75" fill="#e31368"/>
  <circle cx="296.33" cy="222.25" r="0.75" fill="#e31368"/>
  <circle cx="296.33" cy="225.25" r="0.75" fill="#e31368"/>
  <circle cx="296.33" cy="228.25" r="0.75" fill="#e31368"/>
  <circle cx="296.33" cy="231.25" r="0.75" fill="#e31368"/>
  <circle cx="296.33" cy="234.25" r="0.75" fill="#e31368"/>
  <circle cx="296.33" cy="237.25" r="0.75" fill="#e31368"/>
  <circle cx="296.33" cy="240.25" r="0.75" fill="#e31368"/>
  <circle cx="296.33" cy="243.25" r="0.75" fill="#e31368"/>
  <circle cx="296.33" cy="246.25" r="0.75" fill="#e31368"/>
  <circle cx="296.33" cy="249.25" r="0.75" fill="#e31368"/>
  <circle cx="296.33" cy="252.25" r="0.75" fill="#e31368"/>
  <circle cx="296.33" cy="255.25" r="0.75" fill="#e31368"/>
  <circle cx="296.33" cy="258.25" r="0.75" fill="#e31368"/>
  <circle cx="296.33" cy="261.25" r="0.75" fill="#e31368"/>
  <circle cx="293.33" cy="100.75" r="0.75" fill="#e31368"/>
  <circle cx="293.33" cy="103.75" r="0.75" fill="#e31368"/>
  <circle cx="293.33" cy="106.75" r="0.75" fill="#e31368"/>
  <circle cx="293.33" cy="109.75" r="0.75" fill="#e31368"/>
  <circle cx="293.33" cy="112.75" r="0.75" fill="#e31368"/>
  <circle cx="293.33" cy="115.75" r="0.75" fill="#e31368"/>
  <circle cx="293.33" cy="118.75" r="0.75" fill="#e31368"/>
  <circle cx="293.33" cy="121.75" r="0.75" fill="#e31368"/>
  <circle cx="293.33" cy="124.75" r="0.75" fill="#e31368"/>
  <circle cx="293.33" cy="127.75" r="0.75" fill="#e31368"/>
  <circle cx="293.33" cy="130.75" r="0.75" fill="#e31368"/>
  <circle cx="293.33" cy="133.75" r="0.75" fill="#e31368"/>
  <circle cx="293.33" cy="136.75" r="0.75" fill="#e31368"/>
  <circle cx="293.33" cy="139.75" r="0.75" fill="#e31368"/>
  <circle cx="293.33" cy="142.75" r="0.75" fill="#e31368"/>
  <circle cx="293.33" cy="145.75" r="0.75" fill="#e31368"/>
  <circle cx="293.33" cy="148.75" r="0.75" fill="#e31368"/>
  <circle cx="293.33" cy="151.75" r="0.75" fill="#e31368"/>
  <circle cx="293.33" cy="154.75" r="0.75" fill="#e31368"/>
  <circle cx="293.33" cy="157.75" r="0.75" fill="#e31368"/>
  <circle cx="293.33" cy="160.75" r="0.75" fill="#e31368"/>
  <circle cx="293.33" cy="163.75" r="0.75" fill="#e31368"/>
  <circle cx="293.33" cy="166.75" r="0.75" fill="#e31368"/>
  <circle cx="293.33" cy="169.75" r="0.75" fill="#e31368"/>
  <circle cx="293.33" cy="172.75" r="0.75" fill="#e31368"/>
  <circle cx="293.33" cy="175.75" r="0.75" fill="#e31368"/>
  <circle cx="293.33" cy="178.75" r="0.75" fill="#e31368"/>
  <circle cx="293.33" cy="181.75" r="0.75" fill="#e31368"/>
  <circle cx="293.33" cy="184.75" r="0.75" fill="#e31368"/>
  <circle cx="293.33" cy="187.75" r="0.75" fill="#e31368"/>
  <circle cx="293.33" cy="190.75" r="0.75" fill="#e31368"/>
  <circle cx="293.33" cy="193.75" r="0.75" fill="#e31368"/>
  <circle cx="293.33" cy="196.75" r="0.75" fill="#e31368"/>
  <circle cx="293.33" cy="199.75" r="0.75" fill="#e31368"/>
  <circle cx="293.33" cy="202.75" r="0.75" fill="#e31368"/>
  <circle cx="293.33" cy="205.75" r="0.75" fill="#e31368"/>
  <circle cx="293.33" cy="208.75" r="0.75" fill="#e31368"/>
  <circle cx="293.33" cy="211.75" r="0.75" fill="#e31368"/>
  <circle cx="293.33" cy="214.75" r="0.75" fill="#e31368"/>
  <circle cx="293.33" cy="217.75" r="0.75" fill="#e31368"/>
  <circle cx="293.33" cy="220.75" r="0.75" fill="#e31368"/>
  <circle cx="293.33" cy="223.75" r="0.75" fill="#e31368"/>
  <circle cx="293.33" cy="226.75" r="0.75" fill="#e31368"/>
  <circle cx="293.33" cy="229.75" r="0.75" fill="#e31368"/>
  <circle cx="293.33" cy="232.75" r="0.75" fill="#e31368"/>
  <circle cx="293.33" cy="235.75" r="0.75" fill="#e31368"/>
  <circle cx="293.33" cy="238.75" r="0.75" fill="#e31368"/>
  <circle cx="293.33" cy="241.75" r="0.75" fill="#e31368"/>
  <circle cx="293.33" cy="244.75" r="0.75" fill="#e31368"/>
  <circle cx="293.33" cy="247.75" r="0.75" fill="#e31368"/>
  <circle cx="293.33" cy="250.75" r="0.75" fill="#e31368"/>
  <circle cx="293.33" cy="253.75" r="0.75" fill="#e31368"/>
  <circle cx="293.33" cy="256.75" r="0.75" transform="translate(-95.63 282.61) rotate(-45)" fill="#e31368"/>
  <circle cx="293.33" cy="259.75" r="0.75" fill="#e31368"/>
  <circle cx="209.83" cy="193.25" r="0.75" fill="#e31368"/>
  <circle cx="212.83" cy="193.25" r="0.75" fill="#e31368"/>
  <circle cx="215.83" cy="193.25" r="0.75" fill="#e31368"/>
  <circle cx="218.83" cy="193.25" r="0.75" fill="#e31368"/>
  <circle cx="221.83" cy="193.25" r="0.75" fill="#e31368"/>
  <circle cx="224.83" cy="193.25" r="0.75" fill="#e31368"/>
  <circle cx="227.83" cy="193.25" r="0.75" fill="#e31368"/>
  <circle cx="230.83" cy="193.25" r="0.75" fill="#e31368"/>
  <circle cx="233.83" cy="193.25" r="0.75" fill="#e31368"/>
  <circle cx="236.83" cy="193.25" r="0.75" fill="#e31368"/>
  <circle cx="239.83" cy="193.25" r="0.75" fill="#e31368"/>
  <circle cx="242.83" cy="193.25" r="0.75" fill="#e31368"/>
  <circle cx="245.33" cy="193.25" r="0.75" fill="#e31368"/>
  <circle cx="248.33" cy="193.25" r="0.75" fill="#e31368"/>
  <circle cx="251.33" cy="193.25" r="0.75" fill="#e31368"/>
  <circle cx="254.33" cy="193.25" r="0.75" fill="#e31368"/>
  <circle cx="210.83" cy="196.25" r="0.75" fill="#e31368"/>
  <circle cx="213.83" cy="196.25" r="0.75" fill="#e31368"/>
  <circle cx="216.83" cy="196.25" r="0.75" fill="#e31368"/>
  <circle cx="219.83" cy="196.25" r="0.75" fill="#e31368"/>
  <circle cx="222.83" cy="196.25" r="0.75" fill="#e31368"/>
  <circle cx="225.83" cy="196.25" r="0.75" fill="#e31368"/>
  <circle cx="228.83" cy="196.25" r="0.75" fill="#e31368"/>
  <circle cx="231.83" cy="196.25" r="0.75" fill="#e31368"/>
  <circle cx="234.83" cy="196.25" r="0.75" fill="#e31368"/>
  <circle cx="237.83" cy="196.25" r="0.75" fill="#e31368"/>
  <circle cx="240.83" cy="196.25" r="0.75" fill="#e31368"/>
  <circle cx="243.83" cy="196.25" r="0.75" fill="#e31368"/>
  <circle cx="246.83" cy="196.25" r="0.75" fill="#e31368"/>
  <circle cx="249.83" cy="196.25" r="0.75" fill="#e31368"/>
  <circle cx="252.83" cy="196.25" r="0.75" fill="#e31368"/>
  <circle cx="257.33" cy="193.25" r="0.75" fill="#e31368"/>
  <circle cx="260.33" cy="193.25" r="0.75" fill="#e31368"/>
  <circle cx="255.83" cy="196.25" r="0.75" fill="#e31368"/>
  <circle cx="258.83" cy="196.25" r="0.75" fill="#e31368"/>
  <circle cx="261.83" cy="196.25" r="0.75" fill="#e31368"/>
  <circle cx="209.83" cy="199.25" r="0.75" fill="#e31368"/>
  <circle cx="212.83" cy="199.25" r="0.75" fill="#e31368"/>
  <circle cx="215.83" cy="199.25" r="0.75" fill="#e31368"/>
  <circle cx="218.83" cy="199.25" r="0.75" fill="#e31368"/>
  <circle cx="221.83" cy="199.25" r="0.75" fill="#e31368"/>
  <circle cx="224.83" cy="199.25" r="0.75" fill="#e31368"/>
  <circle cx="227.83" cy="199.25" r="0.75" fill="#e31368"/>
  <circle cx="230.83" cy="199.25" r="0.75" fill="#e31368"/>
  <circle cx="233.83" cy="199.25" r="0.75" fill="#e31368"/>
  <circle cx="236.83" cy="199.25" r="0.75" fill="#e31368"/>
  <circle cx="239.83" cy="199.25" r="0.75" fill="#e31368"/>
  <circle cx="242.83" cy="199.25" r="0.75" fill="#e31368"/>
  <circle cx="245.33" cy="199.25" r="0.75" fill="#e31368"/>
  <circle cx="248.33" cy="199.25" r="0.75" fill="#e31368"/>
  <circle cx="251.33" cy="199.25" r="0.75" fill="#e31368"/>
  <circle cx="254.33" cy="199.25" r="0.75" fill="#e31368"/>
  <circle cx="210.83" cy="202.25" r="0.75" fill="#e31368"/>
  <circle cx="213.83" cy="202.25" r="0.75" fill="#e31368"/>
  <circle cx="216.83" cy="202.25" r="0.75" fill="#e31368"/>
  <circle cx="219.83" cy="202.25" r="0.75" fill="#e31368"/>
  <circle cx="222.83" cy="202.25" r="0.75" fill="#e31368"/>
  <circle cx="225.83" cy="202.25" r="0.75" fill="#e31368"/>
  <circle cx="228.83" cy="202.25" r="0.75" fill="#e31368"/>
  <circle cx="231.83" cy="202.25" r="0.75" fill="#e31368"/>
  <circle cx="234.83" cy="202.25" r="0.75" fill="#e31368"/>
  <circle cx="237.83" cy="202.25" r="0.75" fill="#e31368"/>
  <circle cx="240.83" cy="202.25" r="0.75" fill="#e31368"/>
  <circle cx="243.83" cy="202.25" r="0.75" fill="#e31368"/>
  <circle cx="246.83" cy="202.25" r="0.75" fill="#e31368"/>
  <circle cx="249.83" cy="202.25" r="0.75" fill="#e31368"/>
  <circle cx="252.83" cy="202.25" r="0.75" fill="#e31368"/>
  <circle cx="209.83" cy="205.25" r="0.75" fill="#e31368"/>
  <circle cx="212.83" cy="205.25" r="0.75" fill="#e31368"/>
  <circle cx="215.83" cy="205.25" r="0.75" fill="#e31368"/>
  <circle cx="218.83" cy="205.25" r="0.75" fill="#e31368"/>
  <circle cx="221.83" cy="205.25" r="0.75" fill="#e31368"/>
  <circle cx="224.83" cy="205.25" r="0.75" fill="#e31368"/>
  <circle cx="227.83" cy="205.25" r="0.75" fill="#e31368"/>
  <circle cx="230.83" cy="205.25" r="0.75" fill="#e31368"/>
  <circle cx="233.83" cy="205.25" r="0.75" fill="#e31368"/>
  <circle cx="236.83" cy="205.25" r="0.75" fill="#e31368"/>
  <circle cx="239.83" cy="205.25" r="0.75" fill="#e31368"/>
  <circle cx="242.83" cy="205.25" r="0.75" fill="#e31368"/>
  <circle cx="245.33" cy="205.25" r="0.75" fill="#e31368"/>
  <circle cx="248.33" cy="205.25" r="0.75" fill="#e31368"/>
  <circle cx="251.33" cy="205.25" r="0.75" fill="#e31368"/>
  <circle cx="254.33" cy="205.25" r="0.75" fill="#e31368"/>
  <circle cx="210.83" cy="208.25" r="0.75" fill="#e31368"/>
  <circle cx="213.83" cy="208.25" r="0.75" fill="#e31368"/>
  <circle cx="216.83" cy="208.25" r="0.75" fill="#e31368"/>
  <circle cx="219.83" cy="208.25" r="0.75" fill="#e31368"/>
  <circle cx="222.83" cy="208.25" r="0.75" fill="#e31368"/>
  <circle cx="225.83" cy="208.25" r="0.75" fill="#e31368"/>
  <circle cx="228.83" cy="208.25" r="0.75" fill="#e31368"/>
  <circle cx="231.83" cy="208.25" r="0.75" fill="#e31368"/>
  <circle cx="234.83" cy="208.25" r="0.75" fill="#e31368"/>
  <circle cx="237.83" cy="208.25" r="0.75" fill="#e31368"/>
  <circle cx="240.83" cy="208.25" r="0.75" fill="#e31368"/>
  <circle cx="243.83" cy="208.25" r="0.75" fill="#e31368"/>
  <circle cx="246.83" cy="208.25" r="0.75" fill="#e31368"/>
  <circle cx="249.83" cy="208.25" r="0.75" fill="#e31368"/>
  <circle cx="252.83" cy="208.25" r="0.75" fill="#e31368"/>
  <circle cx="209.83" cy="211.25" r="0.75" fill="#e31368"/>
  <circle cx="212.83" cy="211.25" r="0.75" fill="#e31368"/>
  <circle cx="215.83" cy="211.25" r="0.75" fill="#e31368"/>
  <circle cx="218.83" cy="211.25" r="0.75" fill="#e31368"/>
  <circle cx="221.83" cy="211.25" r="0.75" fill="#e31368"/>
  <circle cx="224.83" cy="211.25" r="0.75" fill="#e31368"/>
  <circle cx="227.83" cy="211.25" r="0.75" fill="#e31368"/>
  <circle cx="230.83" cy="211.25" r="0.75" fill="#e31368"/>
  <circle cx="233.83" cy="211.25" r="0.75" fill="#e31368"/>
  <circle cx="236.83" cy="211.25" r="0.75" fill="#e31368"/>
  <circle cx="239.83" cy="211.25" r="0.75" fill="#e31368"/>
  <circle cx="242.83" cy="211.25" r="0.75" fill="#e31368"/>
  <circle cx="245.33" cy="211.25" r="0.75" fill="#e31368"/>
  <circle cx="248.33" cy="211.25" r="0.75" fill="#e31368"/>
  <circle cx="251.33" cy="211.25" r="0.75" fill="#e31368"/>
  <circle cx="254.33" cy="211.25" r="0.75" fill="#e31368"/>
  <circle cx="210.83" cy="214.25" r="0.75" fill="#e31368"/>
  <circle cx="213.83" cy="214.25" r="0.75" fill="#e31368"/>
  <circle cx="216.83" cy="214.25" r="0.75" fill="#e31368"/>
  <circle cx="219.83" cy="214.25" r="0.75" fill="#e31368"/>
  <circle cx="222.83" cy="214.25" r="0.75" fill="#e31368"/>
  <circle cx="225.83" cy="214.25" r="0.75" fill="#e31368"/>
  <circle cx="228.83" cy="214.25" r="0.75" fill="#e31368"/>
  <circle cx="231.83" cy="214.25" r="0.75" fill="#e31368"/>
  <circle cx="234.83" cy="214.25" r="0.75" fill="#e31368"/>
  <circle cx="237.83" cy="214.25" r="0.75" fill="#e31368"/>
  <circle cx="240.83" cy="214.25" r="0.75" fill="#e31368"/>
  <circle cx="243.83" cy="214.25" r="0.75" fill="#e31368"/>
  <circle cx="246.83" cy="214.25" r="0.75" fill="#e31368"/>
  <circle cx="249.83" cy="214.25" r="0.75" fill="#e31368"/>
  <circle cx="252.83" cy="214.25" r="0.75" fill="#e31368"/>
  <circle cx="209.83" cy="217.25" r="0.75" fill="#e31368"/>
  <circle cx="212.83" cy="217.25" r="0.75" fill="#e31368"/>
  <circle cx="215.83" cy="217.25" r="0.75" fill="#e31368"/>
  <circle cx="218.83" cy="217.25" r="0.75" fill="#e31368"/>
  <circle cx="221.83" cy="217.25" r="0.75" fill="#e31368"/>
  <circle cx="224.83" cy="217.25" r="0.75" fill="#e31368"/>
  <circle cx="227.83" cy="217.25" r="0.75" fill="#e31368"/>
  <circle cx="230.83" cy="217.25" r="0.75" fill="#e31368"/>
  <circle cx="233.83" cy="217.25" r="0.75" fill="#e31368"/>
  <circle cx="236.83" cy="217.25" r="0.75" fill="#e31368"/>
  <circle cx="239.83" cy="217.25" r="0.75" fill="#e31368"/>
  <circle cx="242.83" cy="217.25" r="0.75" fill="#e31368"/>
  <circle cx="245.33" cy="217.25" r="0.75" fill="#e31368"/>
  <circle cx="248.33" cy="217.25" r="0.75" fill="#e31368"/>
  <circle cx="251.33" cy="217.25" r="0.75" fill="#e31368"/>
  <circle cx="254.33" cy="217.25" r="0.75" fill="#e31368"/>
  <circle cx="210.83" cy="220.25" r="0.75" fill="#e31368"/>
  <circle cx="213.83" cy="220.25" r="0.75" fill="#e31368"/>
  <circle cx="216.83" cy="220.25" r="0.75" fill="#e31368"/>
  <circle cx="219.83" cy="220.25" r="0.75" fill="#e31368"/>
  <circle cx="222.83" cy="220.25" r="0.75" fill="#e31368"/>
  <circle cx="225.83" cy="220.25" r="0.75" fill="#e31368"/>
  <circle cx="228.83" cy="220.25" r="0.75" fill="#e31368"/>
  <circle cx="231.83" cy="220.25" r="0.75" fill="#e31368"/>
  <circle cx="234.83" cy="220.25" r="0.75" fill="#e31368"/>
  <circle cx="237.83" cy="220.25" r="0.75" fill="#e31368"/>
  <circle cx="240.83" cy="220.25" r="0.75" fill="#e31368"/>
  <circle cx="243.83" cy="220.25" r="0.75" fill="#e31368"/>
  <circle cx="246.83" cy="220.25" r="0.75" fill="#e31368"/>
  <circle cx="249.83" cy="220.25" r="0.75" fill="#e31368"/>
  <circle cx="252.83" cy="220.25" r="0.75" fill="#e31368"/>
  <circle cx="209.83" cy="223.25" r="0.75" fill="#e31368"/>
  <circle cx="212.83" cy="223.25" r="0.75" fill="#e31368"/>
  <circle cx="215.83" cy="223.25" r="0.75" fill="#e31368"/>
  <circle cx="218.83" cy="223.25" r="0.75" fill="#e31368"/>
  <circle cx="221.83" cy="223.25" r="0.75" fill="#e31368"/>
  <circle cx="224.83" cy="223.25" r="0.75" fill="#e31368"/>
  <circle cx="227.83" cy="223.25" r="0.75" fill="#e31368"/>
  <circle cx="230.83" cy="223.25" r="0.75" fill="#e31368"/>
  <circle cx="233.83" cy="223.25" r="0.75" fill="#e31368"/>
  <circle cx="236.83" cy="223.25" r="0.75" fill="#e31368"/>
  <circle cx="239.83" cy="223.25" r="0.75" fill="#e31368"/>
  <circle cx="242.83" cy="223.25" r="0.75" fill="#e31368"/>
  <circle cx="245.33" cy="223.25" r="0.75" fill="#e31368"/>
  <circle cx="248.33" cy="223.25" r="0.75" fill="#e31368"/>
  <circle cx="251.33" cy="223.25" r="0.75" fill="#e31368"/>
  <circle cx="210.83" cy="226.25" r="0.75" fill="#e31368"/>
  <circle cx="213.83" cy="226.25" r="0.75" fill="#e31368"/>
  <circle cx="216.83" cy="226.25" r="0.75" fill="#e31368"/>
  <circle cx="219.83" cy="226.25" r="0.75" fill="#e31368"/>
  <circle cx="222.83" cy="226.25" r="0.75" fill="#e31368"/>
  <circle cx="225.83" cy="226.25" r="0.75" fill="#e31368"/>
  <circle cx="228.83" cy="226.25" r="0.75" fill="#e31368"/>
  <circle cx="231.83" cy="226.25" r="0.75" fill="#e31368"/>
  <circle cx="234.83" cy="226.25" r="0.75" fill="#e31368"/>
  <circle cx="237.83" cy="226.25" r="0.75" fill="#e31368"/>
  <circle cx="240.83" cy="226.25" r="0.75" fill="#e31368"/>
  <circle cx="243.83" cy="226.25" r="0.75" fill="#e31368"/>
  <circle cx="246.83" cy="226.25" r="0.75" fill="#e31368"/>
  <circle cx="249.83" cy="226.25" r="0.75" fill="#e31368"/>
  <circle cx="209.83" cy="229.25" r="0.75" fill="#e31368"/>
  <circle cx="212.83" cy="229.25" r="0.75" fill="#e31368"/>
  <circle cx="215.83" cy="229.25" r="0.75" fill="#e31368"/>
  <circle cx="218.83" cy="229.25" r="0.75" fill="#e31368"/>
  <circle cx="221.83" cy="229.25" r="0.75" fill="#e31368"/>
  <circle cx="224.83" cy="229.25" r="0.75" fill="#e31368"/>
  <circle cx="227.83" cy="229.25" r="0.75" fill="#e31368"/>
  <circle cx="230.83" cy="229.25" r="0.75" fill="#e31368"/>
  <circle cx="233.83" cy="229.25" r="0.75" fill="#e31368"/>
  <circle cx="236.83" cy="229.25" r="0.75" fill="#e31368"/>
  <circle cx="239.83" cy="229.25" r="0.75" fill="#e31368"/>
  <circle cx="242.83" cy="229.25" r="0.75" fill="#e31368"/>
  <circle cx="245.33" cy="229.25" r="0.75" fill="#e31368"/>
  <circle cx="242.15" cy="166.35" r="0.75" fill="#e31368"/>
  <circle cx="245.15" cy="166.35" r="0.75" fill="#e31368"/>
  <circle cx="248.15" cy="166.35" r="0.75" fill="#e31368"/>
  <circle cx="246.65" cy="175.35" r="0.75" fill="#e31368"/>
  <circle cx="246.65" cy="181.35" r="0.75" fill="#e31368"/>
  <circle cx="202.33" cy="266.75" r="0.75" fill="#e31368"/>
  <circle cx="205.33" cy="266.75" r="0.75" fill="#e31368"/>
  <circle cx="208.33" cy="266.75" r="0.75" fill="#e31368"/>
  <circle cx="211.33" cy="266.75" r="0.75" fill="#e31368"/>
  <circle cx="214.33" cy="266.75" r="0.75" fill="#e31368"/>
  <circle cx="217.33" cy="266.75" r="0.75" fill="#e31368"/>
  <circle cx="203.83" cy="269.75" r="0.75" fill="#e31368"/>
  <circle cx="206.83" cy="269.75" r="0.75" fill="#e31368"/>
  <circle cx="209.83" cy="269.75" r="0.75" fill="#e31368"/>
  <circle cx="212.83" cy="269.75" r="0.75" fill="#e31368"/>
  <circle cx="215.83" cy="269.75" r="0.75" fill="#e31368"/>
  <circle cx="248.83" cy="267.75" r="0.75" fill="#e31368"/>
  <circle cx="251.83" cy="267.75" r="0.75" fill="#e31368"/>
  <circle cx="254.83" cy="267.75" r="0.75" fill="#e31368"/>
  <circle cx="257.83" cy="267.75" r="0.75" fill="#e31368"/>
  <circle cx="260.83" cy="267.75" r="0.75" fill="#e31368"/>
  <circle cx="263.83" cy="267.75" r="0.75" fill="#e31368"/>
  <circle cx="266.83" cy="267.75" r="0.75" fill="#e31368"/>
  <circle cx="269.83" cy="267.75" r="0.75" fill="#e31368"/>
  <circle cx="272.83" cy="267.75" r="0.75" fill="#e31368"/>
  <circle cx="275.83" cy="267.75" r="0.75" fill="#e31368"/>
  <circle cx="278.83" cy="267.75" r="0.75" fill="#e31368"/>
  <circle cx="281.83" cy="267.75" r="0.75" fill="#e31368"/>
  <circle cx="284.83" cy="267.75" r="0.75" fill="#e31368"/>
  <circle cx="287.83" cy="267.75" r="0.75" fill="#e31368"/>
  <circle cx="290.83" cy="267.75" r="0.75" fill="#e31368"/>
  <circle cx="293.83" cy="267.75" r="0.75" fill="#e31368"/>
  <circle cx="296.83" cy="267.75" r="0.75" fill="#e31368"/>
  <circle cx="299.82" cy="267.75" r="0.75" transform="translate(-101.51 290.43) rotate(-45)" fill="#e31368"/>
  <circle cx="302.83" cy="267.75" r="0.75" fill="#e31368"/>
  <circle cx="250.33" cy="270.75" r="0.75" fill="#e31368"/>
  <circle cx="253.33" cy="270.75" r="0.75" fill="#e31368"/>
  <circle cx="256.33" cy="270.75" r="0.75" fill="#e31368"/>
  <circle cx="259.33" cy="270.75" r="0.75" fill="#e31368"/>
  <circle cx="262.33" cy="270.75" r="0.75" fill="#e31368"/>
  <circle cx="265.33" cy="270.75" r="0.75" fill="#e31368"/>
  <circle cx="268.33" cy="270.75" r="0.75" fill="#e31368"/>
  <circle cx="271.33" cy="270.75" r="0.75" fill="#e31368"/>
  <circle cx="274.33" cy="270.75" r="0.75" fill="#e31368"/>
  <circle cx="277.33" cy="270.75" r="0.75" fill="#e31368"/>
  <circle cx="280.33" cy="270.75" r="0.75" fill="#e31368"/>
  <circle cx="283.33" cy="270.75" r="0.75" fill="#e31368"/>
  <circle cx="286.33" cy="270.75" r="0.75" fill="#e31368"/>
  <circle cx="289.33" cy="270.75" r="0.75" fill="#e31368"/>
  <circle cx="292.33" cy="270.75" r="0.75" fill="#e31368"/>
  <circle cx="295.33" cy="270.75" r="0.75" fill="#e31368"/>
  <circle cx="298.33" cy="270.75" r="0.75" fill="#e31368"/>
  <circle cx="301.33" cy="270.75" r="0.75" fill="#e31368"/>
  <circle cx="248.83" cy="273.75" r="0.75" fill="#e31368"/>
  <circle cx="251.83" cy="273.75" r="0.75" fill="#e31368"/>
  <circle cx="254.83" cy="273.75" r="0.75" fill="#e31368"/>
  <polygon points="276.75 271.5 269.3 271.5 265.81 261.73 268.92 261.61 276.75 271.5" fill="#fff" stroke="#e60167" stroke-miterlimit="10"/>
  <polygon points="267.86 261.63 269.08 261.55 269.17 272.95 260.68 271.44 267.86 261.63" fill="#fff" stroke="#e60167" stroke-miterlimit="10"/>
  <path d="M265.46,254.6c2.07,3,3.14,5.83,2.38,6.33s-3.06-1.53-5.13-4.52-3.14-5.83-2.38-6.33S263.39,251.61,265.46,254.6Z" fill="#fff" stroke="#e60167" stroke-miterlimit="10" stroke-width="1.01"/>
  <path d="M272.27,257.74c-1.61,3.29-3.56,5.63-4.35,5.22s-.14-3.4,1.47-6.69,3.56-5.63,4.35-5.22S273.88,254.41,272.27,257.74Z" fill="#fff" stroke="#e60167" stroke-miterlimit="10" stroke-width="1.01"/>
  <circle cx="29.33" cy="143.75" r="0.75" fill="#e31368"/>
  <circle cx="29.33" cy="146.75" r="0.75" fill="#e31368"/>
  <circle cx="29.33" cy="149.75" r="0.75" fill="#e31368"/>
  <circle cx="29.33" cy="152.75" r="0.75" fill="#e31368"/>
  <circle cx="29.33" cy="155.75" r="0.75" fill="#e31368"/>
  <circle cx="29.33" cy="158.75" r="0.75" fill="#e31368"/>
  <circle cx="26.33" cy="142.25" r="0.75" fill="#e31368"/>
  <circle cx="26.33" cy="145.25" r="0.75" fill="#e31368"/>
  <circle cx="26.33" cy="148.25" r="0.75" fill="#e31368"/>
  <circle cx="26.33" cy="154.25" r="0.75" fill="#e31368"/>
  <circle cx="26.33" cy="157.25" r="0.75" fill="#e31368"/>
  <circle cx="26.33" cy="160.25" r="0.75" fill="#e31368"/>
  <circle cx="23.33" cy="143.75" r="0.75" fill="#e31368"/>
  <circle cx="23.33" cy="155.75" r="0.75" fill="#e31368"/>
  <circle cx="23.33" cy="158.75" r="0.75" fill="#e31368"/>
  <circle cx="243.65" cy="169.35" r="0.75" fill="#e31368"/>
  <circle cx="246.65" cy="169.35" r="0.75" fill="#e31368"/>
  <circle cx="249.65" cy="169.35" r="0.75" fill="#e31368"/>
  <circle cx="242.15" cy="172.35" r="0.75" fill="#e31368"/>
  <circle cx="245.15" cy="172.35" r="0.75" fill="#e31368"/>
  <circle cx="243.65" cy="175.35" r="0.75" fill="#e31368"/>
  <circle cx="242.15" cy="178.35" r="0.75" fill="#e31368"/>
  <circle cx="245.15" cy="178.35" r="0.75" fill="#e31368"/>
  <circle cx="243.65" cy="181.35" r="0.75" fill="#e31368"/>
  <circle cx="242.15" cy="184.35" r="0.75" fill="#e31368"/>
  <circle cx="245.15" cy="184.35" r="0.75" fill="#e31368"/>
  <circle cx="243.9" cy="187.35" r="0.75" fill="#e31368"/>
  <circle cx="242.4" cy="190.35" r="0.75" fill="#e31368"/>
  <circle cx="245.4" cy="190.35" r="0.75" fill="#e31368"/>
  <line x1="287.08" x2="287.08" y2="99.5" fill="none" stroke="#e60167" stroke-miterlimit="10"/>
  <path d="M269.32,284l-5,7c-3.15,4.34-3.24,9.06-.26,12a7.63,7.63,0,0,0,10.52,0c1.1-1.1,4.47-4.45-.34-12.14Z" fill="#e60167"/>
</svg>
