<svg id="Layer_1" data-name="Layer 1" xmlns="http://www.w3.org/2000/svg" viewBox="0 0 539 434"><defs><style>.cls-1,.cls-2,.cls-3{fill:none;stroke:#e60167;}.cls-1,.cls-3{stroke-linecap:round;stroke-linejoin:round;}.cls-1,.cls-2{stroke-width:2px;}.cls-3{stroke-width:3.84px;}.cls-4{fill:#e60167;}.cls-5{fill:#e31368;}</style></defs><title>Artboard 1</title><g id="_1440---Home_-Aanbod_-Abo_-Spoed" data-name="1440---Home,-Aanbod,-Abo,-Spoed"><g id="_1440---Aanbod" data-name="1440---Aanbod"><g id="Header-image"><g id="Page-1"><g id="Group-13"><path id="Stroke-1" class="cls-1" d="M91.37,13,76.2,14.9a7.56,7.56,0,0,0-5,2.87l-.36.47L49,20.91l-.32-2.63-10.2,1.25,3,24.4,10.2-1.25-.16-1.29L77,38.26l.57,4.68a3.69,3.69,0,0,0,4.11,3.23l11.89-1.46a3.71,3.71,0,0,0,3.22-4.13l-.47-3.87a9.3,9.3,0,0,1,8.07-10.37,17.7,17.7,0,0,1,18.23,10.23l2.84,6.21,3.16-.39A33.51,33.51,0,0,0,91.37,13"/><path id="Stroke-3" class="cls-1" d="M105,100.61a5,5,0,0,0-.08-.5,4.9,4.9,0,0,0-2.9-3.49l-.41-.15-.07,0a4.8,4.8,0,0,0-1.55-.19L94.27,44.81,82.13,46.18l5.72,51.45A4.89,4.89,0,0,0,83.93,103l10.64,95.74A4.88,4.88,0,0,0,100,203l11.38-1.28a4.82,4.82,0,0,0,.74-.15,4.88,4.88,0,0,0,.63-.22l0,0a4.91,4.91,0,0,0,2.89-5Z"/><path id="Stroke-5" class="cls-2" d="M463.73,333.26a9,9,0,0,0-2.86-9l-45.54-38.95a9,9,0,0,1-2.86-9l3.69-14.53c1.21-4.79,4.24-7.68,9-6.46"/><path id="Stroke-7" class="cls-2" d="M524.27,298l-96.76-24.64a6.73,6.73,0,0,1-4.86-8.18l5.2-20.51a6.72,6.72,0,0,1,8.17-4.87l96.76,24.64a6.73,6.73,0,0,1,4.86,8.18l-5.2,20.51a6.72,6.72,0,0,1-8.17,4.87"/><path id="Stroke-9" class="cls-2" d="M439,432.63h0a7.38,7.38,0,0,1-5.32-9l21.44-84.52a7.36,7.36,0,1,1,14.26,3.63L447.91,427.3a7.36,7.36,0,0,1-8.94,5.33"/><path id="Stroke-11" class="cls-2" d="M321.83,46.33A7.31,7.31,0,1,0,312.58,35l-31,25.32c-3.14,2.56,6.11,13.89,9.24,11.34Z"/></g><polygon id="Stroke-14" class="cls-2" points="393 26.92 428.75 94.33 439.12 88.66 402.82 22 393 26.92"/><g id="Group-1569"><path id="Stroke-15" class="cls-2" d="M396.11,10.2l-2.3,7-7.22,1.52L378.7,9.92a13.06,13.06,0,1,0,9.53-8.55Z"/><path id="Stroke-17" class="cls-2" d="M167,252V145.5a2.26,2.26,0,0,1,2.26-2.26H354.06a2.26,2.26,0,0,1,2.26,2.26V252"/><path id="Stroke-19" class="cls-2" d="M181.7,251.29V161.44a2.48,2.48,0,0,1,2.36-2.57H339.43a2.48,2.48,0,0,1,2.36,2.57v89.86"/><path id="Stroke-21" class="cls-2" d="M357.28,267.46H165.53c-6.27,0-11.35-3.88-11.35-8.67v-5.4a2.05,2.05,0,0,1,2.26-1.73H366.58a2.05,2.05,0,0,1,2.26,1.73v5.24C368.84,263.51,363.67,267.46,357.28,267.46Z"/><path id="Stroke-23" class="cls-3" d="M258.76,150.6h7.92"/><path id="Fill-25" class="cls-4" d="M286.39,70.41l-4.86-7.17-3.88,4,1,1.43-2.2,1.79,1.07,1.32L247.21,96.49l.05.06-2.73,2.22c-.76,1.05-1.08,2-.72,2.39s1.3.31,2.48-.23l4.16-3.4-.05-.06L279.25,74l.45.56,1.84-1.5,1,1.42Z"/><path id="Fill-27" class="cls-4" d="M270.22,257.67H253.94c-2.4,0-4.36-1.56-4.36-3.46s2-3.46,4.36-3.46h16.28c2.39,0,4.35,1.56,4.35,3.46s-2,3.46-4.35,3.46"/><path id="Fill-29" class="cls-5" d="M438.58,241.92a1.27,1.27,0,1,1-.9-1.56,1.27,1.27,0,0,1,.9,1.56"/><path id="Fill-31" class="cls-5" d="M443.51,243.24a1.27,1.27,0,1,1-.9-1.56,1.27,1.27,0,0,1,.9,1.56"/><path id="Fill-33" class="cls-5" d="M448.44,244.55a1.27,1.27,0,1,1-.9-1.56,1.27,1.27,0,0,1,.9,1.56"/><path id="Fill-35" class="cls-5" d="M453.36,245.86a1.27,1.27,0,1,1-.9-1.56,1.27,1.27,0,0,1,.9,1.56"/><path id="Fill-37" class="cls-5" d="M458.29,247.18a1.27,1.27,0,1,1-.9-1.56,1.27,1.27,0,0,1,.9,1.56"/><path id="Fill-39" class="cls-5" d="M463.22,248.49a1.27,1.27,0,1,1-.9-1.56,1.28,1.28,0,0,1,.9,1.56"/><path id="Fill-41" class="cls-5" d="M468.14,249.8a1.27,1.27,0,1,1-.9-1.56,1.27,1.27,0,0,1,.9,1.56"/><path id="Fill-43" class="cls-5" d="M473.07,251.12a1.27,1.27,0,1,1-.9-1.56,1.27,1.27,0,0,1,.9,1.56"/><path id="Fill-45" class="cls-5" d="M478,252.43a1.27,1.27,0,1,1-.9-1.56,1.27,1.27,0,0,1,.9,1.56"/><path id="Fill-47" class="cls-5" d="M482.93,253.74a1.27,1.27,0,1,1-.9-1.56,1.27,1.27,0,0,1,.9,1.56"/><path id="Fill-49" class="cls-5" d="M487.85,255.05a1.27,1.27,0,1,1-.9-1.56,1.27,1.27,0,0,1,.9,1.56"/><path id="Fill-51" class="cls-5" d="M492.78,256.37a1.27,1.27,0,1,1-.9-1.56,1.27,1.27,0,0,1,.9,1.56"/><path id="Fill-53" class="cls-5" d="M497.71,257.68a1.27,1.27,0,1,1-.9-1.56,1.27,1.27,0,0,1,.9,1.56"/><path id="Fill-55" class="cls-5" d="M502.63,259a1.27,1.27,0,1,1-.9-1.56,1.27,1.27,0,0,1,.9,1.56"/><path id="Fill-57" class="cls-5" d="M507.56,260.31a1.27,1.27,0,1,1-.9-1.56,1.27,1.27,0,0,1,.9,1.56"/><path id="Fill-59" class="cls-5" d="M512.49,261.62a1.27,1.27,0,1,1-.9-1.56,1.27,1.27,0,0,1,.9,1.56"/><path id="Fill-61" class="cls-5" d="M517.42,262.93a1.27,1.27,0,1,1-.9-1.56,1.27,1.27,0,0,1,.9,1.56"/><path id="Fill-63" class="cls-5" d="M522.34,264.24a1.27,1.27,0,1,1-.9-1.56,1.28,1.28,0,0,1,.9,1.56"/><path id="Fill-65" class="cls-5" d="M527.27,265.56a1.27,1.27,0,1,1-.9-1.56,1.27,1.27,0,0,1,.9,1.56"/><path id="Fill-67" class="cls-5" d="M532.2,266.87a1.27,1.27,0,1,1-.9-1.56,1.27,1.27,0,0,1,.9,1.56"/><path id="Fill-69" class="cls-5" d="M537.12,268.18a1.27,1.27,0,1,1-.9-1.56,1.27,1.27,0,0,1,.9,1.56"/><path id="Fill-71" class="cls-5" d="M429.88,244.89a1.27,1.27,0,1,1-.9-1.56,1.28,1.28,0,0,1,.9,1.56"/><path id="Fill-73" class="cls-5" d="M434.81,246.2a1.27,1.27,0,1,1-.9-1.56,1.27,1.27,0,0,1,.9,1.56"/><path id="Fill-75" class="cls-5" d="M439.73,247.52a1.27,1.27,0,1,1-.9-1.56,1.27,1.27,0,0,1,.9,1.56"/><path id="Fill-77" class="cls-5" d="M444.66,248.83a1.27,1.27,0,1,1-.9-1.56,1.27,1.27,0,0,1,.9,1.56"/><path id="Fill-79" class="cls-5" d="M449.59,250.14a1.27,1.27,0,1,1-.9-1.56,1.27,1.27,0,0,1,.9,1.56"/><path id="Fill-81" class="cls-5" d="M454.52,251.45a1.27,1.27,0,1,1-.9-1.56,1.27,1.27,0,0,1,.9,1.56"/><path id="Fill-83" class="cls-5" d="M459.44,252.77a1.27,1.27,0,1,1-.9-1.56,1.27,1.27,0,0,1,.9,1.56"/><path id="Fill-85" class="cls-5" d="M464.37,254.08a1.27,1.27,0,1,1-.9-1.56,1.27,1.27,0,0,1,.9,1.56"/><path id="Fill-87" class="cls-5" d="M469.3,255.39a1.27,1.27,0,1,1-.9-1.56,1.27,1.27,0,0,1,.9,1.56"/><path id="Fill-89" class="cls-5" d="M474.22,256.71a1.27,1.27,0,1,1-.9-1.56,1.27,1.27,0,0,1,.9,1.56"/><path id="Fill-91" class="cls-5" d="M479.15,258a1.27,1.27,0,1,1-.9-1.56,1.27,1.27,0,0,1,.9,1.56"/><path id="Fill-93" class="cls-5" d="M484.08,259.33a1.27,1.27,0,1,1-.9-1.56,1.27,1.27,0,0,1,.9,1.56"/><path id="Fill-95" class="cls-5" d="M489,260.64a1.27,1.27,0,1,1-.9-1.56,1.27,1.27,0,0,1,.9,1.56"/><path id="Fill-97" class="cls-5" d="M493.93,262a1.27,1.27,0,1,1-.9-1.56,1.27,1.27,0,0,1,.9,1.56"/><path id="Fill-99" class="cls-5" d="M498.86,263.27a1.27,1.27,0,1,1-.9-1.56,1.27,1.27,0,0,1,.9,1.56"/><path id="Fill-101" class="cls-5" d="M503.79,264.58a1.27,1.27,0,1,1-.9-1.56,1.27,1.27,0,0,1,.9,1.56"/><path id="Fill-103" class="cls-5" d="M508.71,265.9a1.27,1.27,0,1,1-.9-1.56,1.27,1.27,0,0,1,.9,1.56"/><path id="Fill-105" class="cls-5" d="M513.64,267.21a1.27,1.27,0,1,1-.9-1.56,1.27,1.27,0,0,1,.9,1.56"/><path id="Fill-107" class="cls-5" d="M518.57,268.52a1.27,1.27,0,1,1-.9-1.56,1.27,1.27,0,0,1,.9,1.56"/><path id="Fill-109" class="cls-5" d="M523.49,269.83a1.27,1.27,0,1,1-.9-1.56,1.27,1.27,0,0,1,.9,1.56"/><path id="Fill-111" class="cls-5" d="M528.42,271.15a1.27,1.27,0,1,1-.9-1.56,1.27,1.27,0,0,1,.9,1.56"/><path id="Fill-113" class="cls-5" d="M533.35,272.46a1.27,1.27,0,1,1-.9-1.56,1.27,1.27,0,0,1,.9,1.56"/><path id="Fill-115" class="cls-5" d="M538.28,273.77a1.27,1.27,0,1,1-.9-1.56,1.28,1.28,0,0,1,.9,1.56"/><path id="Fill-117" class="cls-5" d="M431,250.48a1.27,1.27,0,1,1-.9-1.56,1.27,1.27,0,0,1,.9,1.56"/><path id="Fill-119" class="cls-5" d="M436,251.79a1.27,1.27,0,1,1-.9-1.56,1.27,1.27,0,0,1,.9,1.56"/><path id="Fill-121" class="cls-5" d="M440.89,253.11a1.27,1.27,0,1,1-.9-1.56,1.27,1.27,0,0,1,.9,1.56"/><path id="Fill-123" class="cls-5" d="M445.81,254.42a1.27,1.27,0,1,1-.9-1.56,1.27,1.27,0,0,1,.9,1.56"/><path id="Fill-125" class="cls-5" d="M450.74,255.73a1.27,1.27,0,1,1-.9-1.56,1.27,1.27,0,0,1,.9,1.56"/><path id="Fill-127" class="cls-5" d="M455.67,257a1.27,1.27,0,1,1-.9-1.56,1.28,1.28,0,0,1,.9,1.56"/><path id="Fill-129" class="cls-5" d="M460.59,258.36a1.27,1.27,0,1,1-.9-1.56,1.27,1.27,0,0,1,.9,1.56"/><path id="Fill-131" class="cls-5" d="M465.52,259.67a1.27,1.27,0,1,1-.9-1.56,1.27,1.27,0,0,1,.9,1.56"/><path id="Fill-133" class="cls-5" d="M470.45,261a1.27,1.27,0,1,1-.9-1.56,1.27,1.27,0,0,1,.9,1.56"/><path id="Fill-135" class="cls-5" d="M475.38,262.3a1.27,1.27,0,1,1-.9-1.56,1.27,1.27,0,0,1,.9,1.56"/><path id="Fill-137" class="cls-5" d="M480.3,263.61a1.27,1.27,0,1,1-.9-1.56,1.28,1.28,0,0,1,.9,1.56"/><path id="Fill-139" class="cls-5" d="M485.23,264.92a1.27,1.27,0,1,1-.9-1.56,1.27,1.27,0,0,1,.9,1.56"/><path id="Fill-141" class="cls-5" d="M490.16,266.24a1.27,1.27,0,1,1-.9-1.56,1.27,1.27,0,0,1,.9,1.56"/><path id="Fill-143" class="cls-5" d="M495.09,267.55a1.27,1.27,0,1,1-.9-1.56,1.27,1.27,0,0,1,.9,1.56"/><path id="Fill-145" class="cls-5" d="M500,268.86a1.27,1.27,0,1,1-.9-1.56,1.27,1.27,0,0,1,.9,1.56"/><path id="Fill-147" class="cls-5" d="M504.94,270.17a1.27,1.27,0,1,1-.9-1.56,1.28,1.28,0,0,1,.9,1.56"/><path id="Fill-149" class="cls-5" d="M509.87,271.49a1.27,1.27,0,1,1-.9-1.56,1.27,1.27,0,0,1,.9,1.56"/><path id="Fill-151" class="cls-5" d="M514.79,272.8a1.27,1.27,0,1,1-.9-1.56,1.27,1.27,0,0,1,.9,1.56"/><path id="Fill-153" class="cls-5" d="M519.72,274.11a1.27,1.27,0,1,1-.9-1.56,1.27,1.27,0,0,1,.9,1.56"/><path id="Fill-155" class="cls-5" d="M524.65,275.43a1.27,1.27,0,1,1-.9-1.56,1.27,1.27,0,0,1,.9,1.56"/><path id="Fill-157" class="cls-5" d="M529.58,276.74a1.27,1.27,0,1,1-.9-1.56,1.27,1.27,0,0,1,.9,1.56"/><path id="Fill-159" class="cls-5" d="M534.5,278.05a1.27,1.27,0,1,1-.9-1.56,1.27,1.27,0,0,1,.9,1.56"/><path id="Fill-161" class="cls-5" d="M427.26,254.76a1.27,1.27,0,1,1-.9-1.56,1.27,1.27,0,0,1,.9,1.56"/><path id="Fill-163" class="cls-5" d="M432.18,256.07a1.27,1.27,0,1,1-.9-1.56,1.27,1.27,0,0,1,.9,1.56"/><path id="Fill-165" class="cls-5" d="M437.11,257.38a1.27,1.27,0,1,1-.9-1.56,1.27,1.27,0,0,1,.9,1.56"/><path id="Fill-167" class="cls-5" d="M442,258.7a1.27,1.27,0,1,1-.9-1.56,1.27,1.27,0,0,1,.9,1.56"/><path id="Fill-169" class="cls-5" d="M447,260a1.27,1.27,0,1,1-.9-1.56A1.27,1.27,0,0,1,447,260"/><path id="Fill-171" class="cls-5" d="M451.89,261.32a1.27,1.27,0,1,1-.9-1.56,1.27,1.27,0,0,1,.9,1.56"/><path id="Fill-173" class="cls-5" d="M456.82,262.64a1.27,1.27,0,1,1-.9-1.56,1.27,1.27,0,0,1,.9,1.56"/><path id="Fill-175" class="cls-5" d="M461.75,263.95a1.27,1.27,0,1,1-.9-1.56,1.27,1.27,0,0,1,.9,1.56"/><path id="Fill-177" class="cls-5" d="M466.67,265.26a1.27,1.27,0,1,1-.9-1.56,1.27,1.27,0,0,1,.9,1.56"/><path id="Fill-179" class="cls-5" d="M471.6,266.57a1.27,1.27,0,1,1-.9-1.56,1.27,1.27,0,0,1,.9,1.56"/><path id="Fill-181" class="cls-5" d="M476.53,267.89a1.27,1.27,0,1,1-.9-1.56,1.27,1.27,0,0,1,.9,1.56"/><path id="Fill-183" class="cls-5" d="M481.46,269.2a1.27,1.27,0,1,1-.9-1.56,1.27,1.27,0,0,1,.9,1.56"/><path id="Fill-185" class="cls-5" d="M486.38,270.51a1.27,1.27,0,1,1-.9-1.56,1.27,1.27,0,0,1,.9,1.56"/><path id="Fill-187" class="cls-5" d="M491.31,271.83a1.27,1.27,0,1,1-.9-1.56,1.27,1.27,0,0,1,.9,1.56"/><path id="Fill-189" class="cls-5" d="M496.24,273.14a1.27,1.27,0,1,1-.9-1.56,1.27,1.27,0,0,1,.9,1.56"/><path id="Fill-191" class="cls-5" d="M501.16,274.45a1.27,1.27,0,1,1-.9-1.56,1.27,1.27,0,0,1,.9,1.56"/><path id="Fill-193" class="cls-5" d="M506.09,275.76a1.27,1.27,0,1,1-.9-1.56,1.27,1.27,0,0,1,.9,1.56"/><path id="Fill-195" class="cls-5" d="M511,277.08a1.27,1.27,0,1,1-.9-1.56,1.27,1.27,0,0,1,.9,1.56"/><path id="Fill-197" class="cls-5" d="M515.95,278.39a1.27,1.27,0,1,1-.9-1.56,1.27,1.27,0,0,1,.9,1.56"/><path id="Fill-199" class="cls-5" d="M520.87,279.7a1.27,1.27,0,1,1-.9-1.56,1.27,1.27,0,0,1,.9,1.56"/><path id="Fill-201" class="cls-5" d="M525.8,281a1.27,1.27,0,1,1-.9-1.56,1.27,1.27,0,0,1,.9,1.56"/><path id="Fill-203" class="cls-5" d="M530.73,282.33a1.27,1.27,0,1,1-.9-1.56,1.28,1.28,0,0,1,.9,1.56"/><path id="Fill-205" class="cls-5" d="M535.65,283.64a1.27,1.27,0,1,1-.9-1.56,1.27,1.27,0,0,1,.9,1.56"/><path id="Fill-207" class="cls-5" d="M439.93,429.48a1.28,1.28,0,1,1-1.56.91,1.28,1.28,0,0,1,1.56-.91"/><path id="Fill-209" class="cls-5" d="M441.22,424.54a1.28,1.28,0,1,1-1.56.91,1.28,1.28,0,0,1,1.56-.91"/><path id="Fill-211" class="cls-5" d="M442.51,419.6a1.28,1.28,0,1,1-1.56.91,1.28,1.28,0,0,1,1.56-.91"/><path id="Fill-213" class="cls-5" d="M443.8,414.66a1.28,1.28,0,1,1-1.56.91,1.28,1.28,0,0,1,1.56-.91"/><path id="Fill-215" class="cls-5" d="M445.09,409.72a1.28,1.28,0,1,1-1.56.91,1.28,1.28,0,0,1,1.56-.91"/><path id="Fill-217" class="cls-5" d="M446.38,404.78a1.28,1.28,0,1,1-1.56.91,1.28,1.28,0,0,1,1.56-.91"/><path id="Fill-219" class="cls-5" d="M447.67,399.84a1.28,1.28,0,1,1-1.56.91,1.28,1.28,0,0,1,1.56-.91"/><path id="Fill-221" class="cls-5" d="M449,394.9a1.28,1.28,0,1,1-1.56.91,1.28,1.28,0,0,1,1.56-.91"/><path id="Fill-223" class="cls-5" d="M450.25,390a1.28,1.28,0,1,1-1.56.91,1.28,1.28,0,0,1,1.56-.91"/><path id="Fill-225" class="cls-5" d="M451.54,385a1.28,1.28,0,1,1-1.56.91,1.28,1.28,0,0,1,1.56-.91"/><path id="Fill-227" class="cls-5" d="M452.83,380.08a1.28,1.28,0,1,1-1.56.91,1.28,1.28,0,0,1,1.56-.91"/><path id="Fill-229" class="cls-5" d="M454.12,375.14a1.28,1.28,0,1,1-1.56.91,1.28,1.28,0,0,1,1.56-.91"/><path id="Fill-231" class="cls-5" d="M455.41,370.2a1.28,1.28,0,1,1-1.56.91,1.28,1.28,0,0,1,1.56-.91"/><path id="Fill-233" class="cls-5" d="M456.7,365.26a1.28,1.28,0,1,1-1.56.91,1.28,1.28,0,0,1,1.56-.91"/><path id="Fill-235" class="cls-5" d="M458,360.32a1.28,1.28,0,1,1-1.56.91,1.28,1.28,0,0,1,1.56-.91"/><path id="Fill-237" class="cls-5" d="M459.27,355.38a1.28,1.28,0,1,1-1.56.91,1.28,1.28,0,0,1,1.56-.91"/><path id="Fill-239" class="cls-5" d="M460.56,350.44a1.28,1.28,0,1,1-1.56.91,1.28,1.28,0,0,1,1.56-.91"/><path id="Fill-241" class="cls-5" d="M461.85,345.5a1.28,1.28,0,1,1-1.56.91,1.28,1.28,0,0,1,1.56-.91"/><path id="Fill-243" class="cls-5" d="M463.14,340.56a1.28,1.28,0,1,1-1.56.91,1.27,1.27,0,0,1,1.56-.91"/><path id="Fill-245" class="cls-5" d="M464.43,335.62a1.28,1.28,0,1,1-1.56.91,1.28,1.28,0,0,1,1.56-.91"/><path id="Fill-247" class="cls-5" d="M445.51,428.3a1.28,1.28,0,1,1-1.56.91,1.28,1.28,0,0,1,1.56-.91"/><path id="Fill-249" class="cls-5" d="M446.8,423.36a1.28,1.28,0,1,1-1.56.91,1.28,1.28,0,0,1,1.56-.91"/><path id="Fill-251" class="cls-5" d="M448.09,418.42a1.28,1.28,0,1,1-1.56.91,1.28,1.28,0,0,1,1.56-.91"/><path id="Fill-253" class="cls-5" d="M449.38,413.48a1.28,1.28,0,1,1-1.56.91,1.28,1.28,0,0,1,1.56-.91"/><path id="Fill-255" class="cls-5" d="M450.67,408.54a1.28,1.28,0,1,1-1.56.91,1.28,1.28,0,0,1,1.56-.91"/><path id="Fill-257" class="cls-5" d="M452,403.6a1.28,1.28,0,1,1-1.56.91,1.28,1.28,0,0,1,1.56-.91"/><path id="Fill-259" class="cls-5" d="M453.25,398.66a1.28,1.28,0,1,1-1.56.91,1.28,1.28,0,0,1,1.56-.91"/><path id="Fill-261" class="cls-5" d="M454.54,393.72a1.28,1.28,0,1,1-1.56.91,1.28,1.28,0,0,1,1.56-.91"/><path id="Fill-263" class="cls-5" d="M455.82,388.78a1.28,1.28,0,1,1-1.56.91,1.28,1.28,0,0,1,1.56-.91"/><path id="Fill-265" class="cls-5" d="M457.11,383.84a1.28,1.28,0,1,1-1.56.91,1.27,1.27,0,0,1,1.56-.91"/><path id="Fill-267" class="cls-5" d="M458.4,378.9a1.28,1.28,0,1,1-1.56.91,1.28,1.28,0,0,1,1.56-.91"/><path id="Fill-269" class="cls-5" d="M459.69,374a1.28,1.28,0,1,1-1.56.91,1.28,1.28,0,0,1,1.56-.91"/><path id="Fill-271" class="cls-5" d="M461,369a1.28,1.28,0,1,1-1.56.91A1.27,1.27,0,0,1,461,369"/><path id="Fill-273" class="cls-5" d="M462.27,364.08a1.28,1.28,0,1,1-1.56.91,1.27,1.27,0,0,1,1.56-.91"/><path id="Fill-275" class="cls-5" d="M463.56,359.14a1.28,1.28,0,1,1-1.56.91,1.28,1.28,0,0,1,1.56-.91"/><path id="Fill-277" class="cls-5" d="M464.85,354.2a1.28,1.28,0,1,1-1.56.91,1.28,1.28,0,0,1,1.56-.91"/><path id="Fill-279" class="cls-5" d="M466.14,349.26a1.28,1.28,0,1,1-1.56.91,1.28,1.28,0,0,1,1.56-.91"/><path id="Fill-281" class="cls-5" d="M467.43,344.32a1.28,1.28,0,1,1-1.56.91,1.28,1.28,0,0,1,1.56-.91"/><path id="Fill-283" class="cls-5" d="M468.72,339.38a1.28,1.28,0,1,1-1.56.91,1.28,1.28,0,0,1,1.56-.91"/><path id="Fill-285" class="cls-5" d="M399.15,26.94a1.28,1.28,0,1,0,.52-1.73,1.27,1.27,0,0,0-.52,1.73"/><path id="Fill-287" class="cls-5" d="M401.15,30.94a1.28,1.28,0,1,0,.52-1.73,1.27,1.27,0,0,0-.52,1.73"/><path id="Fill-289" class="cls-5" d="M404.15,35.94a1.28,1.28,0,1,0,.52-1.73,1.27,1.27,0,0,0-.52,1.73"/><path id="Fill-291" class="cls-5" d="M406.15,39.94a1.28,1.28,0,1,0,.52-1.73,1.27,1.27,0,0,0-.52,1.73"/><path id="Fill-293" class="cls-5" d="M409.15,44.94a1.28,1.28,0,1,0,.52-1.73,1.27,1.27,0,0,0-.52,1.73"/><path id="Fill-295" class="cls-5" d="M411.15,48.94a1.28,1.28,0,1,0,.52-1.73,1.27,1.27,0,0,0-.52,1.73"/><path id="Fill-297" class="cls-5" d="M413.15,53.94a1.28,1.28,0,1,0,.52-1.73,1.27,1.27,0,0,0-.52,1.73"/><path id="Fill-299" class="cls-5" d="M416.15,57.94a1.28,1.28,0,1,0,.52-1.73,1.27,1.27,0,0,0-.52,1.73"/><path id="Fill-301" class="cls-5" d="M418.15,62.94a1.28,1.28,0,1,0,.52-1.73,1.27,1.27,0,0,0-.52,1.73"/><path id="Fill-303" class="cls-5" d="M421.15,66.94a1.28,1.28,0,1,0,.52-1.73,1.27,1.27,0,0,0-.52,1.73"/><path id="Fill-305" class="cls-5" d="M423.15,71.94a1.28,1.28,0,1,0,.52-1.73,1.27,1.27,0,0,0-.52,1.73"/><path id="Fill-307" class="cls-5" d="M425.15,75.94a1.28,1.28,0,1,0,.52-1.73,1.27,1.27,0,0,0-.52,1.73"/><path id="Fill-309" class="cls-5" d="M428.15,80.94a1.28,1.28,0,1,0,.52-1.73,1.27,1.27,0,0,0-.52,1.73"/><path id="Fill-311" class="cls-5" d="M430.15,84.94a1.28,1.28,0,1,0,.52-1.73,1.27,1.27,0,0,0-.52,1.73"/><path id="Fill-313" class="cls-5" d="M433.15,89.94a1.28,1.28,0,1,0,.52-1.73,1.27,1.27,0,0,0-.52,1.73"/><path id="Fill-315" class="cls-5" d="M396.15,30.94a1.28,1.28,0,1,0,.52-1.73,1.27,1.27,0,0,0-.52,1.73"/><path id="Fill-317" class="cls-5" d="M398.15,35.94a1.28,1.28,0,1,0,.52-1.73,1.27,1.27,0,0,0-.52,1.73"/><path id="Fill-319" class="cls-5" d="M400.15,39.94a1.28,1.28,0,1,0,.52-1.73,1.27,1.27,0,0,0-.52,1.73"/><path id="Fill-321" class="cls-5" d="M403.15,44.94a1.28,1.28,0,1,0,.52-1.73,1.27,1.27,0,0,0-.52,1.73"/><path id="Fill-323" class="cls-5" d="M405.15,48.94a1.28,1.28,0,1,0,.52-1.73,1.27,1.27,0,0,0-.52,1.73"/><path id="Fill-325" class="cls-5" d="M408.15,53.94a1.28,1.28,0,1,0,.52-1.73,1.27,1.27,0,0,0-.52,1.73"/><path id="Fill-327" class="cls-5" d="M410.15,57.94a1.28,1.28,0,1,0,.52-1.73,1.27,1.27,0,0,0-.52,1.73"/><path id="Fill-329" class="cls-5" d="M412.15,62.94a1.28,1.28,0,1,0,.52-1.73,1.27,1.27,0,0,0-.52,1.73"/><path id="Fill-331" class="cls-5" d="M415.15,66.94a1.28,1.28,0,1,0,.52-1.73,1.27,1.27,0,0,0-.52,1.73"/><path id="Fill-333" class="cls-5" d="M417.15,71.94a1.28,1.28,0,1,0,.52-1.73,1.27,1.27,0,0,0-.52,1.73"/><path id="Fill-335" class="cls-5" d="M420.15,75.94a1.28,1.28,0,1,0,.52-1.73,1.27,1.27,0,0,0-.52,1.73"/><path id="Fill-337" class="cls-5" d="M422.15,80.94a1.28,1.28,0,1,0,.52-1.73,1.27,1.27,0,0,0-.52,1.73"/><path id="Fill-339" class="cls-5" d="M425.15,84.94a1.28,1.28,0,1,0,.52-1.73,1.27,1.27,0,0,0-.52,1.73"/><path id="Fill-341" class="cls-5" d="M427.15,89.94a1.28,1.28,0,1,0,.52-1.73,1.27,1.27,0,0,0-.52,1.73"/><path id="Fill-343" class="cls-5" d="M282.71,72.43a1.28,1.28,0,1,0-1.8-.15,1.28,1.28,0,0,0,1.8.15"/><path id="Fill-345" class="cls-5" d="M286.6,69.13a1.28,1.28,0,1,0-1.8-.15,1.28,1.28,0,0,0,1.8.15"/><path id="Fill-347" class="cls-5" d="M290.5,65.83a1.28,1.28,0,1,0-1.8-.15,1.28,1.28,0,0,0,1.8.15"/><path id="Fill-349" class="cls-5" d="M294.39,62.53a1.28,1.28,0,1,0-1.8-.15,1.28,1.28,0,0,0,1.8.15"/><path id="Fill-351" class="cls-5" d="M298.28,59.23a1.28,1.28,0,1,0-1.8-.15,1.28,1.28,0,0,0,1.8.15"/><path id="Fill-353" class="cls-5" d="M302.17,55.93a1.28,1.28,0,1,0-1.8-.15,1.28,1.28,0,0,0,1.8.15"/><path id="Fill-355" class="cls-5" d="M306.06,52.63a1.28,1.28,0,1,0-1.8-.15,1.28,1.28,0,0,0,1.8.15"/><path id="Fill-357" class="cls-5" d="M310,49.33a1.28,1.28,0,1,0-1.8-.15,1.28,1.28,0,0,0,1.8.15"/><path id="Fill-359" class="cls-5" d="M313.84,46a1.28,1.28,0,1,0-1.8-.15,1.28,1.28,0,0,0,1.8.15"/><path id="Fill-361" class="cls-5" d="M317.73,42.73a1.28,1.28,0,1,0-1.8-.15,1.28,1.28,0,0,0,1.8.15"/><path id="Fill-363" class="cls-5" d="M321.62,39.43a1.28,1.28,0,1,0-1.8-.15,1.28,1.28,0,0,0,1.8.15"/><path id="Fill-365" class="cls-5" d="M291.84,71.38a1.28,1.28,0,1,0-1.8-.15,1.28,1.28,0,0,0,1.8.15"/><path id="Fill-367" class="cls-5" d="M295.74,68.08a1.28,1.28,0,1,0-1.8-.15,1.28,1.28,0,0,0,1.8.15"/><path id="Fill-369" class="cls-5" d="M299.63,64.78a1.28,1.28,0,1,0-1.8-.15,1.28,1.28,0,0,0,1.8.15"/><path id="Fill-371" class="cls-5" d="M303.52,61.48a1.28,1.28,0,1,0-1.8-.15,1.28,1.28,0,0,0,1.8.15"/><path id="Fill-373" class="cls-5" d="M307.41,58.18a1.28,1.28,0,1,0-1.8-.15,1.28,1.28,0,0,0,1.8.15"/><path id="Fill-375" class="cls-5" d="M311.3,54.88a1.28,1.28,0,1,0-1.8-.15,1.28,1.28,0,0,0,1.8.15"/><path id="Fill-377" class="cls-5" d="M315.19,51.58a1.28,1.28,0,1,0-1.8-.15,1.28,1.28,0,0,0,1.8.15"/><path id="Fill-379" class="cls-5" d="M319.08,48.28a1.28,1.28,0,1,0-1.8-.15,1.28,1.28,0,0,0,1.8.15"/><path id="Fill-381" class="cls-5" d="M323,45a1.28,1.28,0,1,0-1.8-.15A1.28,1.28,0,0,0,323,45"/><path id="Fill-383" class="cls-5" d="M105.57,104.68a1.28,1.28,0,1,1,1.11-1.42,1.28,1.28,0,0,1-1.11,1.42"/><path id="Fill-385" class="cls-5" d="M106.18,109.75a1.28,1.28,0,1,1,1.11-1.42,1.28,1.28,0,0,1-1.11,1.42"/><path id="Fill-387" class="cls-5" d="M93.52,47a1.28,1.28,0,1,1,1.11-1.42A1.28,1.28,0,0,1,93.52,47"/><path id="Fill-389" class="cls-5" d="M94.12,52.06a1.28,1.28,0,1,1,1.11-1.42,1.27,1.27,0,0,1-1.11,1.42"/><path id="Fill-391" class="cls-5" d="M94.73,57.13a1.28,1.28,0,1,1,1.11-1.42,1.27,1.27,0,0,1-1.11,1.42"/><path id="Fill-393" class="cls-5" d="M95.34,62.2a1.28,1.28,0,1,1,1.11-1.42,1.27,1.27,0,0,1-1.11,1.42"/><path id="Fill-395" class="cls-5" d="M95.95,67.27a1.28,1.28,0,1,1,1.11-1.42,1.28,1.28,0,0,1-1.11,1.42"/><path id="Fill-397" class="cls-5" d="M96.56,72.34a1.28,1.28,0,1,1,1.11-1.42,1.28,1.28,0,0,1-1.11,1.42"/><path id="Fill-399" class="cls-5" d="M97.16,77.41A1.28,1.28,0,1,1,98.28,76a1.27,1.27,0,0,1-1.11,1.42"/><path id="Fill-401" class="cls-5" d="M97.77,82.48a1.28,1.28,0,1,1,1.11-1.42,1.27,1.27,0,0,1-1.11,1.42"/><path id="Fill-403" class="cls-5" d="M98.38,87.55a1.28,1.28,0,1,1,1.11-1.42,1.28,1.28,0,0,1-1.11,1.42"/><path id="Fill-405" class="cls-5" d="M99,92.62a1.28,1.28,0,1,1,1.11-1.42A1.28,1.28,0,0,1,99,92.62"/><path id="Fill-407" class="cls-5" d="M99.59,97.69a1.28,1.28,0,1,1,1.11-1.42,1.28,1.28,0,0,1-1.11,1.42"/><path id="Fill-409" class="cls-5" d="M100.2,102.76a1.28,1.28,0,1,1,1.11-1.42,1.27,1.27,0,0,1-1.11,1.42"/><path id="Fill-411" class="cls-5" d="M100.81,107.83a1.28,1.28,0,1,1,1.11-1.42,1.27,1.27,0,0,1-1.11,1.42"/><path id="Fill-413" class="cls-5" d="M101.42,112.9a1.28,1.28,0,1,1,1.11-1.42,1.28,1.28,0,0,1-1.11,1.42"/><path id="Fill-415" class="cls-5" d="M102,118a1.28,1.28,0,1,1,1.11-1.42A1.28,1.28,0,0,1,102,118"/><path id="Fill-417" class="cls-5" d="M102.63,123a1.28,1.28,0,1,1,1.11-1.42,1.28,1.28,0,0,1-1.11,1.42"/><path id="Fill-419" class="cls-5" d="M103.24,128.1a1.28,1.28,0,1,1,1.11-1.42,1.28,1.28,0,0,1-1.11,1.42"/><path id="Fill-421" class="cls-5" d="M103.85,133.17a1.28,1.28,0,1,1,1.11-1.42,1.27,1.27,0,0,1-1.11,1.42"/><path id="Fill-423" class="cls-5" d="M104.46,138.24a1.28,1.28,0,1,1,1.11-1.42,1.28,1.28,0,0,1-1.11,1.42"/><path id="Fill-425" class="cls-5" d="M105.06,143.31a1.28,1.28,0,1,1,1.11-1.42,1.28,1.28,0,0,1-1.11,1.42"/><path id="Fill-427" class="cls-5" d="M105.67,148.38a1.28,1.28,0,1,1,1.11-1.42,1.28,1.28,0,0,1-1.11,1.42"/><path id="Fill-429" class="cls-5" d="M106.28,153.45a1.28,1.28,0,1,1,1.11-1.42,1.28,1.28,0,0,1-1.11,1.42"/><path id="Fill-431" class="cls-5" d="M106.89,158.52A1.28,1.28,0,1,1,108,157.1a1.27,1.27,0,0,1-1.11,1.42"/><path id="Fill-433" class="cls-5" d="M107.5,163.59a1.28,1.28,0,1,1,1.11-1.42,1.28,1.28,0,0,1-1.11,1.42"/><path id="Fill-435" class="cls-5" d="M108.1,168.66a1.28,1.28,0,1,1,1.11-1.42,1.28,1.28,0,0,1-1.11,1.42"/><path id="Fill-437" class="cls-5" d="M108.71,173.73a1.28,1.28,0,1,1,1.11-1.42,1.28,1.28,0,0,1-1.11,1.42"/><path id="Fill-439" class="cls-5" d="M109.32,178.8a1.28,1.28,0,1,1,1.11-1.42,1.28,1.28,0,0,1-1.11,1.42"/><path id="Fill-441" class="cls-5" d="M109.93,183.87a1.28,1.28,0,1,1,1.11-1.42,1.28,1.28,0,0,1-1.11,1.42"/><path id="Fill-443" class="cls-5" d="M110.53,188.94a1.28,1.28,0,1,1,1.11-1.42,1.27,1.27,0,0,1-1.11,1.42"/><path id="Fill-445" class="cls-5" d="M111.14,194a1.28,1.28,0,1,1,1.11-1.42,1.28,1.28,0,0,1-1.11,1.42"/><path id="Fill-447" class="cls-5" d="M111.75,199.08a1.28,1.28,0,1,1,1.11-1.42,1.27,1.27,0,0,1-1.11,1.42"/><path id="Fill-449" class="cls-5" d="M88.86,51A1.28,1.28,0,1,1,90,49.56,1.27,1.27,0,0,1,88.86,51"/><path id="Fill-451" class="cls-5" d="M89.47,56.05a1.28,1.28,0,1,1,1.11-1.42,1.27,1.27,0,0,1-1.11,1.42"/><path id="Fill-453" class="cls-5" d="M90.08,61.12a1.28,1.28,0,1,1,1.11-1.42,1.28,1.28,0,0,1-1.11,1.42"/><path id="Fill-455" class="cls-5" d="M90.68,66.19a1.28,1.28,0,1,1,1.11-1.42,1.27,1.27,0,0,1-1.11,1.42"/><path id="Fill-457" class="cls-5" d="M91.29,71.26a1.28,1.28,0,1,1,1.11-1.42,1.28,1.28,0,0,1-1.11,1.42"/><path id="Fill-459" class="cls-5" d="M91.9,76.33A1.28,1.28,0,1,1,93,74.91a1.28,1.28,0,0,1-1.11,1.42"/><path id="Fill-461" class="cls-5" d="M92.51,81.4A1.28,1.28,0,1,1,93.62,80a1.27,1.27,0,0,1-1.11,1.42"/><path id="Fill-463" class="cls-5" d="M93.11,86.47A1.28,1.28,0,1,1,94.23,85a1.28,1.28,0,0,1-1.11,1.42"/><path id="Fill-465" class="cls-5" d="M93.72,91.54a1.28,1.28,0,1,1,1.11-1.42,1.28,1.28,0,0,1-1.11,1.42"/><path id="Fill-467" class="cls-5" d="M94.23,95.76a1.28,1.28,0,1,1,1.11-1.42,1.27,1.27,0,0,1-1.11,1.42"/><path id="Fill-469" class="cls-5" d="M94.84,100.83A1.28,1.28,0,1,1,96,99.41a1.27,1.27,0,0,1-1.11,1.42"/><path id="Fill-471" class="cls-5" d="M95.44,105.9a1.28,1.28,0,1,1,1.11-1.42,1.27,1.27,0,0,1-1.11,1.42"/><path id="Fill-473" class="cls-5" d="M96.05,111a1.28,1.28,0,1,1,1.11-1.42A1.28,1.28,0,0,1,96.05,111"/><path id="Fill-475" class="cls-5" d="M96.66,116a1.28,1.28,0,1,1,1.11-1.42A1.28,1.28,0,0,1,96.66,116"/><path id="Fill-477" class="cls-5" d="M97.27,121.11a1.28,1.28,0,1,1,1.11-1.42,1.27,1.27,0,0,1-1.11,1.42"/><path id="Fill-479" class="cls-5" d="M97.88,126.18A1.28,1.28,0,1,1,99,124.76a1.27,1.27,0,0,1-1.11,1.42"/><path id="Fill-481" class="cls-5" d="M98.48,131.25a1.28,1.28,0,1,1,1.11-1.42,1.28,1.28,0,0,1-1.11,1.42"/><path id="Fill-483" class="cls-5" d="M99.09,136.32a1.28,1.28,0,1,1,1.11-1.42,1.28,1.28,0,0,1-1.11,1.42"/><path id="Fill-485" class="cls-5" d="M99.7,141.39a1.28,1.28,0,1,1,1.11-1.42,1.28,1.28,0,0,1-1.11,1.42"/><path id="Fill-487" class="cls-5" d="M100.31,146.46a1.28,1.28,0,1,1,1.11-1.42,1.28,1.28,0,0,1-1.11,1.42"/><path id="Fill-489" class="cls-5" d="M100.91,151.52a1.28,1.28,0,1,1,1.11-1.42,1.27,1.27,0,0,1-1.11,1.42"/><path id="Fill-491" class="cls-5" d="M101.52,156.59a1.28,1.28,0,1,1,1.11-1.42,1.28,1.28,0,0,1-1.11,1.42"/><path id="Fill-493" class="cls-5" d="M102.13,161.66a1.28,1.28,0,1,1,1.11-1.42,1.27,1.27,0,0,1-1.11,1.42"/><path id="Fill-495" class="cls-5" d="M102.74,166.73a1.28,1.28,0,1,1,1.11-1.42,1.28,1.28,0,0,1-1.11,1.42"/><path id="Fill-497" class="cls-5" d="M103.34,171.8a1.28,1.28,0,1,1,1.11-1.42,1.28,1.28,0,0,1-1.11,1.42"/><path id="Fill-499" class="cls-5" d="M104,176.87a1.28,1.28,0,1,1,1.11-1.42,1.27,1.27,0,0,1-1.11,1.42"/><path id="Fill-501" class="cls-5" d="M104.56,181.94a1.28,1.28,0,1,1,1.11-1.42,1.28,1.28,0,0,1-1.11,1.42"/><path id="Fill-503" class="cls-5" d="M105.17,187a1.28,1.28,0,1,1,1.11-1.42,1.28,1.28,0,0,1-1.11,1.42"/><path id="Fill-505" class="cls-5" d="M105.78,192.08a1.28,1.28,0,1,1,1.11-1.42,1.28,1.28,0,0,1-1.11,1.42"/><path id="Fill-507" class="cls-5" d="M106.38,197.15a1.28,1.28,0,1,1,1.11-1.42,1.28,1.28,0,0,1-1.11,1.42"/><path id="Fill-509" class="cls-5" d="M107,202.22a1.28,1.28,0,1,1,1.11-1.42,1.27,1.27,0,0,1-1.11,1.42"/><path id="Fill-511" class="cls-5" d="M45.61,24.68a1.28,1.28,0,1,1,1.11-1.42,1.27,1.27,0,0,1-1.11,1.42"/><path id="Fill-513" class="cls-5" d="M46.22,29.75a1.28,1.28,0,1,1,1.11-1.42,1.28,1.28,0,0,1-1.11,1.42"/><path id="Fill-515" class="cls-5" d="M46.83,34.82a1.28,1.28,0,1,1,1.11-1.42,1.28,1.28,0,0,1-1.11,1.42"/><path id="Fill-517" class="cls-5" d="M47.43,39.89a1.28,1.28,0,1,1,1.11-1.42,1.28,1.28,0,0,1-1.11,1.42"/><path id="Fill-519" class="cls-5" d="M40.24,22.76a1.28,1.28,0,1,1,1.11-1.42,1.28,1.28,0,0,1-1.11,1.42"/><path id="Fill-521" class="cls-5" d="M40.85,27.82A1.28,1.28,0,1,1,42,26.4a1.28,1.28,0,0,1-1.11,1.42"/><path id="Fill-523" class="cls-5" d="M41.46,32.89a1.28,1.28,0,1,1,1.11-1.42,1.28,1.28,0,0,1-1.11,1.42"/><path id="Fill-525" class="cls-5" d="M42.07,38a1.28,1.28,0,1,1,1.11-1.42A1.28,1.28,0,0,1,42.07,38"/><path id="Fill-527" class="cls-5" d="M42.67,43a1.28,1.28,0,1,1,1.11-1.42A1.27,1.27,0,0,1,42.67,43"/><path id="Fill-529" class="cls-5" d="M57.26,216.85a1.28,1.28,0,1,1,.64-1.69,1.27,1.27,0,0,1-.64,1.69"/><path id="Fill-531" class="cls-5" d="M59.36,221.5a1.28,1.28,0,1,1,.63-1.69,1.27,1.27,0,0,1-.63,1.69"/><path id="Fill-533" class="cls-5" d="M47.36,207.33a1.28,1.28,0,1,1,.63-1.69,1.27,1.27,0,0,1-.63,1.69"/><path id="Fill-535" class="cls-5" d="M49.46,212a1.28,1.28,0,1,1,.63-1.69,1.27,1.27,0,0,1-.63,1.69"/><path id="Fill-537" class="cls-5" d="M51.56,216.63a1.28,1.28,0,1,1,.63-1.69,1.27,1.27,0,0,1-.63,1.69"/><path id="Fill-539" class="cls-5" d="M53.67,221.28a1.28,1.28,0,1,1,.63-1.69,1.27,1.27,0,0,1-.63,1.69"/><path id="Fill-541" class="cls-5" d="M55.77,225.93a1.28,1.28,0,1,1,.63-1.69,1.27,1.27,0,0,1-.63,1.69"/><path id="Fill-543" class="cls-5" d="M37.45,197.81a1.28,1.28,0,1,1,.64-1.69,1.27,1.27,0,0,1-.64,1.69"/><path id="Fill-545" class="cls-5" d="M39.55,202.46a1.28,1.28,0,1,1,.63-1.69,1.27,1.27,0,0,1-.63,1.69"/><path id="Fill-547" class="cls-5" d="M41.66,207.11a1.28,1.28,0,1,1,.63-1.69,1.27,1.27,0,0,1-.63,1.69"/><path id="Fill-549" class="cls-5" d="M43.76,211.76a1.28,1.28,0,1,1,.64-1.69,1.27,1.27,0,0,1-.64,1.69"/><path id="Fill-551" class="cls-5" d="M45.87,216.41a1.28,1.28,0,1,1,.63-1.69,1.27,1.27,0,0,1-.63,1.69"/><path id="Fill-553" class="cls-5" d="M48,221.06a1.28,1.28,0,1,1,.63-1.69,1.27,1.27,0,0,1-.63,1.69"/><path id="Fill-555" class="cls-5" d="M50.08,225.71a1.28,1.28,0,1,1,.64-1.69,1.27,1.27,0,0,1-.64,1.69"/><path id="Fill-557" class="cls-5" d="M29.65,192.94a1.28,1.28,0,1,1,.63-1.69,1.27,1.27,0,0,1-.63,1.69"/><path id="Fill-559" class="cls-5" d="M31.75,197.59a1.28,1.28,0,1,1,.63-1.69,1.27,1.27,0,0,1-.63,1.69"/><path id="Fill-561" class="cls-5" d="M33.86,202.24a1.28,1.28,0,1,1,.63-1.69,1.27,1.27,0,0,1-.63,1.69"/><path id="Fill-563" class="cls-5" d="M36,206.89a1.28,1.28,0,1,1,.63-1.69,1.27,1.27,0,0,1-.63,1.69"/><path id="Fill-565" class="cls-5" d="M38.07,211.54a1.28,1.28,0,1,1,.63-1.69,1.27,1.27,0,0,1-.63,1.69"/><path id="Fill-567" class="cls-5" d="M40.17,216.19a1.28,1.28,0,1,1,.63-1.69,1.27,1.27,0,0,1-.63,1.69"/><path id="Fill-569" class="cls-5" d="M42.28,220.85a1.28,1.28,0,1,1,.63-1.69,1.27,1.27,0,0,1-.63,1.69"/><path id="Fill-571" class="cls-5" d="M44.38,225.5a1.28,1.28,0,1,1,.63-1.69,1.27,1.27,0,0,1-.63,1.69"/><path id="Fill-573" class="cls-5" d="M46.48,230.15a1.28,1.28,0,1,1,.63-1.69,1.27,1.27,0,0,1-.63,1.69"/><path id="Fill-575" class="cls-5" d="M19.75,183.42a1.28,1.28,0,1,1,.63-1.69,1.27,1.27,0,0,1-.63,1.69"/><path id="Fill-577" class="cls-5" d="M21.85,188.07a1.28,1.28,0,1,1,.63-1.69,1.27,1.27,0,0,1-.63,1.69"/><path id="Fill-579" class="cls-5" d="M24,192.72a1.28,1.28,0,1,1,.64-1.69,1.27,1.27,0,0,1-.64,1.69"/><path id="Fill-581" class="cls-5" d="M26.06,197.37a1.28,1.28,0,1,1,.63-1.69,1.27,1.27,0,0,1-.63,1.69"/><path id="Fill-583" class="cls-5" d="M28.16,202a1.28,1.28,0,1,1,.63-1.69,1.27,1.27,0,0,1-.63,1.69"/><path id="Fill-585" class="cls-5" d="M30.27,206.67A1.28,1.28,0,1,1,30.9,205a1.27,1.27,0,0,1-.64,1.69"/><path id="Fill-587" class="cls-5" d="M32.37,211.33a1.28,1.28,0,1,1,.63-1.69,1.27,1.27,0,0,1-.63,1.69"/><path id="Fill-589" class="cls-5" d="M34.48,216a1.28,1.28,0,1,1,.63-1.69,1.27,1.27,0,0,1-.63,1.69"/><path id="Fill-591" class="cls-5" d="M36.58,220.63a1.28,1.28,0,1,1,.64-1.69,1.27,1.27,0,0,1-.64,1.69"/><path id="Fill-593" class="cls-5" d="M38.68,225.28a1.28,1.28,0,1,1,.63-1.69,1.27,1.27,0,0,1-.63,1.69"/><path id="Fill-595" class="cls-5" d="M40.79,229.93a1.28,1.28,0,1,1,.63-1.69,1.27,1.27,0,0,1-.63,1.69"/><path id="Fill-597" class="cls-5" d="M9.84,173.9a1.28,1.28,0,1,1,.63-1.69,1.27,1.27,0,0,1-.63,1.69"/><path id="Fill-599" class="cls-5" d="M11.94,178.55a1.28,1.28,0,1,1,.64-1.69,1.27,1.27,0,0,1-.64,1.69"/><path id="Fill-601" class="cls-5" d="M14,183.2a1.28,1.28,0,1,1,.63-1.69A1.27,1.27,0,0,1,14,183.2"/><path id="Fill-603" class="cls-5" d="M16.15,187.85a1.28,1.28,0,1,1,.63-1.69,1.27,1.27,0,0,1-.63,1.69"/><path id="Fill-605" class="cls-5" d="M18.26,192.5a1.28,1.28,0,1,1,.63-1.69,1.27,1.27,0,0,1-.63,1.69"/><path id="Fill-607" class="cls-5" d="M20.36,197.16a1.28,1.28,0,1,1,.63-1.69,1.27,1.27,0,0,1-.63,1.69"/><path id="Fill-609" class="cls-5" d="M22.47,201.81a1.28,1.28,0,1,1,.63-1.69,1.27,1.27,0,0,1-.63,1.69"/><path id="Fill-611" class="cls-5" d="M24.57,206.46a1.28,1.28,0,1,1,.63-1.69,1.27,1.27,0,0,1-.63,1.69"/><path id="Fill-613" class="cls-5" d="M26.67,211.11a1.28,1.28,0,1,1,.63-1.69,1.27,1.27,0,0,1-.63,1.69"/><path id="Fill-615" class="cls-5" d="M28.78,215.76a1.28,1.28,0,1,1,.63-1.69,1.27,1.27,0,0,1-.63,1.69"/><path id="Fill-617" class="cls-5" d="M30.88,220.41a1.28,1.28,0,1,1,.63-1.69,1.27,1.27,0,0,1-.63,1.69"/><path id="Fill-619" class="cls-5" d="M33,225.06a1.28,1.28,0,1,1,.63-1.69,1.27,1.27,0,0,1-.63,1.69"/><path id="Fill-621" class="cls-5" d="M35.09,229.71a1.28,1.28,0,1,1,.64-1.69,1.27,1.27,0,0,1-.64,1.69"/><path id="Fill-623" class="cls-5" d="M37.2,234.36a1.28,1.28,0,1,1,.63-1.69,1.27,1.27,0,0,1-.63,1.69"/><path id="Fill-625" class="cls-5" d="M41.4,243.66A1.28,1.28,0,1,1,42,242a1.27,1.27,0,0,1-.64,1.69"/><path id="Fill-627" class="cls-5" d="M43.51,248.31a1.28,1.28,0,1,1,.63-1.69,1.27,1.27,0,0,1-.63,1.69"/><path id="Fill-629" class="cls-5" d="M45.61,253a1.28,1.28,0,1,1,.63-1.69,1.27,1.27,0,0,1-.63,1.69"/><path id="Fill-631" class="cls-5" d="M47.72,257.61a1.28,1.28,0,1,1,.63-1.69,1.27,1.27,0,0,1-.63,1.69"/><path id="Fill-633" class="cls-5" d="M49.82,262.27a1.28,1.28,0,1,1,.63-1.69,1.27,1.27,0,0,1-.63,1.69"/><path id="Fill-635" class="cls-5" d="M51.93,266.92a1.28,1.28,0,1,1,.63-1.69,1.27,1.27,0,0,1-.63,1.69"/><path id="Fill-637" class="cls-5" d="M54,271.57a1.28,1.28,0,1,1,.63-1.69,1.27,1.27,0,0,1-.63,1.69"/><path id="Fill-639" class="cls-5" d="M56.13,276.22a1.28,1.28,0,1,1,.63-1.69,1.27,1.27,0,0,1-.63,1.69"/><path id="Fill-641" class="cls-5" d="M58.24,280.87a1.28,1.28,0,1,1,.64-1.69,1.27,1.27,0,0,1-.64,1.69"/><path id="Fill-643" class="cls-5" d="M6.25,178.33a1.28,1.28,0,1,1,.63-1.69,1.27,1.27,0,0,1-.63,1.69"/><path id="Fill-645" class="cls-5" d="M8.35,183A1.28,1.28,0,1,1,9,181.3,1.27,1.27,0,0,1,8.35,183"/><path id="Fill-647" class="cls-5" d="M10.46,187.64a1.28,1.28,0,1,1,.64-1.69,1.27,1.27,0,0,1-.64,1.69"/><path id="Fill-649" class="cls-5" d="M12.56,192.29a1.28,1.28,0,1,1,.63-1.69,1.27,1.27,0,0,1-.63,1.69"/><path id="Fill-651" class="cls-5" d="M14.67,196.94a1.28,1.28,0,1,1,.63-1.69,1.27,1.27,0,0,1-.63,1.69"/><path id="Fill-653" class="cls-5" d="M16.77,201.59a1.28,1.28,0,1,1,.64-1.69,1.27,1.27,0,0,1-.64,1.69"/><path id="Fill-655" class="cls-5" d="M18.87,206.24a1.28,1.28,0,1,1,.63-1.69,1.27,1.27,0,0,1-.63,1.69"/><path id="Fill-657" class="cls-5" d="M21,210.89a1.28,1.28,0,1,1,.63-1.69,1.27,1.27,0,0,1-.63,1.69"/><path id="Fill-659" class="cls-5" d="M23.08,215.54a1.28,1.28,0,1,1,.64-1.69,1.27,1.27,0,0,1-.64,1.69"/><path id="Fill-661" class="cls-5" d="M25.19,220.19a1.28,1.28,0,1,1,.63-1.69,1.27,1.27,0,0,1-.63,1.69"/><path id="Fill-663" class="cls-5" d="M27.29,224.84a1.28,1.28,0,1,1,.63-1.69,1.27,1.27,0,0,1-.63,1.69"/><path id="Fill-665" class="cls-5" d="M29.39,229.49A1.28,1.28,0,1,1,30,227.8a1.27,1.27,0,0,1-.63,1.69"/><path id="Fill-667" class="cls-5" d="M31.5,234.14a1.28,1.28,0,1,1,.63-1.69,1.27,1.27,0,0,1-.63,1.69"/><path id="Fill-669" class="cls-5" d="M33.6,238.79a1.28,1.28,0,1,1,.63-1.69,1.27,1.27,0,0,1-.63,1.69"/><path id="Fill-671" class="cls-5" d="M37.81,248.09a1.28,1.28,0,1,1,.63-1.69,1.27,1.27,0,0,1-.63,1.69"/><path id="Fill-673" class="cls-5" d="M39.92,252.75a1.28,1.28,0,1,1,.64-1.69,1.27,1.27,0,0,1-.64,1.69"/><path id="Fill-675" class="cls-5" d="M42,257.4a1.28,1.28,0,1,1,.63-1.69A1.27,1.27,0,0,1,42,257.4"/><path id="Fill-677" class="cls-5" d="M44.12,262a1.28,1.28,0,1,1,.63-1.69,1.27,1.27,0,0,1-.63,1.69"/><path id="Fill-679" class="cls-5" d="M46.23,266.7a1.28,1.28,0,1,1,.64-1.69,1.27,1.27,0,0,1-.64,1.69"/><path id="Fill-681" class="cls-5" d="M48.33,271.35a1.28,1.28,0,1,1,.63-1.69,1.27,1.27,0,0,1-.63,1.69"/><path id="Fill-683" class="cls-5" d="M50.44,276a1.28,1.28,0,1,1,.63-1.69,1.27,1.27,0,0,1-.63,1.69"/><path id="Fill-685" class="cls-5" d="M52.54,280.65a1.28,1.28,0,1,1,.63-1.69,1.27,1.27,0,0,1-.63,1.69"/><path id="Fill-687" class="cls-5" d="M54.65,285.3a1.28,1.28,0,1,1,.63-1.69,1.27,1.27,0,0,1-.63,1.69"/><path id="Stroke-689" class="cls-2" d="M60.4,217.67,8.3,170.62a2.84,2.84,0,0,0-2-.75l-.08-.2-2,.86.08.2a2.86,2.86,0,0,0-.84,2L1.31,243a3.58,3.58,0,0,0,5,3.41l25.56-11,2.73,6.42a5.46,5.46,0,0,0-1.89,6.62l15.76,37a5.43,5.43,0,1,0,10-4.28l-15.76-37a5.42,5.42,0,0,0-6.07-3.2l-2.73-6.42,25.55-11a3.6,3.6,0,0,0,1-6"/><polygon id="Stroke-691" class="cls-1" points="532.4 43.57 525.57 29.95 510.37 29.06 502 41.79 508.83 55.42 524.03 56.31 532.4 43.57"/><path id="Stroke-693" class="cls-1" d="M522.32,42.22a5.16,5.16,0,1,1-5.16-5.17A5.16,5.16,0,0,1,522.32,42.22Z"/><path id="Fill-695" class="cls-5" d="M519.54,32.45a1.27,1.27,0,1,1-1.15-1.39,1.28,1.28,0,0,1,1.15,1.39"/><path id="Fill-697" class="cls-5" d="M524.54,33.45a1.27,1.27,0,1,1-1.15-1.39,1.28,1.28,0,0,1,1.15,1.39"/><path id="Fill-699" class="cls-5" d="M526.54,38.45a1.27,1.27,0,1,1-1.15-1.39,1.27,1.27,0,0,1,1.15,1.39"/><path id="Fill-701" class="cls-5" d="M528.54,43.45a1.27,1.27,0,1,1-1.15-1.39,1.27,1.27,0,0,1,1.15,1.39"/><path id="Fill-703" class="cls-5" d="M525.54,48.45a1.27,1.27,0,1,1-1.15-1.39,1.27,1.27,0,0,1,1.15,1.39"/><path id="Fill-705" class="cls-5" d="M517.54,53.45a1.27,1.27,0,1,1-1.15-1.39,1.28,1.28,0,0,1,1.15,1.39"/><path id="Fill-707" class="cls-5" d="M522.54,53.45a1.27,1.27,0,1,1-1.15-1.39,1.28,1.28,0,0,1,1.15,1.39"/><polygon id="Stroke-709" class="cls-1" points="181.21 88.32 192.55 78.14 189.41 63.23 174.94 58.49 163.61 68.66 166.74 83.58 181.21 88.32"/><path id="Stroke-711" class="cls-1" d="M179.43,78.39A5.17,5.17,0,1,1,183.05,72,5.16,5.16,0,0,1,179.43,78.39Z"/><path id="Fill-713" class="cls-5" d="M188,72.73a1.28,1.28,0,1,1,1-1.48,1.27,1.27,0,0,1-1,1.48"/><path id="Fill-715" class="cls-5" d="M188.9,77.76a1.28,1.28,0,1,1,1-1.48,1.27,1.27,0,0,1-1,1.48"/><path id="Fill-717" class="cls-5" d="M184.32,81.17a1.28,1.28,0,1,1,1-1.48,1.27,1.27,0,0,1-1,1.48"/><path id="Fill-719" class="cls-5" d="M179.75,84.57a1.28,1.28,0,1,1,1-1.48,1.27,1.27,0,0,1-1,1.48"/><path id="Fill-721" class="cls-5" d="M174.28,82.95a1.28,1.28,0,1,1,1-1.48,1.27,1.27,0,0,1-1,1.48"/><path id="Fill-723" class="cls-5" d="M167.93,76.3a1.28,1.28,0,1,1,1-1.48,1.27,1.27,0,0,1-1,1.48"/><path id="Fill-725" class="cls-5" d="M168.82,81.33a1.28,1.28,0,1,1,1-1.48,1.27,1.27,0,0,1-1,1.48"/><polygon id="Stroke-709-2" data-name="Stroke-709" class="cls-1" points="441.21 178.32 452.55 168.14 449.41 153.23 434.94 148.49 423.61 158.66 426.74 173.58 441.21 178.32"/><path id="Stroke-711-2" data-name="Stroke-711" class="cls-1" d="M439.43,168.39a5.17,5.17,0,1,1,3.62-6.34A5.16,5.16,0,0,1,439.43,168.39Z"/><path id="Fill-713-2" data-name="Fill-713" class="cls-5" d="M448,162.73a1.28,1.28,0,1,1,1-1.48,1.27,1.27,0,0,1-1,1.48"/><path id="Fill-715-2" data-name="Fill-715" class="cls-5" d="M448.9,167.76a1.28,1.28,0,1,1,1-1.48,1.27,1.27,0,0,1-1,1.48"/><path id="Fill-717-2" data-name="Fill-717" class="cls-5" d="M444.32,171.17a1.28,1.28,0,1,1,1-1.48,1.27,1.27,0,0,1-1,1.48"/><path id="Fill-719-2" data-name="Fill-719" class="cls-5" d="M439.75,174.57a1.28,1.28,0,1,1,1-1.48,1.27,1.27,0,0,1-1,1.48"/><path id="Fill-721-2" data-name="Fill-721" class="cls-5" d="M434.28,172.95a1.28,1.28,0,1,1,1-1.48,1.27,1.27,0,0,1-1,1.48"/><path id="Fill-723-2" data-name="Fill-723" class="cls-5" d="M427.93,166.3a1.28,1.28,0,1,1,1-1.48,1.27,1.27,0,0,1-1,1.48"/><path id="Fill-725-2" data-name="Fill-725" class="cls-5" d="M428.82,171.33a1.28,1.28,0,1,1,1-1.48,1.27,1.27,0,0,1-1,1.48"/><path id="Fill-727" class="cls-5" d="M171.32,214.79a1.27,1.27,0,1,1-1.27-1.28,1.28,1.28,0,0,1,1.27,1.28"/><path id="Fill-729" class="cls-5" d="M176.42,214.79a1.27,1.27,0,1,1-1.27-1.28,1.28,1.28,0,0,1,1.27,1.28"/><path id="Fill-731" class="cls-5" d="M181.52,214.79a1.27,1.27,0,1,1-1.27-1.28,1.28,1.28,0,0,1,1.27,1.28"/><path id="Fill-733" class="cls-5" d="M186.61,214.79a1.27,1.27,0,1,1-1.27-1.28,1.28,1.28,0,0,1,1.27,1.28"/><path id="Fill-735" class="cls-5" d="M191.71,214.79a1.27,1.27,0,1,1-1.27-1.28,1.28,1.28,0,0,1,1.27,1.28"/><path id="Fill-737" class="cls-5" d="M196.81,214.79a1.27,1.27,0,1,1-1.27-1.28,1.28,1.28,0,0,1,1.27,1.28"/><path id="Fill-739" class="cls-5" d="M201.91,214.79a1.27,1.27,0,1,1-1.27-1.28,1.28,1.28,0,0,1,1.27,1.28"/><path id="Fill-741" class="cls-5" d="M207,214.79a1.27,1.27,0,1,1-1.27-1.28,1.28,1.28,0,0,1,1.27,1.28"/><path id="Fill-743" class="cls-5" d="M212.11,214.79a1.27,1.27,0,1,1-1.27-1.28,1.28,1.28,0,0,1,1.27,1.28"/><path id="Fill-745" class="cls-5" d="M217.21,214.79a1.27,1.27,0,1,1-1.27-1.28,1.28,1.28,0,0,1,1.27,1.28"/><path id="Fill-747" class="cls-5" d="M222.3,214.79a1.27,1.27,0,1,1-1.27-1.28,1.28,1.28,0,0,1,1.27,1.28"/><path id="Fill-749" class="cls-5" d="M227.4,214.79a1.27,1.27,0,1,1-1.27-1.28,1.28,1.28,0,0,1,1.27,1.28"/><path id="Fill-751" class="cls-5" d="M232.5,214.79a1.27,1.27,0,1,1-1.27-1.28,1.28,1.28,0,0,1,1.27,1.28"/><path id="Fill-753" class="cls-5" d="M237.6,214.79a1.27,1.27,0,1,1-1.27-1.28,1.28,1.28,0,0,1,1.27,1.28"/><path id="Fill-755" class="cls-5" d="M242.7,214.79a1.27,1.27,0,1,1-1.27-1.28,1.28,1.28,0,0,1,1.27,1.28"/><path id="Fill-757" class="cls-5" d="M247.8,214.79a1.27,1.27,0,1,1-1.27-1.28,1.28,1.28,0,0,1,1.27,1.28"/><path id="Fill-759" class="cls-5" d="M252.9,214.79a1.27,1.27,0,1,1-1.27-1.28,1.28,1.28,0,0,1,1.27,1.28"/><path id="Fill-761" class="cls-5" d="M168.77,219.9a1.27,1.27,0,1,1-1.27-1.28,1.28,1.28,0,0,1,1.27,1.28"/><path id="Fill-763" class="cls-5" d="M173.87,219.9a1.27,1.27,0,1,1-1.27-1.28,1.28,1.28,0,0,1,1.27,1.28"/><path id="Fill-765" class="cls-5" d="M179,219.9a1.27,1.27,0,1,1-1.27-1.28A1.28,1.28,0,0,1,179,219.9"/><path id="Fill-767" class="cls-5" d="M184.06,219.9a1.27,1.27,0,1,1-1.27-1.28,1.28,1.28,0,0,1,1.27,1.28"/><path id="Fill-769" class="cls-5" d="M189.16,219.9a1.27,1.27,0,1,1-1.27-1.28,1.28,1.28,0,0,1,1.27,1.28"/><path id="Fill-771" class="cls-5" d="M194.26,219.9a1.27,1.27,0,1,1-1.27-1.28,1.28,1.28,0,0,1,1.27,1.28"/><path id="Fill-773" class="cls-5" d="M199.36,219.9a1.27,1.27,0,1,1-1.27-1.28,1.28,1.28,0,0,1,1.27,1.28"/><path id="Fill-775" class="cls-5" d="M204.46,219.9a1.27,1.27,0,1,1-1.27-1.28,1.28,1.28,0,0,1,1.27,1.28"/><path id="Fill-777" class="cls-5" d="M209.56,219.9a1.27,1.27,0,1,1-1.27-1.28,1.28,1.28,0,0,1,1.27,1.28"/><path id="Fill-779" class="cls-5" d="M214.66,219.9a1.27,1.27,0,1,1-1.27-1.28,1.28,1.28,0,0,1,1.27,1.28"/><path id="Fill-781" class="cls-5" d="M219.75,219.9a1.27,1.27,0,1,1-1.27-1.28,1.28,1.28,0,0,1,1.27,1.28"/><path id="Fill-783" class="cls-5" d="M224.85,219.9a1.27,1.27,0,1,1-1.27-1.28,1.28,1.28,0,0,1,1.27,1.28"/><path id="Fill-785" class="cls-5" d="M230,219.9a1.27,1.27,0,1,1-1.27-1.28A1.28,1.28,0,0,1,230,219.9"/><path id="Fill-787" class="cls-5" d="M235.05,219.9a1.27,1.27,0,1,1-1.27-1.28,1.28,1.28,0,0,1,1.27,1.28"/><path id="Fill-789" class="cls-5" d="M240.15,219.9a1.27,1.27,0,1,1-1.27-1.28,1.28,1.28,0,0,1,1.27,1.28"/><path id="Fill-791" class="cls-5" d="M245.25,219.9a1.27,1.27,0,1,1-1.27-1.28,1.28,1.28,0,0,1,1.27,1.28"/><path id="Fill-793" class="cls-5" d="M250.35,219.9a1.27,1.27,0,1,1-1.27-1.28,1.28,1.28,0,0,1,1.27,1.28"/><path id="Fill-795" class="cls-5" d="M255.44,219.9a1.27,1.27,0,1,1-1.27-1.28,1.28,1.28,0,0,1,1.27,1.28"/><path id="Fill-797" class="cls-5" d="M171.32,225a1.27,1.27,0,1,1-1.27-1.28,1.28,1.28,0,0,1,1.27,1.28"/><path id="Fill-799" class="cls-5" d="M176.42,225a1.27,1.27,0,1,1-1.27-1.28,1.28,1.28,0,0,1,1.27,1.28"/><path id="Fill-801" class="cls-5" d="M181.52,225a1.27,1.27,0,1,1-1.27-1.28,1.28,1.28,0,0,1,1.27,1.28"/><path id="Fill-803" class="cls-5" d="M186.61,225a1.27,1.27,0,1,1-1.27-1.28,1.28,1.28,0,0,1,1.27,1.28"/><path id="Fill-805" class="cls-5" d="M191.71,225a1.27,1.27,0,1,1-1.27-1.28,1.28,1.28,0,0,1,1.27,1.28"/><path id="Fill-807" class="cls-5" d="M196.81,225a1.27,1.27,0,1,1-1.27-1.28,1.28,1.28,0,0,1,1.27,1.28"/><path id="Fill-809" class="cls-5" d="M201.91,225a1.27,1.27,0,1,1-1.27-1.28,1.28,1.28,0,0,1,1.27,1.28"/><path id="Fill-811" class="cls-5" d="M207,225a1.27,1.27,0,1,1-1.27-1.28A1.28,1.28,0,0,1,207,225"/><path id="Fill-813" class="cls-5" d="M212.11,225a1.27,1.27,0,1,1-1.27-1.28,1.28,1.28,0,0,1,1.27,1.28"/><path id="Fill-815" class="cls-5" d="M217.21,225a1.27,1.27,0,1,1-1.27-1.28,1.28,1.28,0,0,1,1.27,1.28"/><path id="Fill-817" class="cls-5" d="M222.3,225a1.27,1.27,0,1,1-1.27-1.28A1.28,1.28,0,0,1,222.3,225"/><path id="Fill-819" class="cls-5" d="M227.4,225a1.27,1.27,0,1,1-1.27-1.28A1.28,1.28,0,0,1,227.4,225"/><path id="Fill-821" class="cls-5" d="M232.5,225a1.27,1.27,0,1,1-1.27-1.28A1.28,1.28,0,0,1,232.5,225"/><path id="Fill-823" class="cls-5" d="M237.6,225a1.27,1.27,0,1,1-1.27-1.28A1.28,1.28,0,0,1,237.6,225"/><path id="Fill-825" class="cls-5" d="M242.7,225a1.27,1.27,0,1,1-1.27-1.28A1.28,1.28,0,0,1,242.7,225"/><path id="Fill-827" class="cls-5" d="M247.8,225a1.27,1.27,0,1,1-1.27-1.28A1.28,1.28,0,0,1,247.8,225"/><path id="Fill-829" class="cls-5" d="M252.9,225a1.27,1.27,0,1,1-1.27-1.28A1.28,1.28,0,0,1,252.9,225"/><path id="Fill-831" class="cls-5" d="M168.77,230.11a1.27,1.27,0,1,1-1.27-1.28,1.28,1.28,0,0,1,1.27,1.28"/><path id="Fill-833" class="cls-5" d="M173.87,230.11a1.27,1.27,0,1,1-1.27-1.28,1.28,1.28,0,0,1,1.27,1.28"/><path id="Fill-835" class="cls-5" d="M179,230.11a1.27,1.27,0,1,1-1.27-1.28,1.28,1.28,0,0,1,1.27,1.28"/><path id="Fill-837" class="cls-5" d="M184.06,230.11a1.27,1.27,0,1,1-1.27-1.28,1.28,1.28,0,0,1,1.27,1.28"/><path id="Fill-839" class="cls-5" d="M189.16,230.11a1.27,1.27,0,1,1-1.27-1.28,1.28,1.28,0,0,1,1.27,1.28"/><path id="Fill-841" class="cls-5" d="M194.26,230.11a1.27,1.27,0,1,1-1.27-1.28,1.28,1.28,0,0,1,1.27,1.28"/><path id="Fill-843" class="cls-5" d="M199.36,230.11a1.27,1.27,0,1,1-1.27-1.28,1.28,1.28,0,0,1,1.27,1.28"/><path id="Fill-845" class="cls-5" d="M204.46,230.11a1.27,1.27,0,1,1-1.27-1.28,1.28,1.28,0,0,1,1.27,1.28"/><path id="Fill-847" class="cls-5" d="M209.56,230.11a1.27,1.27,0,1,1-1.27-1.28,1.28,1.28,0,0,1,1.27,1.28"/><path id="Fill-849" class="cls-5" d="M214.66,230.11a1.27,1.27,0,1,1-1.27-1.28,1.28,1.28,0,0,1,1.27,1.28"/><path id="Fill-851" class="cls-5" d="M219.75,230.11a1.27,1.27,0,1,1-1.27-1.28,1.28,1.28,0,0,1,1.27,1.28"/><path id="Fill-853" class="cls-5" d="M224.85,230.11a1.27,1.27,0,1,1-1.27-1.28,1.28,1.28,0,0,1,1.27,1.28"/><path id="Fill-855" class="cls-5" d="M230,230.11a1.27,1.27,0,1,1-1.27-1.28,1.28,1.28,0,0,1,1.27,1.28"/><path id="Fill-857" class="cls-5" d="M235.05,230.11a1.27,1.27,0,1,1-1.27-1.28,1.28,1.28,0,0,1,1.27,1.28"/><path id="Fill-859" class="cls-5" d="M240.15,230.11a1.27,1.27,0,1,1-1.27-1.28,1.28,1.28,0,0,1,1.27,1.28"/><path id="Fill-861" class="cls-5" d="M245.25,230.11a1.27,1.27,0,1,1-1.27-1.28,1.28,1.28,0,0,1,1.27,1.28"/><path id="Fill-863" class="cls-5" d="M250.35,230.11a1.27,1.27,0,1,1-1.27-1.28,1.28,1.28,0,0,1,1.27,1.28"/><path id="Fill-865" class="cls-5" d="M255.44,230.11a1.27,1.27,0,1,1-1.27-1.28,1.28,1.28,0,0,1,1.27,1.28"/><path id="Fill-867" class="cls-5" d="M171.32,235.22a1.27,1.27,0,1,1-1.27-1.28,1.28,1.28,0,0,1,1.27,1.28"/><path id="Fill-869" class="cls-5" d="M176.42,235.22a1.27,1.27,0,1,1-1.27-1.28,1.28,1.28,0,0,1,1.27,1.28"/><path id="Fill-871" class="cls-5" d="M181.52,235.22a1.27,1.27,0,1,1-1.27-1.28,1.28,1.28,0,0,1,1.27,1.28"/><path id="Fill-873" class="cls-5" d="M186.61,235.22a1.27,1.27,0,1,1-1.27-1.28,1.28,1.28,0,0,1,1.27,1.28"/><path id="Fill-875" class="cls-5" d="M191.71,235.22a1.27,1.27,0,1,1-1.27-1.28,1.28,1.28,0,0,1,1.27,1.28"/><path id="Fill-877" class="cls-5" d="M196.81,235.22a1.27,1.27,0,1,1-1.27-1.28,1.28,1.28,0,0,1,1.27,1.28"/><path id="Fill-879" class="cls-5" d="M201.91,235.22a1.27,1.27,0,1,1-1.27-1.28,1.28,1.28,0,0,1,1.27,1.28"/><path id="Fill-881" class="cls-5" d="M207,235.22a1.27,1.27,0,1,1-1.27-1.28,1.28,1.28,0,0,1,1.27,1.28"/><path id="Fill-883" class="cls-5" d="M212.11,235.22a1.27,1.27,0,1,1-1.27-1.28,1.28,1.28,0,0,1,1.27,1.28"/><path id="Fill-885" class="cls-5" d="M217.21,235.22a1.27,1.27,0,1,1-1.27-1.28,1.28,1.28,0,0,1,1.27,1.28"/><path id="Fill-887" class="cls-5" d="M222.3,235.22a1.27,1.27,0,1,1-1.27-1.28,1.28,1.28,0,0,1,1.27,1.28"/><path id="Fill-889" class="cls-5" d="M227.4,235.22a1.27,1.27,0,1,1-1.27-1.28,1.28,1.28,0,0,1,1.27,1.28"/><path id="Fill-891" class="cls-5" d="M232.5,235.22a1.27,1.27,0,1,1-1.27-1.28,1.28,1.28,0,0,1,1.27,1.28"/><path id="Fill-893" class="cls-5" d="M237.6,235.22a1.27,1.27,0,1,1-1.27-1.28,1.28,1.28,0,0,1,1.27,1.28"/><path id="Fill-895" class="cls-5" d="M242.7,235.22a1.27,1.27,0,1,1-1.27-1.28,1.28,1.28,0,0,1,1.27,1.28"/><path id="Fill-897" class="cls-5" d="M247.8,235.22a1.27,1.27,0,1,1-1.27-1.28,1.28,1.28,0,0,1,1.27,1.28"/><path id="Fill-899" class="cls-5" d="M252.9,235.22a1.27,1.27,0,1,1-1.27-1.28,1.28,1.28,0,0,1,1.27,1.28"/><path id="Fill-901" class="cls-5" d="M168.77,240.32a1.27,1.27,0,1,1-1.27-1.28,1.28,1.28,0,0,1,1.27,1.28"/><path id="Fill-903" class="cls-5" d="M173.87,240.32a1.27,1.27,0,1,1-1.27-1.28,1.28,1.28,0,0,1,1.27,1.28"/><path id="Fill-905" class="cls-5" d="M179,240.32a1.27,1.27,0,1,1-1.27-1.28,1.28,1.28,0,0,1,1.27,1.28"/><path id="Fill-907" class="cls-5" d="M184.06,240.32a1.27,1.27,0,1,1-1.27-1.28,1.28,1.28,0,0,1,1.27,1.28"/><path id="Fill-909" class="cls-5" d="M189.16,240.32a1.27,1.27,0,1,1-1.27-1.28,1.28,1.28,0,0,1,1.27,1.28"/><path id="Fill-911" class="cls-5" d="M194.26,240.32A1.27,1.27,0,1,1,193,239a1.28,1.28,0,0,1,1.27,1.28"/><path id="Fill-913" class="cls-5" d="M199.36,240.32a1.27,1.27,0,1,1-1.27-1.28,1.28,1.28,0,0,1,1.27,1.28"/><path id="Fill-915" class="cls-5" d="M204.46,240.32a1.27,1.27,0,1,1-1.27-1.28,1.28,1.28,0,0,1,1.27,1.28"/><path id="Fill-917" class="cls-5" d="M209.56,240.32a1.27,1.27,0,1,1-1.27-1.28,1.28,1.28,0,0,1,1.27,1.28"/><path id="Fill-919" class="cls-5" d="M214.66,240.32a1.27,1.27,0,1,1-1.27-1.28,1.28,1.28,0,0,1,1.27,1.28"/><path id="Fill-921" class="cls-5" d="M219.75,240.32a1.27,1.27,0,1,1-1.27-1.28,1.28,1.28,0,0,1,1.27,1.28"/><path id="Fill-923" class="cls-5" d="M224.85,240.32a1.27,1.27,0,1,1-1.27-1.28,1.28,1.28,0,0,1,1.27,1.28"/><path id="Fill-925" class="cls-5" d="M230,240.32a1.27,1.27,0,1,1-1.27-1.28,1.28,1.28,0,0,1,1.27,1.28"/><path id="Fill-927" class="cls-5" d="M235.05,240.32a1.27,1.27,0,1,1-1.27-1.28,1.28,1.28,0,0,1,1.27,1.28"/><path id="Fill-929" class="cls-5" d="M240.15,240.32a1.27,1.27,0,1,1-1.27-1.28,1.28,1.28,0,0,1,1.27,1.28"/><path id="Fill-931" class="cls-5" d="M245.25,240.32A1.27,1.27,0,1,1,244,239a1.28,1.28,0,0,1,1.27,1.28"/><path id="Fill-933" class="cls-5" d="M250.35,240.32a1.27,1.27,0,1,1-1.27-1.28,1.28,1.28,0,0,1,1.27,1.28"/><path id="Fill-935" class="cls-5" d="M255.44,240.32a1.27,1.27,0,1,1-1.27-1.28,1.28,1.28,0,0,1,1.27,1.28"/><path id="Fill-937" class="cls-5" d="M171.32,245.43a1.27,1.27,0,1,1-1.27-1.28,1.28,1.28,0,0,1,1.27,1.28"/><path id="Fill-939" class="cls-5" d="M176.42,245.43a1.27,1.27,0,1,1-1.27-1.28,1.28,1.28,0,0,1,1.27,1.28"/><path id="Fill-941" class="cls-5" d="M181.52,245.43a1.27,1.27,0,1,1-1.27-1.28,1.28,1.28,0,0,1,1.27,1.28"/><path id="Fill-943" class="cls-5" d="M186.61,245.43a1.27,1.27,0,1,1-1.27-1.28,1.28,1.28,0,0,1,1.27,1.28"/><path id="Fill-945" class="cls-5" d="M191.71,245.43a1.27,1.27,0,1,1-1.27-1.28,1.28,1.28,0,0,1,1.27,1.28"/><path id="Fill-947" class="cls-5" d="M196.81,245.43a1.27,1.27,0,1,1-1.27-1.28,1.28,1.28,0,0,1,1.27,1.28"/><path id="Fill-949" class="cls-5" d="M201.91,245.43a1.27,1.27,0,1,1-1.27-1.28,1.28,1.28,0,0,1,1.27,1.28"/><path id="Fill-951" class="cls-5" d="M207,245.43a1.27,1.27,0,1,1-1.27-1.28,1.28,1.28,0,0,1,1.27,1.28"/><path id="Fill-953" class="cls-5" d="M212.11,245.43a1.27,1.27,0,1,1-1.27-1.28,1.28,1.28,0,0,1,1.27,1.28"/><path id="Fill-955" class="cls-5" d="M217.21,245.43a1.27,1.27,0,1,1-1.27-1.28,1.28,1.28,0,0,1,1.27,1.28"/><path id="Fill-957" class="cls-5" d="M222.3,245.43a1.27,1.27,0,1,1-1.27-1.28,1.28,1.28,0,0,1,1.27,1.28"/><path id="Fill-959" class="cls-5" d="M227.4,245.43a1.27,1.27,0,1,1-1.27-1.28,1.28,1.28,0,0,1,1.27,1.28"/><path id="Fill-961" class="cls-5" d="M232.5,245.43a1.27,1.27,0,1,1-1.27-1.28,1.28,1.28,0,0,1,1.27,1.28"/><path id="Fill-963" class="cls-5" d="M237.6,245.43a1.27,1.27,0,1,1-1.27-1.28,1.28,1.28,0,0,1,1.27,1.28"/><path id="Fill-965" class="cls-5" d="M242.7,245.43a1.27,1.27,0,1,1-1.27-1.28,1.28,1.28,0,0,1,1.27,1.28"/><path id="Fill-967" class="cls-5" d="M247.8,245.43a1.27,1.27,0,1,1-1.27-1.28,1.28,1.28,0,0,1,1.27,1.28"/><path id="Fill-969" class="cls-5" d="M252.9,245.43a1.27,1.27,0,1,1-1.27-1.28,1.28,1.28,0,0,1,1.27,1.28"/><path id="Fill-971" class="cls-5" d="M168.77,250.53a1.27,1.27,0,1,1-1.27-1.28,1.28,1.28,0,0,1,1.27,1.28"/><path id="Fill-973" class="cls-5" d="M173.87,250.53a1.27,1.27,0,1,1-1.27-1.28,1.28,1.28,0,0,1,1.27,1.28"/><path id="Fill-975" class="cls-5" d="M179,250.53a1.27,1.27,0,1,1-1.27-1.28,1.28,1.28,0,0,1,1.27,1.28"/><path id="Fill-977" class="cls-5" d="M184.06,250.53a1.27,1.27,0,1,1-1.27-1.28,1.28,1.28,0,0,1,1.27,1.28"/><path id="Fill-979" class="cls-5" d="M189.16,250.53a1.27,1.27,0,1,1-1.27-1.28,1.28,1.28,0,0,1,1.27,1.28"/><path id="Fill-981" class="cls-5" d="M194.26,250.53a1.27,1.27,0,1,1-1.27-1.28,1.28,1.28,0,0,1,1.27,1.28"/><path id="Fill-983" class="cls-5" d="M199.36,250.53a1.27,1.27,0,1,1-1.27-1.28,1.28,1.28,0,0,1,1.27,1.28"/><path id="Fill-985" class="cls-5" d="M204.46,250.53a1.27,1.27,0,1,1-1.27-1.28,1.28,1.28,0,0,1,1.27,1.28"/><path id="Fill-987" class="cls-5" d="M209.56,250.53a1.27,1.27,0,1,1-1.27-1.28,1.28,1.28,0,0,1,1.27,1.28"/><path id="Fill-989" class="cls-5" d="M214.66,250.53a1.27,1.27,0,1,1-1.27-1.28,1.28,1.28,0,0,1,1.27,1.28"/><path id="Fill-991" class="cls-5" d="M219.75,250.53a1.27,1.27,0,1,1-1.27-1.28,1.28,1.28,0,0,1,1.27,1.28"/><path id="Fill-993" class="cls-5" d="M224.85,250.53a1.27,1.27,0,1,1-1.27-1.28,1.28,1.28,0,0,1,1.27,1.28"/><path id="Fill-995" class="cls-5" d="M230,250.53a1.27,1.27,0,1,1-1.27-1.28,1.28,1.28,0,0,1,1.27,1.28"/><path id="Fill-997" class="cls-5" d="M235.05,250.53a1.27,1.27,0,1,1-1.27-1.28,1.28,1.28,0,0,1,1.27,1.28"/><path id="Fill-999" class="cls-5" d="M240.15,250.53a1.27,1.27,0,1,1-1.27-1.28,1.28,1.28,0,0,1,1.27,1.28"/><path id="Fill-1001" class="cls-5" d="M245.25,250.53a1.27,1.27,0,1,1-1.27-1.28,1.28,1.28,0,0,1,1.27,1.28"/><path id="Fill-1003" class="cls-5" d="M250.35,250.53a1.27,1.27,0,1,1-1.27-1.28,1.28,1.28,0,0,1,1.27,1.28"/><path id="Fill-1005" class="cls-5" d="M255.44,250.53a1.27,1.27,0,1,1-1.27-1.28,1.28,1.28,0,0,1,1.27,1.28"/><path id="Fill-1007" class="cls-5" d="M156,255.64a1.27,1.27,0,1,1-1.27-1.28,1.28,1.28,0,0,1,1.27,1.28"/><path id="Fill-1009" class="cls-5" d="M161.12,255.64a1.27,1.27,0,1,1-1.27-1.28,1.28,1.28,0,0,1,1.27,1.28"/><path id="Fill-1011" class="cls-5" d="M166.22,255.64a1.27,1.27,0,1,1-1.27-1.28,1.28,1.28,0,0,1,1.27,1.28"/><path id="Fill-1013" class="cls-5" d="M171.32,255.64a1.27,1.27,0,1,1-1.27-1.28,1.28,1.28,0,0,1,1.27,1.28"/><path id="Fill-1015" class="cls-5" d="M176.42,255.64a1.27,1.27,0,1,1-1.27-1.28,1.28,1.28,0,0,1,1.27,1.28"/><path id="Fill-1017" class="cls-5" d="M181.52,255.64a1.27,1.27,0,1,1-1.27-1.28,1.28,1.28,0,0,1,1.27,1.28"/><path id="Fill-1019" class="cls-5" d="M186.61,255.64a1.27,1.27,0,1,1-1.27-1.28,1.28,1.28,0,0,1,1.27,1.28"/><path id="Fill-1021" class="cls-5" d="M191.71,255.64a1.27,1.27,0,1,1-1.27-1.28,1.28,1.28,0,0,1,1.27,1.28"/><path id="Fill-1023" class="cls-5" d="M196.81,255.64a1.27,1.27,0,1,1-1.27-1.28,1.28,1.28,0,0,1,1.27,1.28"/><path id="Fill-1025" class="cls-5" d="M201.91,255.64a1.27,1.27,0,1,1-1.27-1.28,1.28,1.28,0,0,1,1.27,1.28"/><path id="Fill-1027" class="cls-5" d="M207,255.64a1.27,1.27,0,1,1-1.27-1.28,1.28,1.28,0,0,1,1.27,1.28"/><path id="Fill-1029" class="cls-5" d="M212.11,255.64a1.27,1.27,0,1,1-1.27-1.28,1.28,1.28,0,0,1,1.27,1.28"/><path id="Fill-1031" class="cls-5" d="M217.21,255.64a1.27,1.27,0,1,1-1.27-1.28,1.28,1.28,0,0,1,1.27,1.28"/><path id="Fill-1033" class="cls-5" d="M222.3,255.64a1.27,1.27,0,1,1-1.27-1.28,1.28,1.28,0,0,1,1.27,1.28"/><path id="Fill-1035" class="cls-5" d="M227.4,255.64a1.27,1.27,0,1,1-1.27-1.28,1.28,1.28,0,0,1,1.27,1.28"/><path id="Fill-1037" class="cls-5" d="M232.5,255.64a1.27,1.27,0,1,1-1.27-1.28,1.28,1.28,0,0,1,1.27,1.28"/><path id="Fill-1039" class="cls-5" d="M237.6,255.64a1.27,1.27,0,1,1-1.27-1.28,1.28,1.28,0,0,1,1.27,1.28"/><path id="Fill-1041" class="cls-5" d="M242.7,255.64a1.27,1.27,0,1,1-1.27-1.28,1.28,1.28,0,0,1,1.27,1.28"/><path id="Fill-1043" class="cls-5" d="M247.8,255.64a1.27,1.27,0,1,1-1.27-1.28,1.28,1.28,0,0,1,1.27,1.28"/><path id="Fill-1045" class="cls-5" d="M252.9,255.64a1.27,1.27,0,1,1-1.27-1.28,1.28,1.28,0,0,1,1.27,1.28"/><path id="Fill-1047" class="cls-5" d="M158.57,260.75a1.27,1.27,0,1,1-1.27-1.28,1.28,1.28,0,0,1,1.27,1.28"/><path id="Fill-1049" class="cls-5" d="M163.67,260.75a1.27,1.27,0,1,1-1.27-1.28,1.28,1.28,0,0,1,1.27,1.28"/><path id="Fill-1051" class="cls-5" d="M168.77,260.75a1.27,1.27,0,1,1-1.27-1.28,1.28,1.28,0,0,1,1.27,1.28"/><path id="Fill-1053" class="cls-5" d="M173.87,260.75a1.27,1.27,0,1,1-1.27-1.28,1.28,1.28,0,0,1,1.27,1.28"/><path id="Fill-1055" class="cls-5" d="M179,260.75a1.27,1.27,0,1,1-1.27-1.28,1.28,1.28,0,0,1,1.27,1.28"/><path id="Fill-1057" class="cls-5" d="M184.06,260.75a1.27,1.27,0,1,1-1.27-1.28,1.28,1.28,0,0,1,1.27,1.28"/><path id="Fill-1059" class="cls-5" d="M189.16,260.75a1.27,1.27,0,1,1-1.27-1.28,1.28,1.28,0,0,1,1.27,1.28"/><path id="Fill-1061" class="cls-5" d="M194.26,260.75a1.27,1.27,0,1,1-1.27-1.28,1.28,1.28,0,0,1,1.27,1.28"/><path id="Fill-1063" class="cls-5" d="M199.36,260.75a1.27,1.27,0,1,1-1.27-1.28,1.28,1.28,0,0,1,1.27,1.28"/><path id="Fill-1065" class="cls-5" d="M204.46,260.75a1.27,1.27,0,1,1-1.27-1.28,1.28,1.28,0,0,1,1.27,1.28"/><path id="Fill-1067" class="cls-5" d="M209.56,260.75a1.27,1.27,0,1,1-1.27-1.28,1.28,1.28,0,0,1,1.27,1.28"/><path id="Fill-1069" class="cls-5" d="M214.66,260.75a1.27,1.27,0,1,1-1.27-1.28,1.28,1.28,0,0,1,1.27,1.28"/><path id="Fill-1071" class="cls-5" d="M219.75,260.75a1.27,1.27,0,1,1-1.27-1.28,1.28,1.28,0,0,1,1.27,1.28"/><path id="Fill-1073" class="cls-5" d="M224.85,260.75a1.27,1.27,0,1,1-1.27-1.28,1.28,1.28,0,0,1,1.27,1.28"/><path id="Fill-1075" class="cls-5" d="M230,260.75a1.27,1.27,0,1,1-1.27-1.28,1.28,1.28,0,0,1,1.27,1.28"/><path id="Fill-1077" class="cls-5" d="M235.05,260.75a1.27,1.27,0,1,1-1.27-1.28,1.28,1.28,0,0,1,1.27,1.28"/><path id="Fill-1079" class="cls-5" d="M240.15,260.75a1.27,1.27,0,1,1-1.27-1.28,1.28,1.28,0,0,1,1.27,1.28"/><path id="Fill-1081" class="cls-5" d="M245.25,260.75a1.27,1.27,0,1,1-1.27-1.28,1.28,1.28,0,0,1,1.27,1.28"/><path id="Fill-1083" class="cls-5" d="M250.35,260.75a1.27,1.27,0,1,1-1.27-1.28,1.28,1.28,0,0,1,1.27,1.28"/><path id="Fill-1085" class="cls-5" d="M255.44,260.75a1.27,1.27,0,1,1-1.27-1.28,1.28,1.28,0,0,1,1.27,1.28"/><path id="Fill-1087" class="cls-5" d="M258,214.79a1.27,1.27,0,1,1-1.27-1.28,1.28,1.28,0,0,1,1.27,1.28"/><path id="Fill-1089" class="cls-5" d="M263.09,214.79a1.27,1.27,0,1,1-1.27-1.28,1.28,1.28,0,0,1,1.27,1.28"/><path id="Fill-1091" class="cls-5" d="M268.19,214.79a1.27,1.27,0,1,1-1.27-1.28,1.28,1.28,0,0,1,1.27,1.28"/><path id="Fill-1093" class="cls-5" d="M273.29,214.79a1.27,1.27,0,1,1-1.27-1.28,1.28,1.28,0,0,1,1.27,1.28"/><path id="Fill-1095" class="cls-5" d="M278.39,214.79a1.27,1.27,0,1,1-1.27-1.28,1.28,1.28,0,0,1,1.27,1.28"/><path id="Fill-1097" class="cls-5" d="M283.49,214.79a1.27,1.27,0,1,1-1.27-1.28,1.28,1.28,0,0,1,1.27,1.28"/><path id="Fill-1099" class="cls-5" d="M288.59,214.79a1.27,1.27,0,1,1-1.27-1.28,1.28,1.28,0,0,1,1.27,1.28"/><path id="Fill-1101" class="cls-5" d="M293.68,214.79a1.27,1.27,0,1,1-1.27-1.28,1.28,1.28,0,0,1,1.27,1.28"/><path id="Fill-1103" class="cls-5" d="M298.78,214.79a1.27,1.27,0,1,1-1.27-1.28,1.28,1.28,0,0,1,1.27,1.28"/><path id="Fill-1105" class="cls-5" d="M303.88,214.79a1.27,1.27,0,1,1-1.27-1.28,1.28,1.28,0,0,1,1.27,1.28"/><path id="Fill-1107" class="cls-5" d="M309,214.79a1.27,1.27,0,1,1-1.27-1.28,1.28,1.28,0,0,1,1.27,1.28"/><path id="Fill-1109" class="cls-5" d="M314.08,214.79a1.27,1.27,0,1,1-1.27-1.28,1.28,1.28,0,0,1,1.27,1.28"/><path id="Fill-1111" class="cls-5" d="M319.18,214.79a1.27,1.27,0,1,1-1.27-1.28,1.28,1.28,0,0,1,1.27,1.28"/><path id="Fill-1113" class="cls-5" d="M324.28,214.79a1.27,1.27,0,1,1-1.27-1.28,1.28,1.28,0,0,1,1.27,1.28"/><path id="Fill-1115" class="cls-5" d="M329.37,214.79a1.27,1.27,0,1,1-1.27-1.28,1.28,1.28,0,0,1,1.27,1.28"/><path id="Fill-1117" class="cls-5" d="M334.47,214.79a1.27,1.27,0,1,1-1.27-1.28,1.28,1.28,0,0,1,1.27,1.28"/><path id="Fill-1119" class="cls-5" d="M339.57,214.79a1.27,1.27,0,1,1-1.27-1.28,1.28,1.28,0,0,1,1.27,1.28"/><path id="Fill-1121" class="cls-5" d="M344.67,214.79a1.27,1.27,0,1,1-1.27-1.28,1.28,1.28,0,0,1,1.27,1.28"/><path id="Fill-1123" class="cls-5" d="M349.77,214.79a1.27,1.27,0,1,1-1.27-1.28,1.28,1.28,0,0,1,1.27,1.28"/><path id="Fill-1125" class="cls-5" d="M354.87,214.79a1.27,1.27,0,1,1-1.27-1.28,1.28,1.28,0,0,1,1.27,1.28"/><path id="Fill-1127" class="cls-5" d="M261.39,219.9a1.27,1.27,0,1,1-1.27-1.28,1.28,1.28,0,0,1,1.27,1.28"/><path id="Fill-1129" class="cls-5" d="M266.49,219.9a1.27,1.27,0,1,1-1.27-1.28,1.28,1.28,0,0,1,1.27,1.28"/><path id="Fill-1131" class="cls-5" d="M271.59,219.9a1.27,1.27,0,1,1-1.27-1.28,1.28,1.28,0,0,1,1.27,1.28"/><path id="Fill-1133" class="cls-5" d="M276.69,219.9a1.27,1.27,0,1,1-1.27-1.28,1.28,1.28,0,0,1,1.27,1.28"/><path id="Fill-1135" class="cls-5" d="M281.79,219.9a1.27,1.27,0,1,1-1.27-1.28,1.28,1.28,0,0,1,1.27,1.28"/><path id="Fill-1137" class="cls-5" d="M286.89,219.9a1.27,1.27,0,1,1-1.27-1.28,1.28,1.28,0,0,1,1.27,1.28"/><path id="Fill-1139" class="cls-5" d="M292,219.9a1.27,1.27,0,1,1-1.27-1.28A1.28,1.28,0,0,1,292,219.9"/><path id="Fill-1141" class="cls-5" d="M297.08,219.9a1.27,1.27,0,1,1-1.27-1.28,1.28,1.28,0,0,1,1.27,1.28"/><path id="Fill-1143" class="cls-5" d="M302.18,219.9a1.27,1.27,0,1,1-1.27-1.28,1.28,1.28,0,0,1,1.27,1.28"/><path id="Fill-1145" class="cls-5" d="M307.28,219.9a1.27,1.27,0,1,1-1.27-1.28,1.28,1.28,0,0,1,1.27,1.28"/><path id="Fill-1147" class="cls-5" d="M312.38,219.9a1.27,1.27,0,1,1-1.27-1.28,1.28,1.28,0,0,1,1.27,1.28"/><path id="Fill-1149" class="cls-5" d="M317.48,219.9a1.27,1.27,0,1,1-1.27-1.28,1.28,1.28,0,0,1,1.27,1.28"/><path id="Fill-1151" class="cls-5" d="M321.73,219.9a1.27,1.27,0,1,1-1.27-1.28,1.28,1.28,0,0,1,1.27,1.28"/><path id="Fill-1153" class="cls-5" d="M326.82,219.9a1.27,1.27,0,1,1-1.27-1.28,1.28,1.28,0,0,1,1.27,1.28"/><path id="Fill-1155" class="cls-5" d="M331.92,219.9a1.27,1.27,0,1,1-1.27-1.28,1.28,1.28,0,0,1,1.27,1.28"/><path id="Fill-1157" class="cls-5" d="M337,219.9a1.27,1.27,0,1,1-1.27-1.28A1.28,1.28,0,0,1,337,219.9"/><path id="Fill-1159" class="cls-5" d="M342.12,219.9a1.27,1.27,0,1,1-1.27-1.28,1.28,1.28,0,0,1,1.27,1.28"/><path id="Fill-1161" class="cls-5" d="M347.22,219.9a1.27,1.27,0,1,1-1.27-1.28,1.28,1.28,0,0,1,1.27,1.28"/><path id="Fill-1163" class="cls-5" d="M352.32,219.9a1.27,1.27,0,1,1-1.27-1.28,1.28,1.28,0,0,1,1.27,1.28"/><path id="Fill-1165" class="cls-5" d="M258,225a1.27,1.27,0,1,1-1.27-1.28A1.28,1.28,0,0,1,258,225"/><path id="Fill-1167" class="cls-5" d="M263.09,225a1.27,1.27,0,1,1-1.27-1.28,1.28,1.28,0,0,1,1.27,1.28"/><path id="Fill-1169" class="cls-5" d="M268.19,225a1.27,1.27,0,1,1-1.27-1.28,1.28,1.28,0,0,1,1.27,1.28"/><path id="Fill-1171" class="cls-5" d="M273.29,225a1.27,1.27,0,1,1-1.27-1.28,1.28,1.28,0,0,1,1.27,1.28"/><path id="Fill-1173" class="cls-5" d="M278.39,225a1.27,1.27,0,1,1-1.27-1.28,1.28,1.28,0,0,1,1.27,1.28"/><path id="Fill-1175" class="cls-5" d="M283.49,225a1.27,1.27,0,1,1-1.27-1.28,1.28,1.28,0,0,1,1.27,1.28"/><path id="Fill-1177" class="cls-5" d="M288.59,225a1.27,1.27,0,1,1-1.27-1.28,1.28,1.28,0,0,1,1.27,1.28"/><path id="Fill-1179" class="cls-5" d="M293.68,225a1.27,1.27,0,1,1-1.27-1.28,1.28,1.28,0,0,1,1.27,1.28"/><path id="Fill-1181" class="cls-5" d="M298.78,225a1.27,1.27,0,1,1-1.27-1.28,1.28,1.28,0,0,1,1.27,1.28"/><path id="Fill-1183" class="cls-5" d="M303.88,225a1.27,1.27,0,1,1-1.27-1.28,1.28,1.28,0,0,1,1.27,1.28"/><path id="Fill-1185" class="cls-5" d="M309,225a1.27,1.27,0,1,1-1.27-1.28A1.28,1.28,0,0,1,309,225"/><path id="Fill-1187" class="cls-5" d="M314.08,225a1.27,1.27,0,1,1-1.27-1.28,1.28,1.28,0,0,1,1.27,1.28"/><path id="Fill-1189" class="cls-5" d="M319.18,225a1.27,1.27,0,1,1-1.27-1.28,1.28,1.28,0,0,1,1.27,1.28"/><path id="Fill-1191" class="cls-5" d="M324.28,225a1.27,1.27,0,1,1-1.27-1.28,1.28,1.28,0,0,1,1.27,1.28"/><path id="Fill-1193" class="cls-5" d="M329.37,225a1.27,1.27,0,1,1-1.27-1.28,1.28,1.28,0,0,1,1.27,1.28"/><path id="Fill-1195" class="cls-5" d="M334.47,225a1.27,1.27,0,1,1-1.27-1.28,1.28,1.28,0,0,1,1.27,1.28"/><path id="Fill-1197" class="cls-5" d="M339.57,225a1.27,1.27,0,1,1-1.27-1.28,1.28,1.28,0,0,1,1.27,1.28"/><path id="Fill-1199" class="cls-5" d="M344.67,225a1.27,1.27,0,1,1-1.27-1.28,1.28,1.28,0,0,1,1.27,1.28"/><path id="Fill-1201" class="cls-5" d="M349.77,225a1.27,1.27,0,1,1-1.27-1.28,1.28,1.28,0,0,1,1.27,1.28"/><path id="Fill-1203" class="cls-5" d="M354.87,225a1.27,1.27,0,1,1-1.27-1.28,1.28,1.28,0,0,1,1.27,1.28"/><path id="Fill-1205" class="cls-5" d="M261.39,230.11a1.27,1.27,0,1,1-1.27-1.28,1.28,1.28,0,0,1,1.27,1.28"/><path id="Fill-1207" class="cls-5" d="M266.49,230.11a1.27,1.27,0,1,1-1.27-1.28,1.28,1.28,0,0,1,1.27,1.28"/><path id="Fill-1209" class="cls-5" d="M271.59,230.11a1.27,1.27,0,1,1-1.27-1.28,1.28,1.28,0,0,1,1.27,1.28"/><path id="Fill-1211" class="cls-5" d="M276.69,230.11a1.27,1.27,0,1,1-1.27-1.28,1.28,1.28,0,0,1,1.27,1.28"/><path id="Fill-1213" class="cls-5" d="M281.79,230.11a1.27,1.27,0,1,1-1.27-1.28,1.28,1.28,0,0,1,1.27,1.28"/><path id="Fill-1215" class="cls-5" d="M286.89,230.11a1.27,1.27,0,1,1-1.27-1.28,1.28,1.28,0,0,1,1.27,1.28"/><path id="Fill-1217" class="cls-5" d="M292,230.11a1.27,1.27,0,1,1-1.27-1.28,1.28,1.28,0,0,1,1.27,1.28"/><path id="Fill-1219" class="cls-5" d="M297.08,230.11a1.27,1.27,0,1,1-1.27-1.28,1.28,1.28,0,0,1,1.27,1.28"/><path id="Fill-1221" class="cls-5" d="M302.18,230.11a1.27,1.27,0,1,1-1.27-1.28,1.28,1.28,0,0,1,1.27,1.28"/><path id="Fill-1223" class="cls-5" d="M307.28,230.11a1.27,1.27,0,1,1-1.27-1.28,1.28,1.28,0,0,1,1.27,1.28"/><path id="Fill-1225" class="cls-5" d="M312.38,230.11a1.27,1.27,0,1,1-1.27-1.28,1.28,1.28,0,0,1,1.27,1.28"/><path id="Fill-1227" class="cls-5" d="M317.48,230.11a1.27,1.27,0,1,1-1.27-1.28,1.28,1.28,0,0,1,1.27,1.28"/><path id="Fill-1229" class="cls-5" d="M321.73,230.11a1.27,1.27,0,1,1-1.27-1.28,1.28,1.28,0,0,1,1.27,1.28"/><path id="Fill-1231" class="cls-5" d="M326.82,230.11a1.27,1.27,0,1,1-1.27-1.28,1.28,1.28,0,0,1,1.27,1.28"/><path id="Fill-1233" class="cls-5" d="M331.92,230.11a1.27,1.27,0,1,1-1.27-1.28,1.28,1.28,0,0,1,1.27,1.28"/><path id="Fill-1235" class="cls-5" d="M337,230.11a1.27,1.27,0,1,1-1.27-1.28,1.28,1.28,0,0,1,1.27,1.28"/><path id="Fill-1237" class="cls-5" d="M342.12,230.11a1.27,1.27,0,1,1-1.27-1.28,1.28,1.28,0,0,1,1.27,1.28"/><path id="Fill-1239" class="cls-5" d="M347.22,230.11a1.27,1.27,0,1,1-1.27-1.28,1.28,1.28,0,0,1,1.27,1.28"/><path id="Fill-1241" class="cls-5" d="M352.32,230.11a1.27,1.27,0,1,1-1.27-1.28,1.28,1.28,0,0,1,1.27,1.28"/><path id="Fill-1243" class="cls-5" d="M258,235.22a1.27,1.27,0,1,1-1.27-1.28,1.28,1.28,0,0,1,1.27,1.28"/><path id="Fill-1245" class="cls-5" d="M263.09,235.22a1.27,1.27,0,1,1-1.27-1.28,1.28,1.28,0,0,1,1.27,1.28"/><path id="Fill-1247" class="cls-5" d="M268.19,235.22a1.27,1.27,0,1,1-1.27-1.28,1.28,1.28,0,0,1,1.27,1.28"/><path id="Fill-1249" class="cls-5" d="M273.29,235.22a1.27,1.27,0,1,1-1.27-1.28,1.28,1.28,0,0,1,1.27,1.28"/><path id="Fill-1251" class="cls-5" d="M278.39,235.22a1.27,1.27,0,1,1-1.27-1.28,1.28,1.28,0,0,1,1.27,1.28"/><path id="Fill-1253" class="cls-5" d="M283.49,235.22a1.27,1.27,0,1,1-1.27-1.28,1.28,1.28,0,0,1,1.27,1.28"/><path id="Fill-1255" class="cls-5" d="M288.59,235.22a1.27,1.27,0,1,1-1.27-1.28,1.28,1.28,0,0,1,1.27,1.28"/><path id="Fill-1257" class="cls-5" d="M293.68,235.22a1.27,1.27,0,1,1-1.27-1.28,1.28,1.28,0,0,1,1.27,1.28"/><path id="Fill-1259" class="cls-5" d="M298.78,235.22a1.27,1.27,0,1,1-1.27-1.28,1.28,1.28,0,0,1,1.27,1.28"/><path id="Fill-1261" class="cls-5" d="M303.88,235.22a1.27,1.27,0,1,1-1.27-1.28,1.28,1.28,0,0,1,1.27,1.28"/><path id="Fill-1263" class="cls-5" d="M309,235.22a1.27,1.27,0,1,1-1.27-1.28,1.28,1.28,0,0,1,1.27,1.28"/><path id="Fill-1265" class="cls-5" d="M314.08,235.22a1.27,1.27,0,1,1-1.27-1.28,1.28,1.28,0,0,1,1.27,1.28"/><path id="Fill-1267" class="cls-5" d="M319.18,235.22a1.27,1.27,0,1,1-1.27-1.28,1.28,1.28,0,0,1,1.27,1.28"/><path id="Fill-1269" class="cls-5" d="M324.28,235.22a1.27,1.27,0,1,1-1.27-1.28,1.28,1.28,0,0,1,1.27,1.28"/><path id="Fill-1271" class="cls-5" d="M329.37,235.22a1.27,1.27,0,1,1-1.27-1.28,1.28,1.28,0,0,1,1.27,1.28"/><path id="Fill-1273" class="cls-5" d="M334.47,235.22a1.27,1.27,0,1,1-1.27-1.28,1.28,1.28,0,0,1,1.27,1.28"/><path id="Fill-1275" class="cls-5" d="M339.57,235.22a1.27,1.27,0,1,1-1.27-1.28,1.28,1.28,0,0,1,1.27,1.28"/><path id="Fill-1277" class="cls-5" d="M344.67,235.22a1.27,1.27,0,1,1-1.27-1.28,1.28,1.28,0,0,1,1.27,1.28"/><path id="Fill-1279" class="cls-5" d="M349.77,235.22a1.27,1.27,0,1,1-1.27-1.28,1.28,1.28,0,0,1,1.27,1.28"/><path id="Fill-1281" class="cls-5" d="M354.87,235.22a1.27,1.27,0,1,1-1.27-1.28,1.28,1.28,0,0,1,1.27,1.28"/><path id="Fill-1283" class="cls-5" d="M261.39,240.32a1.27,1.27,0,1,1-1.27-1.28,1.28,1.28,0,0,1,1.27,1.28"/><path id="Fill-1285" class="cls-5" d="M266.49,240.32a1.27,1.27,0,1,1-1.27-1.28,1.28,1.28,0,0,1,1.27,1.28"/><path id="Fill-1287" class="cls-5" d="M271.59,240.32a1.27,1.27,0,1,1-1.27-1.28,1.28,1.28,0,0,1,1.27,1.28"/><path id="Fill-1289" class="cls-5" d="M276.69,240.32a1.27,1.27,0,1,1-1.27-1.28,1.28,1.28,0,0,1,1.27,1.28"/><path id="Fill-1291" class="cls-5" d="M281.79,240.32a1.27,1.27,0,1,1-1.27-1.28,1.28,1.28,0,0,1,1.27,1.28"/><path id="Fill-1293" class="cls-5" d="M286.89,240.32a1.27,1.27,0,1,1-1.27-1.28,1.28,1.28,0,0,1,1.27,1.28"/><path id="Fill-1295" class="cls-5" d="M292,240.32a1.27,1.27,0,1,1-1.27-1.28,1.28,1.28,0,0,1,1.27,1.28"/><path id="Fill-1297" class="cls-5" d="M297.08,240.32a1.27,1.27,0,1,1-1.27-1.28,1.28,1.28,0,0,1,1.27,1.28"/><path id="Fill-1299" class="cls-5" d="M302.18,240.32a1.27,1.27,0,1,1-1.27-1.28,1.28,1.28,0,0,1,1.27,1.28"/><path id="Fill-1301" class="cls-5" d="M307.28,240.32A1.27,1.27,0,1,1,306,239a1.28,1.28,0,0,1,1.27,1.28"/><path id="Fill-1303" class="cls-5" d="M312.38,240.32A1.27,1.27,0,1,1,311.1,239a1.28,1.28,0,0,1,1.27,1.28"/><path id="Fill-1305" class="cls-5" d="M317.48,240.32A1.27,1.27,0,1,1,316.2,239a1.28,1.28,0,0,1,1.27,1.28"/><path id="Fill-1307" class="cls-5" d="M321.73,240.32a1.27,1.27,0,1,1-1.27-1.28,1.28,1.28,0,0,1,1.27,1.28"/><path id="Fill-1309" class="cls-5" d="M326.82,240.32a1.27,1.27,0,1,1-1.27-1.28,1.28,1.28,0,0,1,1.27,1.28"/><path id="Fill-1311" class="cls-5" d="M331.92,240.32a1.27,1.27,0,1,1-1.27-1.28,1.28,1.28,0,0,1,1.27,1.28"/><path id="Fill-1313" class="cls-5" d="M337,240.32a1.27,1.27,0,1,1-1.27-1.28,1.28,1.28,0,0,1,1.27,1.28"/><path id="Fill-1315" class="cls-5" d="M342.12,240.32a1.27,1.27,0,1,1-1.27-1.28,1.28,1.28,0,0,1,1.27,1.28"/><path id="Fill-1317" class="cls-5" d="M347.22,240.32a1.27,1.27,0,1,1-1.27-1.28,1.28,1.28,0,0,1,1.27,1.28"/><path id="Fill-1319" class="cls-5" d="M352.32,240.32A1.27,1.27,0,1,1,351,239a1.28,1.28,0,0,1,1.27,1.28"/><path id="Fill-1321" class="cls-5" d="M258,245.43a1.27,1.27,0,1,1-1.27-1.28,1.28,1.28,0,0,1,1.27,1.28"/><path id="Fill-1323" class="cls-5" d="M263.09,245.43a1.27,1.27,0,1,1-1.27-1.28,1.28,1.28,0,0,1,1.27,1.28"/><path id="Fill-1325" class="cls-5" d="M268.19,245.43a1.27,1.27,0,1,1-1.27-1.28,1.28,1.28,0,0,1,1.27,1.28"/><path id="Fill-1327" class="cls-5" d="M273.29,245.43a1.27,1.27,0,1,1-1.27-1.28,1.28,1.28,0,0,1,1.27,1.28"/><path id="Fill-1329" class="cls-5" d="M278.39,245.43a1.27,1.27,0,1,1-1.27-1.28,1.28,1.28,0,0,1,1.27,1.28"/><path id="Fill-1331" class="cls-5" d="M283.49,245.43a1.27,1.27,0,1,1-1.27-1.28,1.28,1.28,0,0,1,1.27,1.28"/><path id="Fill-1333" class="cls-5" d="M288.59,245.43a1.27,1.27,0,1,1-1.27-1.28,1.28,1.28,0,0,1,1.27,1.28"/><path id="Fill-1335" class="cls-5" d="M293.68,245.43a1.27,1.27,0,1,1-1.27-1.28,1.28,1.28,0,0,1,1.27,1.28"/><path id="Fill-1337" class="cls-5" d="M298.78,245.43a1.27,1.27,0,1,1-1.27-1.28,1.28,1.28,0,0,1,1.27,1.28"/><path id="Fill-1339" class="cls-5" d="M303.88,245.43a1.27,1.27,0,1,1-1.27-1.28,1.28,1.28,0,0,1,1.27,1.28"/><path id="Fill-1341" class="cls-5" d="M309,245.43a1.27,1.27,0,1,1-1.27-1.28,1.28,1.28,0,0,1,1.27,1.28"/><path id="Fill-1343" class="cls-5" d="M314.08,245.43a1.27,1.27,0,1,1-1.27-1.28,1.28,1.28,0,0,1,1.27,1.28"/><path id="Fill-1345" class="cls-5" d="M319.18,245.43a1.27,1.27,0,1,1-1.27-1.28,1.28,1.28,0,0,1,1.27,1.28"/><path id="Fill-1347" class="cls-5" d="M324.28,245.43a1.27,1.27,0,1,1-1.27-1.28,1.28,1.28,0,0,1,1.27,1.28"/><path id="Fill-1349" class="cls-5" d="M329.37,245.43a1.27,1.27,0,1,1-1.27-1.28,1.28,1.28,0,0,1,1.27,1.28"/><path id="Fill-1351" class="cls-5" d="M334.47,245.43a1.27,1.27,0,1,1-1.27-1.28,1.28,1.28,0,0,1,1.27,1.28"/><path id="Fill-1353" class="cls-5" d="M339.57,245.43a1.27,1.27,0,1,1-1.27-1.28,1.28,1.28,0,0,1,1.27,1.28"/><path id="Fill-1355" class="cls-5" d="M344.67,245.43a1.27,1.27,0,1,1-1.27-1.28,1.28,1.28,0,0,1,1.27,1.28"/><path id="Fill-1357" class="cls-5" d="M349.77,245.43a1.27,1.27,0,1,1-1.27-1.28,1.28,1.28,0,0,1,1.27,1.28"/><path id="Fill-1359" class="cls-5" d="M354.87,245.43a1.27,1.27,0,1,1-1.27-1.28,1.28,1.28,0,0,1,1.27,1.28"/><path id="Fill-1361" class="cls-5" d="M261.39,250.53a1.27,1.27,0,1,1-1.27-1.28,1.28,1.28,0,0,1,1.27,1.28"/><path id="Fill-1363" class="cls-5" d="M266.49,250.53a1.27,1.27,0,1,1-1.27-1.28,1.28,1.28,0,0,1,1.27,1.28"/><path id="Fill-1365" class="cls-5" d="M271.59,250.53a1.27,1.27,0,1,1-1.27-1.28,1.28,1.28,0,0,1,1.27,1.28"/><path id="Fill-1367" class="cls-5" d="M276.69,250.53a1.27,1.27,0,1,1-1.27-1.28,1.28,1.28,0,0,1,1.27,1.28"/><path id="Fill-1369" class="cls-5" d="M281.79,250.53a1.27,1.27,0,1,1-1.27-1.28,1.28,1.28,0,0,1,1.27,1.28"/><path id="Fill-1371" class="cls-5" d="M286.89,250.53a1.27,1.27,0,1,1-1.27-1.28,1.28,1.28,0,0,1,1.27,1.28"/><path id="Fill-1373" class="cls-5" d="M292,250.53a1.27,1.27,0,1,1-1.27-1.28,1.28,1.28,0,0,1,1.27,1.28"/><path id="Fill-1375" class="cls-5" d="M297.08,250.53a1.27,1.27,0,1,1-1.27-1.28,1.28,1.28,0,0,1,1.27,1.28"/><path id="Fill-1377" class="cls-5" d="M302.18,250.53a1.27,1.27,0,1,1-1.27-1.28,1.28,1.28,0,0,1,1.27,1.28"/><path id="Fill-1379" class="cls-5" d="M307.28,250.53a1.27,1.27,0,1,1-1.27-1.28,1.28,1.28,0,0,1,1.27,1.28"/><path id="Fill-1381" class="cls-5" d="M312.38,250.53a1.27,1.27,0,1,1-1.27-1.28,1.28,1.28,0,0,1,1.27,1.28"/><path id="Fill-1383" class="cls-5" d="M317.48,250.53a1.27,1.27,0,1,1-1.27-1.28,1.28,1.28,0,0,1,1.27,1.28"/><path id="Fill-1385" class="cls-5" d="M321.73,250.53a1.27,1.27,0,1,1-1.27-1.28,1.28,1.28,0,0,1,1.27,1.28"/><path id="Fill-1387" class="cls-5" d="M326.82,250.53a1.27,1.27,0,1,1-1.27-1.28,1.28,1.28,0,0,1,1.27,1.28"/><path id="Fill-1389" class="cls-5" d="M331.92,250.53a1.27,1.27,0,1,1-1.27-1.28,1.28,1.28,0,0,1,1.27,1.28"/><path id="Fill-1391" class="cls-5" d="M337,250.53a1.27,1.27,0,1,1-1.27-1.28,1.28,1.28,0,0,1,1.27,1.28"/><path id="Fill-1393" class="cls-5" d="M342.12,250.53a1.27,1.27,0,1,1-1.27-1.28,1.28,1.28,0,0,1,1.27,1.28"/><path id="Fill-1395" class="cls-5" d="M347.22,250.53a1.27,1.27,0,1,1-1.27-1.28,1.28,1.28,0,0,1,1.27,1.28"/><path id="Fill-1397" class="cls-5" d="M352.32,250.53a1.27,1.27,0,1,1-1.27-1.28,1.28,1.28,0,0,1,1.27,1.28"/><path id="Fill-1399" class="cls-5" d="M258,255.64a1.27,1.27,0,1,1-1.27-1.28,1.28,1.28,0,0,1,1.27,1.28"/><path id="Fill-1401" class="cls-5" d="M263.09,255.64a1.27,1.27,0,1,1-1.27-1.28,1.28,1.28,0,0,1,1.27,1.28"/><path id="Fill-1403" class="cls-5" d="M268.19,255.64a1.27,1.27,0,1,1-1.27-1.28,1.28,1.28,0,0,1,1.27,1.28"/><path id="Fill-1405" class="cls-5" d="M273.29,255.64a1.27,1.27,0,1,1-1.27-1.28,1.28,1.28,0,0,1,1.27,1.28"/><path id="Fill-1407" class="cls-5" d="M278.39,255.64a1.27,1.27,0,1,1-1.27-1.28,1.28,1.28,0,0,1,1.27,1.28"/><path id="Fill-1409" class="cls-5" d="M283.49,255.64a1.27,1.27,0,1,1-1.27-1.28,1.28,1.28,0,0,1,1.27,1.28"/><path id="Fill-1411" class="cls-5" d="M288.59,255.64a1.27,1.27,0,1,1-1.27-1.28,1.28,1.28,0,0,1,1.27,1.28"/><path id="Fill-1413" class="cls-5" d="M293.68,255.64a1.27,1.27,0,1,1-1.27-1.28,1.28,1.28,0,0,1,1.27,1.28"/><path id="Fill-1415" class="cls-5" d="M298.78,255.64a1.27,1.27,0,1,1-1.27-1.28,1.28,1.28,0,0,1,1.27,1.28"/><path id="Fill-1417" class="cls-5" d="M303.88,255.64a1.27,1.27,0,1,1-1.27-1.28,1.28,1.28,0,0,1,1.27,1.28"/><path id="Fill-1419" class="cls-5" d="M309,255.64a1.27,1.27,0,1,1-1.27-1.28,1.28,1.28,0,0,1,1.27,1.28"/><path id="Fill-1421" class="cls-5" d="M314.08,255.64a1.27,1.27,0,1,1-1.27-1.28,1.28,1.28,0,0,1,1.27,1.28"/><path id="Fill-1423" class="cls-5" d="M319.18,255.64a1.27,1.27,0,1,1-1.27-1.28,1.28,1.28,0,0,1,1.27,1.28"/><path id="Fill-1425" class="cls-5" d="M324.28,255.64a1.27,1.27,0,1,1-1.27-1.28,1.28,1.28,0,0,1,1.27,1.28"/><path id="Fill-1427" class="cls-5" d="M329.37,255.64a1.27,1.27,0,1,1-1.27-1.28,1.28,1.28,0,0,1,1.27,1.28"/><path id="Fill-1429" class="cls-5" d="M334.47,255.64a1.27,1.27,0,1,1-1.27-1.28,1.28,1.28,0,0,1,1.27,1.28"/><path id="Fill-1431" class="cls-5" d="M339.57,255.64a1.27,1.27,0,1,1-1.27-1.28,1.28,1.28,0,0,1,1.27,1.28"/><path id="Fill-1433" class="cls-5" d="M344.67,255.64a1.27,1.27,0,1,1-1.27-1.28,1.28,1.28,0,0,1,1.27,1.28"/><path id="Fill-1435" class="cls-5" d="M349.77,255.64a1.27,1.27,0,1,1-1.27-1.28,1.28,1.28,0,0,1,1.27,1.28"/><path id="Fill-1437" class="cls-5" d="M354.87,255.64a1.27,1.27,0,1,1-1.27-1.28,1.28,1.28,0,0,1,1.27,1.28"/><path id="Fill-1439" class="cls-5" d="M360,255.64a1.27,1.27,0,1,1-1.27-1.28,1.28,1.28,0,0,1,1.27,1.28"/><path id="Fill-1441" class="cls-5" d="M365.06,255.64a1.27,1.27,0,1,1-1.27-1.28,1.28,1.28,0,0,1,1.27,1.28"/><path id="Fill-1443" class="cls-5" d="M261.39,260.75a1.27,1.27,0,1,1-1.27-1.28,1.28,1.28,0,0,1,1.27,1.28"/><path id="Fill-1445" class="cls-5" d="M266.49,260.75a1.27,1.27,0,1,1-1.27-1.28,1.28,1.28,0,0,1,1.27,1.28"/><path id="Fill-1447" class="cls-5" d="M271.59,260.75a1.27,1.27,0,1,1-1.27-1.28,1.28,1.28,0,0,1,1.27,1.28"/><path id="Fill-1449" class="cls-5" d="M276.69,260.75a1.27,1.27,0,1,1-1.27-1.28,1.28,1.28,0,0,1,1.27,1.28"/><path id="Fill-1451" class="cls-5" d="M281.79,260.75a1.27,1.27,0,1,1-1.27-1.28,1.28,1.28,0,0,1,1.27,1.28"/><path id="Fill-1453" class="cls-5" d="M286.89,260.75a1.27,1.27,0,1,1-1.27-1.28,1.28,1.28,0,0,1,1.27,1.28"/><path id="Fill-1455" class="cls-5" d="M292,260.75a1.27,1.27,0,1,1-1.27-1.28,1.28,1.28,0,0,1,1.27,1.28"/><path id="Fill-1457" class="cls-5" d="M297.08,260.75a1.27,1.27,0,1,1-1.27-1.28,1.28,1.28,0,0,1,1.27,1.28"/><path id="Fill-1459" class="cls-5" d="M302.18,260.75a1.27,1.27,0,1,1-1.27-1.28,1.28,1.28,0,0,1,1.27,1.28"/><path id="Fill-1461" class="cls-5" d="M307.28,260.75a1.27,1.27,0,1,1-1.27-1.28,1.28,1.28,0,0,1,1.27,1.28"/><path id="Fill-1463" class="cls-5" d="M312.38,260.75a1.27,1.27,0,1,1-1.27-1.28,1.28,1.28,0,0,1,1.27,1.28"/><path id="Fill-1465" class="cls-5" d="M317.48,260.75a1.27,1.27,0,1,1-1.27-1.28,1.28,1.28,0,0,1,1.27,1.28"/><path id="Fill-1467" class="cls-5" d="M321.73,260.75a1.27,1.27,0,1,1-1.27-1.28,1.28,1.28,0,0,1,1.27,1.28"/><path id="Fill-1469" class="cls-5" d="M326.82,260.75a1.27,1.27,0,1,1-1.27-1.28,1.28,1.28,0,0,1,1.27,1.28"/><path id="Fill-1471" class="cls-5" d="M331.92,260.75a1.27,1.27,0,1,1-1.27-1.28,1.28,1.28,0,0,1,1.27,1.28"/><path id="Fill-1473" class="cls-5" d="M337,260.75a1.27,1.27,0,1,1-1.27-1.28,1.28,1.28,0,0,1,1.27,1.28"/><path id="Fill-1475" class="cls-5" d="M342.12,260.75a1.27,1.27,0,1,1-1.27-1.28,1.28,1.28,0,0,1,1.27,1.28"/><path id="Fill-1477" class="cls-5" d="M347.22,260.75a1.27,1.27,0,1,1-1.27-1.28,1.28,1.28,0,0,1,1.27,1.28"/><path id="Fill-1479" class="cls-5" d="M352.32,260.75a1.27,1.27,0,1,1-1.27-1.28,1.28,1.28,0,0,1,1.27,1.28"/><path id="Fill-1481" class="cls-5" d="M357.42,260.75a1.27,1.27,0,1,1-1.27-1.28,1.28,1.28,0,0,1,1.27,1.28"/><path id="Fill-1483" class="cls-5" d="M362.52,260.75a1.27,1.27,0,1,1-1.27-1.28,1.28,1.28,0,0,1,1.27,1.28"/><path id="Fill-1485" class="cls-5" d="M367.61,260.75a1.27,1.27,0,1,1-1.27-1.28,1.28,1.28,0,0,1,1.27,1.28"/><path id="Fill-1487" class="cls-5" d="M161.55,265.85a1.27,1.27,0,1,1-1.27-1.28,1.28,1.28,0,0,1,1.27,1.28"/><path id="Fill-1489" class="cls-5" d="M166.64,265.85a1.27,1.27,0,1,1-1.27-1.28,1.28,1.28,0,0,1,1.27,1.28"/><path id="Fill-1491" class="cls-5" d="M171.74,265.85a1.27,1.27,0,1,1-1.27-1.28,1.28,1.28,0,0,1,1.27,1.28"/><path id="Fill-1493" class="cls-5" d="M176.84,265.85a1.27,1.27,0,1,1-1.27-1.28,1.28,1.28,0,0,1,1.27,1.28"/><path id="Fill-1495" class="cls-5" d="M181.94,265.85a1.27,1.27,0,1,1-1.27-1.28,1.28,1.28,0,0,1,1.27,1.28"/><path id="Fill-1497" class="cls-5" d="M187,265.85a1.27,1.27,0,1,1-1.27-1.28,1.28,1.28,0,0,1,1.27,1.28"/><path id="Fill-1499" class="cls-5" d="M192.14,265.85a1.27,1.27,0,1,1-1.27-1.28,1.28,1.28,0,0,1,1.27,1.28"/><path id="Fill-1501" class="cls-5" d="M197.24,265.85a1.27,1.27,0,1,1-1.27-1.28,1.28,1.28,0,0,1,1.27,1.28"/><path id="Fill-1503" class="cls-5" d="M202.33,265.85a1.27,1.27,0,1,1-1.27-1.28,1.28,1.28,0,0,1,1.27,1.28"/><path id="Fill-1505" class="cls-5" d="M207.43,265.85a1.27,1.27,0,1,1-1.27-1.28,1.28,1.28,0,0,1,1.27,1.28"/><path id="Fill-1507" class="cls-5" d="M212.53,265.85a1.27,1.27,0,1,1-1.27-1.28,1.28,1.28,0,0,1,1.27,1.28"/><path id="Fill-1509" class="cls-5" d="M217.63,265.85a1.27,1.27,0,1,1-1.27-1.28,1.28,1.28,0,0,1,1.27,1.28"/><path id="Fill-1511" class="cls-5" d="M222.73,265.85a1.27,1.27,0,1,1-1.27-1.28,1.28,1.28,0,0,1,1.27,1.28"/><path id="Fill-1513" class="cls-5" d="M227.83,265.85a1.27,1.27,0,1,1-1.27-1.28,1.28,1.28,0,0,1,1.27,1.28"/><path id="Fill-1515" class="cls-5" d="M232.93,265.85a1.27,1.27,0,1,1-1.27-1.28,1.28,1.28,0,0,1,1.27,1.28"/><path id="Fill-1517" class="cls-5" d="M238,265.85a1.27,1.27,0,1,1-1.27-1.28,1.28,1.28,0,0,1,1.27,1.28"/><path id="Fill-1519" class="cls-5" d="M243.12,265.85a1.27,1.27,0,1,1-1.27-1.28,1.28,1.28,0,0,1,1.27,1.28"/><path id="Fill-1521" class="cls-5" d="M248.22,265.85a1.27,1.27,0,1,1-1.27-1.28,1.28,1.28,0,0,1,1.27,1.28"/><path id="Fill-1523" class="cls-5" d="M253.32,265.85a1.27,1.27,0,1,1-1.27-1.28,1.28,1.28,0,0,1,1.27,1.28"/><path id="Fill-1525" class="cls-5" d="M258.42,265.85a1.27,1.27,0,1,1-1.27-1.28,1.28,1.28,0,0,1,1.27,1.28"/><path id="Fill-1527" class="cls-5" d="M263.52,265.85a1.27,1.27,0,1,1-1.27-1.28,1.28,1.28,0,0,1,1.27,1.28"/><path id="Fill-1529" class="cls-5" d="M268.62,265.85a1.27,1.27,0,1,1-1.27-1.28,1.28,1.28,0,0,1,1.27,1.28"/><path id="Fill-1531" class="cls-5" d="M273.71,265.85a1.27,1.27,0,1,1-1.27-1.28,1.28,1.28,0,0,1,1.27,1.28"/><path id="Fill-1533" class="cls-5" d="M278.81,265.85a1.27,1.27,0,1,1-1.27-1.28,1.28,1.28,0,0,1,1.27,1.28"/><path id="Fill-1535" class="cls-5" d="M283.91,265.85a1.27,1.27,0,1,1-1.27-1.28,1.28,1.28,0,0,1,1.27,1.28"/><path id="Fill-1537" class="cls-5" d="M289,265.85a1.27,1.27,0,1,1-1.27-1.28,1.28,1.28,0,0,1,1.27,1.28"/><path id="Fill-1539" class="cls-5" d="M294.11,265.85a1.27,1.27,0,1,1-1.27-1.28,1.28,1.28,0,0,1,1.27,1.28"/><path id="Fill-1541" class="cls-5" d="M299.21,265.85a1.27,1.27,0,1,1-1.27-1.28,1.28,1.28,0,0,1,1.27,1.28"/><path id="Fill-1543" class="cls-5" d="M304.31,265.85a1.27,1.27,0,1,1-1.27-1.28,1.28,1.28,0,0,1,1.27,1.28"/><path id="Fill-1545" class="cls-5" d="M309.4,265.85a1.27,1.27,0,1,1-1.27-1.28,1.28,1.28,0,0,1,1.27,1.28"/><path id="Fill-1547" class="cls-5" d="M314.5,265.85a1.27,1.27,0,1,1-1.27-1.28,1.28,1.28,0,0,1,1.27,1.28"/><path id="Fill-1549" class="cls-5" d="M319.6,265.85a1.27,1.27,0,1,1-1.27-1.28,1.28,1.28,0,0,1,1.27,1.28"/><path id="Fill-1551" class="cls-5" d="M324.7,265.85a1.27,1.27,0,1,1-1.27-1.28,1.28,1.28,0,0,1,1.27,1.28"/><path id="Fill-1553" class="cls-5" d="M329.8,265.85a1.27,1.27,0,1,1-1.27-1.28,1.28,1.28,0,0,1,1.27,1.28"/><path id="Fill-1555" class="cls-5" d="M334.9,265.85a1.27,1.27,0,1,1-1.27-1.28,1.28,1.28,0,0,1,1.27,1.28"/><path id="Fill-1557" class="cls-5" d="M340,265.85a1.27,1.27,0,1,1-1.27-1.28,1.28,1.28,0,0,1,1.27,1.28"/><path id="Fill-1559" class="cls-5" d="M345.09,265.85a1.27,1.27,0,1,1-1.27-1.28,1.28,1.28,0,0,1,1.27,1.28"/><path id="Fill-1561" class="cls-5" d="M350.19,265.85a1.27,1.27,0,1,1-1.27-1.28,1.28,1.28,0,0,1,1.27,1.28"/><path id="Fill-1563" class="cls-5" d="M355.29,265.85a1.27,1.27,0,1,1-1.27-1.28,1.28,1.28,0,0,1,1.27,1.28"/><path id="Fill-1565" class="cls-5" d="M360.39,265.85a1.27,1.27,0,1,1-1.27-1.28,1.28,1.28,0,0,1,1.27,1.28"/><path id="Fill-1567" class="cls-5" d="M365.49,265.85a1.27,1.27,0,1,1-1.27-1.28,1.28,1.28,0,0,1,1.27,1.28"/></g></g></g></g></g></svg>
