<?xml version="1.0" encoding="utf-8"?>
<!-- Generator: Adobe Illustrator 20.1.0, SVG Export Plug-In . SVG Version: 6.00 Build 0)  -->
<svg version="1.1" id="Layer_1" xmlns="http://www.w3.org/2000/svg" xmlns:xlink="http://www.w3.org/1999/xlink" x="0px" y="0px"
	 viewBox="0 0 100 100" style="enable-background:new 0 0 100 100;" xml:space="preserve">
<title>ZoOpgelost iconen</title>
<g>
	<path d="M85.9,80.8h-2.6V55.6c0,0,0,0,0,0c0-18.4-15-33.3-33.3-33.3c0,0,0,0-0.1,0c-1.3,0-2.6,0.1-3.9,0.2
		c-15.9,1.8-29.3,17.2-29.3,33.7v24.6h-1.3c-3.5,0-6.4,2.9-6.4,6.4c0,3.5,2.9,6.4,6.4,6.4h70.5c3.5,0,6.4-2.9,6.4-6.4
		C92.3,83.7,89.4,80.8,85.9,80.8z M19.2,56.2c0-15.2,12.4-29.4,27.1-31.1c1.2-0.1,2.4-0.2,3.6-0.2c0,0,0,0,0.1,0
		c16.9,0,30.7,13.8,30.8,30.7v25.2H19.2V56.2z M85.9,91.1H15.4c-2.1,0-3.9-1.7-3.9-3.9s1.7-3.9,3.9-3.9h2.4c0,0,0.1,0,0.1,0h64.1
		c0,0,0.1,0,0.1,0h3.7c2.1,0,3.9,1.7,3.9,3.9S88,91.1,85.9,91.1z"/>
	<path d="M50,18c0.7,0,1.3-0.6,1.3-1.3v-9c0-0.7-0.6-1.3-1.3-1.3S48.7,7,48.7,7.7v9C48.7,17.4,49.3,18,50,18z"/>
	<path d="M79.3,29.7c0.3,0,0.7-0.1,0.9-0.4l6.5-6.5c0.5-0.5,0.5-1.3,0-1.8c-0.5-0.5-1.3-0.5-1.8,0l-6.5,6.5c-0.5,0.5-0.5,1.3,0,1.8
		C78.6,29.6,79,29.7,79.3,29.7z"/>
	<path d="M98.7,56.4h-9c-0.7,0-1.3,0.6-1.3,1.3S89,59,89.7,59h9c0.7,0,1.3-0.6,1.3-1.3S99.4,56.4,98.7,56.4z"/>
	<path d="M19.9,29.8c0.3,0.3,0.6,0.4,0.9,0.4c0.3,0,0.7-0.1,0.9-0.4c0.5-0.5,0.5-1.3,0-1.8l-6.5-6.5c-0.5-0.5-1.3-0.5-1.8,0
		c-0.5,0.5-0.5,1.3,0,1.8L19.9,29.8z"/>
	<path d="M11.5,57.7c0-0.7-0.6-1.3-1.3-1.3h-9C0.6,56.4,0,57,0,57.7S0.6,59,1.3,59h9C11,59,11.5,58.4,11.5,57.7z"/>
	<path d="M44.8,32.6c-4.5,0-8.8,1.8-12,5c-3.2,3.2-5,7.5-5,12c0,0.7,0.6,1.3,1.3,1.3h0c0.7,0,1.3-0.6,1.3-1.3
		c0-3.9,1.5-7.5,4.2-10.2c2.7-2.7,6.4-4.2,10.2-4.2c0,0,0,0,0,0c0.7,0,1.3-0.6,1.3-1.3C46.1,33.2,45.4,32.6,44.8,32.6z"/>
</g>
</svg>
