<?xml version="1.0" encoding="utf-8"?>
<!-- Generator: Adobe Illustrator 20.1.0, SVG Export Plug-In . SVG Version: 6.00 Build 0)  -->
<svg version="1.1" id="Layer_1" xmlns="http://www.w3.org/2000/svg" xmlns:xlink="http://www.w3.org/1999/xlink" x="0px" y="0px"
	 viewBox="0 0 100 100" style="enable-background:new 0 0 100 100;" xml:space="preserve">
<path d="M93.6,14.1h-6.4V7.7c0-0.7-0.6-1.3-1.3-1.3S84.6,7,84.6,7.7v6.4H15.4V7.7c0-0.7-0.6-1.3-1.3-1.3S12.8,7,12.8,7.7v6.4H6.4
	C2.9,14.1,0,17,0,20.5v66.6c0,3.5,2.9,6.4,6.4,6.4h87.2c3.5,0,6.4-2.9,6.4-6.4V20.5C100,17,97.1,14.1,93.6,14.1z M2.6,37.2h23.1
	v24.4H2.6V37.2z M28.2,37.2h20.5v24.4H28.2V37.2z M48.7,64.1V91H28.2V64.1H48.7z M51.3,64.1h21.8V91H51.3V64.1z M51.3,61.5V37.2
	h21.8v24.4H51.3z M75.6,37.2h21.8v24.4H75.6V37.2z M6.4,16.7h6.4v5.1c0,0.7,0.6,1.3,1.3,1.3s1.3-0.6,1.3-1.3v-5.1h69.2v5.1
	c0,0.7,0.6,1.3,1.3,1.3s1.3-0.6,1.3-1.3v-5.1h6.4c2.1,0,3.9,1.7,3.9,3.9v14.1H2.6V20.5C2.6,18.4,4.3,16.7,6.4,16.7z M2.6,87.2V64.1
	h23.1V91H6.4C4.3,91,2.6,89.3,2.6,87.2z M93.6,91H75.6V64.1h21.8v23.1C97.4,89.3,95.7,91,93.6,91z"/>
<path d="M26.9,24.4h47.4c0.7,0,1.3-0.6,1.3-1.3s-0.6-1.3-1.3-1.3H26.9c-0.7,0-1.3,0.6-1.3,1.3S26.2,24.4,26.9,24.4z"/>
</svg>
