<?xml version="1.0" encoding="utf-8"?>
<!-- Generator: Adobe Illustrator 20.1.0, SVG Export Plug-In . SVG Version: 6.00 Build 0)  -->
<svg version="1.1" id="Layer_1" xmlns="http://www.w3.org/2000/svg" xmlns:xlink="http://www.w3.org/1999/xlink" x="0px" y="0px"
	 viewBox="0 0 100 100" style="enable-background:new 0 0 100 100;" xml:space="preserve">
<style type="text/css">
	.st0{fill-rule:evenodd;clip-rule:evenodd;fill:#110202;}
</style>
<path class="st0" d="M50,42c8.1,0,14.5,6.4,14.5,14.4S58.1,70.8,50,70.8s-14.5-6.4-14.5-14.4S41.9,42,50,42z M50,35.6
	c-11.5,0-21,9.4-21,20.8c0,11.5,9.4,20.8,21,20.8s21-9.4,21-20.8C71,44.9,61.5,35.6,50,35.6z M37.4,14.7h25.1l5.5,11
	c0.5,1.1,1.7,1.8,2.9,1.8h18.1c2.5,0,4.5,1.9,4.5,4.5v48.7c0,2.6-1.9,4.5-4.5,4.5H10.9c-2.5,0-4.5-1.9-4.5-4.5V32.1
	c0-2.6,1.9-4.5,4.5-4.5H29c1.2,0,2.4-0.7,2.9-1.8L37.4,14.7z M35.5,8.3c-1.4,0-2.4,1-2.9,1.8L27,21.2H10.9C4.9,21.2,0,26.1,0,32.1
	v48.7c0,6,4.9,10.9,10.9,10.9h78.1c6,0,10.9-4.9,10.9-10.9V32.1c0-6-4.9-10.9-10.9-10.9H73l-5.6-11.1c-0.5-1-1.7-1.8-2.9-1.8H35.5z"
	/>
</svg>
