<?xml version="1.0" encoding="utf-8"?>
<!-- Generator: Adobe Illustrator 20.1.0, SVG Export Plug-In . SVG Version: 6.00 Build 0)  -->
<svg version="1.1" id="Layer_1" xmlns="http://www.w3.org/2000/svg" xmlns:xlink="http://www.w3.org/1999/xlink" x="0px" y="0px"
	 viewBox="0 0 100 100" style="enable-background:new 0 0 100 100;" xml:space="preserve">
<path d="M98.9,93.3L55.4,49.8L98.6,6.7c1.5-1.5,1.5-3.9,0-5.4c-1.5-1.5-3.9-1.5-5.4,0L50,44.4L6.8,1.3c-1.5-1.5-3.9-1.5-5.4,0
	s-1.5,3.9,0,5.4l43.2,43.2L1.1,93.3c-1.5,1.5-1.5,3.9,0,5.4c0.7,0.7,1.7,1.1,2.7,1.1s2-0.4,2.7-1.1L50,55.2l43.5,43.5
	c0.8,0.8,1.7,1.1,2.7,1.1c1,0,2-0.4,2.7-1.1C100.4,97.2,100.4,94.8,98.9,93.3z"/>
</svg>
