<?xml version="1.0" encoding="utf-8"?>
<!-- Generator: Adobe Illustrator 20.1.0, SVG Export Plug-In . SVG Version: 6.00 Build 0)  -->
<svg version="1.1" id="Layer_1" xmlns="http://www.w3.org/2000/svg" xmlns:xlink="http://www.w3.org/1999/xlink" x="0px" y="0px"
	 viewBox="0 0 100 100" style="enable-background:new 0 0 100 100;" xml:space="preserve">
<title>ZoOpgelost iconen</title>
<g>
	<path d="M97.2,83.1L77.5,63.4c-3.4-3.4-8.7-3.7-12.4-0.9l-5.1-5.1c5.5-6.3,8.5-14.2,8.5-22.6c0-9.1-3.6-17.7-10-24.2
		c-6.5-6.5-15.1-10-24.2-10c-9.1,0-17.8,3.6-24.2,10C-3.3,23.9-3.3,45.6,10,59c6.7,6.7,15.4,10,24.2,10c8.5,0,17.1-3.2,23.7-9.5l5,5
		c-2.8,3.8-2.4,9.1,0.9,12.4l19.7,19.7c1.9,1.9,4.3,2.8,6.8,2.8c2.5,0,4.9-0.9,6.8-2.8C100.9,92.9,100.9,86.9,97.2,83.1z M12.1,56.9
		c-12.2-12.2-12.2-32.1,0-44.3C18,6.7,25.9,3.4,34.2,3.4c8.4,0,16.2,3.3,22.2,9.2c5.9,5.9,9.2,13.8,9.2,22.2S62.3,51,56.4,56.9
		C44.2,69.2,24.3,69.2,12.1,56.9z M95.1,94.6c-2.6,2.6-6.8,2.6-9.4,0L66,74.9c-2.6-2.6-2.6-6.8,0-9.4c2.6-2.6,6.8-2.6,9.4,0
		l19.7,19.7C97.7,87.8,97.7,92,95.1,94.6z"/>
	<path d="M12.2,34.4c0-5.5,2.1-10.6,6-14.5l-1-1l-1.1-1C7,27,7,41.8,16.1,50.9c0.3,0.3,0.7,0.4,1,0.4c0.4,0,0.7-0.1,1-0.4
		c0.6-0.6,0.6-1.5,0-2.1C14.3,45,12.2,39.8,12.2,34.4z"/>
</g>
</svg>
