<?xml version="1.0" encoding="utf-8"?>
<!-- Generator: Adobe Illustrator 20.1.0, SVG Export Plug-In . SVG Version: 6.00 Build 0)  -->
<svg version="1.1" id="Layer_1" xmlns="http://www.w3.org/2000/svg" xmlns:xlink="http://www.w3.org/1999/xlink" x="0px" y="0px"
	 viewBox="0 0 25 100" style="enable-background:new 0 0 25 100;" xml:space="preserve">
<path id="Shape" d="M12.5,25C19.4,25,25,19.4,25,12.5S19.4,0,12.5,0S0,5.6,0,12.5S5.6,25,12.5,25L12.5,25z M12.5,37.5
	C5.6,37.5,0,43.1,0,50s5.6,12.5,12.5,12.5S25,56.9,25,50S19.4,37.5,12.5,37.5L12.5,37.5z M12.5,75C5.6,75,0,80.6,0,87.5
	S5.6,100,12.5,100S25,94.4,25,87.5S19.4,75,12.5,75L12.5,75z"/>
</svg>
