<?xml version="1.0" encoding="UTF-8"?>
<svg width="4px" height="16px" viewBox="0 0 4 16" version="1.1" xmlns="http://www.w3.org/2000/svg" xmlns:xlink="http://www.w3.org/1999/xlink">
    <!-- Generator: Sketch 44.1 (41455) - http://www.bohemiancoding.com/sketch -->
    <title>Shape</title>
    <desc>Created with Sketch.</desc>
    <defs></defs>
    <g id="320-Home,-Aanbod,-Abo,-Spoed" stroke="none" stroke-width="1" fill="none" fill-rule="evenodd">
        <g id="320-Aanbod" transform="translate(-300.000000, -22.000000)" fill="#000000">
            <path d="M302,34 C303.1,34 304,34.9 304,36 C304,37.1 303.1,38 302,38 C300.9,38 300,37.1 300,36 C300,34.9 300.9,34 302,34 L302,34 Z M302,32 C300.9,32 300,31.1 300,30 C300,28.9 300.9,28 302,28 C303.1,28 304,28.9 304,30 C304,31.1 303.1,32 302,32 L302,32 Z M302,26 C300.9,26 300,25.1 300,24 C300,22.9 300.9,22 302,22 C303.1,22 304,22.9 304,24 C304,25.1 303.1,26 302,26 L302,26 Z" id="Shape" transform="translate(302.000000, 30.000000) scale(1, -1) translate(-302.000000, -30.000000) "></path>
        </g>
    </g>
</svg>
