<?xml version="1.0" encoding="utf-8"?>
<!-- Generator: Adobe Illustrator 20.1.0, SVG Export Plug-In . SVG Version: 6.00 Build 0)  -->
<svg version="1.1" id="Layer_1" xmlns="http://www.w3.org/2000/svg" xmlns:xlink="http://www.w3.org/1999/xlink" x="0px" y="0px"
	 viewBox="0 0 95.9 100" style="enable-background:new 0 0 95.9 100;" xml:space="preserve">
<path d="M92.5,70.7c0-0.1,0-0.1-0.1-0.2c0-0.1,0-0.1-0.1-0.2c-0.1-0.2-0.2-0.3-0.3-0.5l-62-62l0,0l0,0l-3.2-3.2
	c-6.1-6.1-16.1-6.1-22.2,0s-6.1,16.1,0,22.2l2.1,2.1l-5.3,5.3C1.1,34.5,1,34.9,1,35.3c0,0.4,0.2,0.8,0.4,1.1L19,54
	c0.3,0.3,0.7,0.4,1.1,0.4s0.8-0.1,1.1-0.4c0.6-0.6,0.6-1.5,0-2.1L4.6,35.2L8.9,31l61,61c0,0,0,0.1,0.1,0.1c0.3,0.3,0.7,0.4,1.1,0.4
	l0,0l23.1,3.2c0.1,0,0.1,0,0.2,0c0.4,0,0.8-0.2,1.1-0.4c0.3-0.3,0.5-0.8,0.4-1.3L92.5,70.7z M6.7,24.6c-4.9-4.9-4.9-13,0-17.9
	s13-4.9,17.9,0l2.1,2.1l-17.9,18L6.7,24.6z M28.9,11l60,60L71,88.9l-60-60L28.9,11z M74.2,89.9L90,74.1l2.6,18.3L74.2,89.9z"/>
<path d="M68.5,58.9L39.8,30.2c-0.6-0.6-1.5-0.6-2.1,0s-0.6,1.5,0,2.1L66.4,61c0.3,0.3,0.7,0.4,1.1,0.4s0.8-0.1,1.1-0.4
	C69.1,60.5,69.1,59.5,68.5,58.9z"/>
<path d="M67.4,97H22.3c-0.8,0-1.5,0.7-1.5,1.5s0.7,1.5,1.5,1.5h45.2c0.8,0,1.5-0.7,1.5-1.5S68.3,97,67.4,97z"/>
</svg>
