<?xml version="1.0" encoding="utf-8"?>
<!-- Generator: Adobe Illustrator 20.1.0, SVG Export Plug-In . SVG Version: 6.00 Build 0)  -->
<svg version="1.1" id="Layer_1" xmlns="http://www.w3.org/2000/svg" xmlns:xlink="http://www.w3.org/1999/xlink" x="0px" y="0px"
	 viewBox="0 0 100 100" style="enable-background:new 0 0 100 100;" xml:space="preserve">
<style type="text/css">
	.st0{fill-rule:evenodd;clip-rule:evenodd;}
</style>
<path class="st0" d="M13.4,7.5h73.3c3.3,0,5.9,2.6,5.9,5.9v39.1L75.6,31c-2-2.6-6-2.6-8,0L42.8,62.3L32.5,51c-2.1-2.3-5.8-2.3-7.9,0
	L7.5,69.7V13.4C7.5,10.1,10.1,7.5,13.4,7.5z M86.6,0H13.4C6,0,0,6,0,13.4v73.3C0,94,6,100,13.4,100h73.3c7.4,0,13.4-6,13.4-13.4
	V13.4C100,6,94,0,86.6,0z"/>
</svg>
