<?xml version="1.0" encoding="utf-8"?>
<!-- Generator: Adobe Illustrator 20.1.0, SVG Export Plug-In . SVG Version: 6.00 Build 0)  -->
<svg version="1.1" id="Layer_1" xmlns="http://www.w3.org/2000/svg" xmlns:xlink="http://www.w3.org/1999/xlink" x="0px" y="0px"
	 viewBox="0 0 46.8 99.9" style="enable-background:new 0 0 46.8 99.9;" xml:space="preserve">
<path d="M0,9.7c1.3-1.3,2.7-2.5,4.2-3.6c1.6-1.2,3.4-2.2,5.2-3c2-1,4.1-1.8,6.3-2.3C18.1,0.2,20.5,0,23,0c3.2,0,6.3,0.5,9.3,1.5
	c2.8,0.9,5.3,2.3,7.5,4.2c4.5,3.8,7.1,9.5,7,15.5c0.1,3.1-0.5,6.2-1.6,9.1c-1,2.4-2.4,4.7-4.2,6.7c-1.6,1.9-3.4,3.6-5.4,5.1
	l-5.5,4.1c-1.6,1.2-3,2.5-4.3,3.9c-1.1,1.2-1.8,2.7-1.9,4.3L23,65.8h-4.6l-0.3-11.9v-0.3c0-1.8,0.6-3.6,1.7-5
	c1.2-1.5,2.6-2.9,4.2-4.2c1.6-1.3,3.4-2.7,5.4-4.1c1.9-1.4,3.7-2.9,5.4-4.6c1.7-1.8,3.1-3.8,4.2-6c1.2-2.5,1.7-5.3,1.7-8.1
	c0.1-4.5-1.9-8.9-5.4-11.7c-1.7-1.4-3.7-2.5-5.8-3.1C27.3,6,25,5.7,22.7,5.6c-2.7-0.1-5.4,0.3-8,1.2c-2,0.7-3.9,1.6-5.6,2.8
	c-1.3,0.8-2.5,1.7-3.6,2.7c-0.9,0.8-1.5,1.2-1.8,1.2c-0.6,0-1.2-0.3-1.5-0.8L0,9.7z M13.6,93.6c0-0.9,0.2-1.7,0.5-2.5
	s0.8-1.5,1.4-2.1c0.6-0.6,1.3-1.1,2-1.4c0.8-0.4,1.7-0.5,2.6-0.5c0.9,0,1.7,0.2,2.5,0.5c1.5,0.7,2.8,1.9,3.4,3.5
	c0.3,0.8,0.5,1.6,0.5,2.5s-0.2,1.7-0.5,2.5s-0.8,1.4-1.4,2c-0.6,0.6-1.3,1-2,1.3c-0.8,0.3-1.6,0.5-2.5,0.5c-3.5,0.1-6.4-2.7-6.4-6.2
	C13.6,93.7,13.6,93.7,13.6,93.6z"/>
</svg>
